<svg xmlns="http://www.w3.org/2000/svg" id="Ebene_1" data-name="Ebene 1" viewBox="0 0 404.4 425.76"><defs><style>.cls-1{fill:transparent}.cls-2{fill:#fdfcfc}.cls-3{fill:transparent}</style></defs><path d="M.03,415.17c0-138.02,0-276.05-.02-414.07C.01.2.21,0,1.11,0c134.06.02,268.12.02,402.18,0,.9,0,1.1.2,1.1,1.1-.02,131.22-.02,262.45-.02,393.67-.42-.18-.22-.55-.23-.83-.04-1.58.03-3.16-.23-4.75-.35-2.16-1.16-4.22-2.53-5.77-2.58-2.9-5.73-5.16-9.25-6.91-5.12-2.54-10.35-4.78-15.83-6.42-.85-.26-.99-.63-.98-1.4.03-3.12.01-6.25.01-9.37,0-1.35-.22-2.66-.62-3.94-1.7-5.48-5.64-9.04-10.44-11.71-5.28-2.94-11.02-4.76-16.74-6.62-3.83-1.25-7.69-2.4-11.6-3.38-2.52-.63-5.06-1.21-7.6-1.79-2.58-.59-5.19-1.05-7.79-1.54-3.19-.6-6.39-1.07-9.59-1.52-3.23-.46-6.51-.66-9.76-.99-3.92-.4-7.84-.82-11.78-.92-2.63-.07-5.25-.36-7.89-.32-1.72.02-3.44-.17-5.42-.27,3.29-2.05,6.34-4.05,9.48-5.89,2.23-1.31,4.35-2.79,6.54-4.16,1.32-.83,1.75-1.88,1.33-3-.47-1.23-1.51-1.54-2.71-1.54-2,0-3.99,0-6.22,0,2.85-1.58,5.6-2.87,8.11-4.63,2.41-1.69,4.73-3.49,6.93-5.44,3.33-2.93,6.37-6.15,9.3-9.49.56-.64,1.1-1.35,2.04-1.59.52-.13.85-.62.94-1.16.1-.59.47-.96.85-1.37,1.4-1.51,2.78-3.05,4.19-4.55,1.46-1.56,2.72-3.33,4.44-4.65.83-.64,1.17-2.35.72-3.3-.47-.99-1.52-1.36-2.86-1.12-1.69.31-3.37.63-5.06,1.06,2.99-2.92,5.81-5.9,8.24-9.26,2.17-3,4.11-6.14,5.88-9.38,1.92-3.51,3.71-7.09,5.58-10.63,1.48-2.81,3.04-5.57,4.49-8.4.51-1.01.71-2.14-.11-3.16-.67-.83-1.61-.96-2.49-.57-1.2.52-2.46.92-3.55,1.7-.35.25-.69.71-1.29.49,1.67-2.76,3.31-5.5,4.61-8.46,2.28-5.17,3.76-10.56,5.01-16.03.45-1.98,1.12-3.89,1.53-5.89.63-3.03,1.44-6.02,2.28-9,.43-1.52.3-2.64-.72-3.33-1.07-.73-2.33-.43-3.53.71-.97.93-2.03,1.77-3.06,2.65-.06-.7.07-1.24.27-1.75.63-1.59,1.19-3.18,1.54-4.88.83-4.03,1.46-8.06,1.59-12.19.22-7.32.05-14.63.17-21.95.02-1.12-.23-2.08-1.44-2.47-1.1-.35-2.05.1-2.82,1.21-.61.87-1.3,1.69-2.07,2.67.22-5.65-.09-11-1.32-16.29-.84-3.61-1.69-7.21-2.64-10.79-.92-3.46-1.7-6.96-2.56-10.44-.26-1.06-.99-1.64-2.05-1.72-1.07-.08-2.03.46-2.28,1.42-.57,2.2-1.61,4.24-2.06,6.48-.41,2-.94,3.97-1.42,5.95-.3-.46-.41-.88-.48-1.31-.91-5.04-2.72-9.76-4.88-14.38-1.28-2.75-3.43-5.02-4.3-7.98-.1-.34-.41-.62-.76-.73-.58-.19-.85-.66-1.21-1.08-1.81-2.1-3.5-4.35-5.54-6.21-2.6-2.37-5.1-4.85-7.65-7.26-2.36-2.24-4.78-4.41-7.15-6.63-.95-.89-2.23-.94-3.06-.26-.83.68-1.03,1.8-.4,2.94.72,1.32,1.5,2.61,2.31,3.88,1.49,2.35,2.85,4.79,4.02,7.3,1.45,3.12,2.74,6.32,3.93,9.56.59,1.6,1.23,3.19,1.92,4.74,1.44,3.23,2.83,6.48,4.45,9.63,1.56,3.04,3.17,6.04,4.9,8.99.53.89,1.3,1.73,1.44,2.88-.98-.51-1.88-1.06-2.79-1.6-2.38-1.41-4.85-2.55-7.52-3.25-1.01-.26-2.01-.34-2.74.6-.75.96-.48,1.94.05,2.91,1.2,2.2,2.67,4.22,3.87,6.43,1.78,3.26,3.08,6.72,4.41,10.14,1.31,3.37,2.81,6.64,4.31,9.92-.07.09-.15.19-.22.28-1.01-.14-1.8-.83-2.75-1.13-1.9-.6-3.31.73-2.94,2.7.29,1.56,1.23,2.84,1.71,4.32.74,2.26,1.66,4.47,2.11,6.83.32,1.67.95,3.29.94,5.04-.28-.31-.47-.65-.64-1-2.64-5.45-5.2-10.92-7.99-16.3-4.58-8.83-9.53-17.48-13.67-26.54-.99-2.17-2.04-4.32-3.01-6.5-2.68-6.04-5.34-12.09-7.98-18.15-2.3-5.29-4.53-10.62-6.83-15.91-2.33-5.37-4.74-10.7-7.02-16.09-1.35-3.19-2.63-6.42-3.78-9.69-1.51-4.29-2.86-8.63-3.91-13.06-1.05-4.42-1.81-8.89-2.16-13.41-.25-3.3-.05-6.61.68-9.87.52-2.35.94-4.72,2.09-7.07.19,3.02-.31,5.88.33,8.66,1.92,8.32,6.87,13.9,15.2,16.15,2.93.79,5.96.75,9.01.49,4.09-.35,7.65-1.67,10.61-4.59.92-.91,1.63-2.04,2.83-2.69.55-.3.71-.96.71-1.58,0-.36-.02-.71.18-1.04,1.63-2.72,2.04-5.78,2.2-8.84.31-5.74-.14-11.39-2.45-16.78-1.91-4.45-4.48-8.36-8.52-11.13-6.8-4.67-14.37-5.11-22.15-3.63-6.93,1.32-12.33,5.34-16.73,10.66-3.35,4.05-5.29,8.88-6.75,13.9-1.15,3.95-1.82,8-2.12,12.09-.1,1.34-.86,1.08-1.61,1.08-25.79,0-51.59,0-77.38,0-5.04,0-10.08-.02-15.12,0-.86,0-1.19-.25-1.22-1.15-.06-1.46-.25-2.93-.46-4.38-.92-6.54-2.76-12.78-6.21-18.45-3.69-6.08-8.9-10.36-15.57-12.82C111.81.14,106.99,0,102.08.46c-3.46.32-6.61,1.49-9.58,3.14-5.23,2.92-8.38,7.6-10.4,13.1-1.91,5.21-2.46,10.57-1.99,16.11.28,3.36.96,6.52,2.55,9.49,2.29,4.27,5.73,7.11,10.43,8.33,3.11.81,6.27.86,9.48.54,7.15-.71,12.4-4.27,15.94-10.4,2.21-3.83,2.9-8.06,2.72-12.45-.01-.32-.01-.64,0-.96,0-.27.04-.54.06-.81,1.88,4.93,2.81,9.95,2.6,15.2-.15,3.68-.58,7.32-1.35,10.88-1.53,7.14-3.58,14.16-6.36,20.93-1.63,3.98-3.33,7.93-5.01,11.89-2.2,5.17-4.39,10.33-6.62,15.48-2.21,5.12-4.5,10.2-6.67,15.33-2.99,7.08-6.18,14.07-9.49,21-2.23,4.67-4.66,9.24-7.03,13.84-1.5,2.9-3.05,5.77-4.58,8.66-2.76,5.21-5.39,10.48-7.91,15.81-.44.93-.75,1.95-1.6,2.66.18-2.44.95-4.74,1.58-7.04.67-2.45,1.71-4.79,2.75-7.11.48-1.09.57-2.19-.4-3.08-.93-.86-1.99-.59-3.01-.15-.69.3-1.27.84-2.07.87-.06-.08-.12-.17-.18-.25.36-.84.72-1.67,1.1-2.5.97-2.18,2.08-4.3,2.9-6.54,1.74-4.78,3.58-9.51,6.3-13.84.8-1.28,1.61-2.56,2.36-3.86.51-.88.64-1.82-.04-2.69-.66-.85-1.56-.87-2.5-.65-2.74.65-5.23,1.85-7.67,3.23-1.11.63-2.1,1.44-3.3,1.97,1.34-2.14,2.51-4.33,3.77-6.47,1.6-2.71,3.01-5.52,4.34-8.36,1.38-2.94,2.64-5.95,3.88-8.96,1.5-3.63,2.8-7.34,4.48-10.9,1.2-2.56,2.5-5.05,3.9-7.49.98-1.73,2.08-3.39,3.05-5.12.63-1.13.37-2.3-.47-2.93-.83-.62-2.08-.55-2.98.24-1.2,1.05-2.34,2.17-3.55,3.2-1.42,1.2-2.66,2.58-4.01,3.86-1.44,1.36-2.9,2.68-4.31,4.06-1.95,1.92-3.92,3.81-5.78,5.83-2.26,2.44-4.24,5.09-6.04,7.84-1.66,2.55-3.11,5.26-4.28,8.1-1.13,2.75-2.22,5.51-2.86,8.42-.31,1.43-.65,2.85-.97,4.27-.27-.32-.37-.62-.44-.93-.8-3.74-1.92-7.4-3.02-11.06-.36-1.21-1.37-2.11-2.35-2.08-1.22.04-1.79.8-2.14,1.91-.39,1.26-.67,2.53-.98,3.81-1.15,4.88-2.34,9.76-3.62,14.6-1.35,5.12-2.07,10.31-2.05,15.6,0,1.12,0,2.23,0,3.35-.7-.92-1.48-1.71-2.14-2.6-.7-.95-1.61-1.49-2.8-1.07-1.12.39-1.35,1.33-1.35,2.42.03,5.96,0,11.92.06,17.88.06,7.49.64,14.9,3.5,21.94.11.27.29.58.04,1.07-1.14-1.02-2.27-2-3.36-3.01-.93-.86-2.22-1.07-3.18-.45-.96.61-1.29,1.71-.9,2.96.19.6.44,1.2.55,1.82.54,3.18,1.6,6.23,2.32,9.38.86,3.76,1.95,7.47,2.92,11.21,1.02,3.94,2.5,7.7,4.27,11.36,1.01,2.09,2.31,4.01,3.49,6.03-.45.16-.69-.09-.93-.28-1.12-.88-2.46-1.31-3.73-1.87-1.64-.71-3.19.28-3.19,2.01,0,.7.22,1.4.63,2.02,1.07,1.63,1.82,3.44,2.76,5.15,1.97,3.57,3.67,7.29,5.64,10.86,1.95,3.55,3.84,7.14,6.21,10.44,1.44,2,2.88,3.97,4.53,5.82,1.55,1.74,3.3,3.29,4.84,5.08-1.7-.48-3.42-.75-5.13-1.09-1.12-.22-2.09-.18-2.74.86-.58.92-.31,2.05.54,3.07,1.24,1.5,2.71,2.82,3.7,4.52.77,1.33,2.14,2.25,2.63,3.79.14.43.62.64,1.06.7.6.09.96.44,1.37.84,1.67,1.65,3.25,3.38,4.83,5.11,4.14,4.54,8.47,8.9,13.47,12.51,1.47,1.07,2.97,2.1,4.56,3.02,1.63.96,3.4,1.67,5.14,2.86-2.17,0-4.13-.01-6.09,0-1.54.01-2.4.56-2.71,1.67-.32,1.16.17,2.11,1.45,2.95,4.93,3.21,9.99,6.21,14.97,9.35,1.14.72,2.4,1.3,3.68,2.35-2.59-.09-4.86.31-7.15.54-2.8.29-5.56,1.06-8.36,1.34-3.4.34-6.65,1.28-9.97,1.94-1.94.38-3.82,1.05-5.75,1.44-3.51.7-6.93,1.71-10.33,2.76-3.06.94-6.06,2.1-9.09,3.16-3.97,1.38-7.78,3.05-11.27,5.41-2.4,1.63-4.5,3.62-6.05,6.05-2.14,3.35-2.38,7.25-2.4,11.06,0,1.88.02,3.8.13,5.7.06.98-.27,1.62-1.36,1.92-1.71.48-3.36,1.16-5.04,1.76-2.88,1.03-5.66,2.31-8.42,3.66-3.47,1.7-6.95,3.34-9.51,6.35-.66.78-1.52,1.34-2.12,2.21-1.61,2.34-2.23,5-2.31,7.73-.07,2.41-.24,4.83.15,7.25.23,1.39-.09,2.87,0,4.29.07,1.11-.68,2.06-.43,3.17.67,3.04-.29,6.09-.03,9.13,0,.07-.14.16-.21.23Z" class="cls-3"/><path d="M403.42,425.73c-134.1,0-268.2,0-402.3.02-.9,0-1.18-.2-1.1-1.1.09-1.07.02-2.16.02-3.24.32.91.45,1.85.49,2.81,0,.18-.1.42.18.5.24.07.39-.13.48-.28,1.07-1.81,2.93-2.8,4.53-3.94,1.8-1.28,3.97-2.06,6.04-2.92,3.1-1.29,6.23-2.51,9.44-3.54,3.37-1.08,6.74-2.07,10.22-2.73,3.03-.57,6.03-1.29,9.09-1.61,2.38-.25,4.67-1.14,7.13-.8.68.09,1.35.17,2.09.1,2.58-.26,5.21-.21,7.8-.2,1.99,0,4.03.26,6.03.3,3.62.06,7.28-.02,10.84-.91,2.01-.5,3.81-1.45,4.98-3.18.92-1.35,1.24-2.98,1.29-4.63.1-3.05-.59-6.05-.69-9.08-.06-1.95-.25-3.89-.35-5.84-.11-2.15-.27-4.29-.4-6.44-.03-.55-.02-1.15.68-1.29,2.52-.5,5.03-1.05,7.57-1.43,3.03-.45,6.07-.77,9.13-1.02,4.17-.34,8.33-.75,12.51-.89,1.11-.04,2.28,0,3.35-.11,2.38-.27,4.77-.23,7.14-.34,5.05-.25,10.12-.22,15.18-.29,1.12-.02,2.22.13,3.37.03,3.8-.33,7.62.34,11.43-.04.2-.02.4-.02.6,0,2.5.43,5.02,0,7.52.19,1.09.09,2.24-.3,3.3-.13.83.13,1.65.16,2.47.16,2.34.02,4.66-.3,7.02-.13.96.07,1.99.12,2.99.06,1.1-.07,2.21-.04,3.31-.09.9-.04,1.79.03,2.69.07.86.04,1.75-.23,2.59-.09,1.46.24,2.93.13,4.39.17,1.58.04,3.16-.14,4.73-.14,1.98,0,3.97.16,5.95.15,1.7,0,3.4-.18,5.11-.21,1.96-.04,3.93-.02,5.89,0,8.62.06,17.24-.13,25.86.21,3.65.15,7.3-.02,10.96.04,2.89.04,5.78-.11,8.67-.04,7.14.18,14.29-.19,21.43.25,2.39.15,4.79.05,7.18.17,5.49.27,11,.3,16.48.79,1.84.17,3.69.27,5.53.46,3.4.35,6.78.74,10.16,1.19,3.33.45,6.61,1.1,9.91,1.71.73.13,1.14.73,1.03,1.17-.3,1.15-.07,2.29-.18,3.43-.33,3.55-.63,7.1-.95,10.64-.11,1.22-.13,2.45-.34,3.65-.27,1.56-.45,3.15-.34,4.7.25,3.73,3.03,6.68,6.8,7.36,2.56.46,5.14.82,7.75.73,2.14-.07,4.28-.25,6.42-.22,2.9.05,5.79-.09,8.7.11,1.29.09,2.7.14,4.05.09,1.59-.06,3.31.28,4.96.5,1.55.2,3.09.46,4.63.7,2,.31,3.97.81,5.95,1.17,5.44.98,10.64,2.76,15.8,4.64,1.96.71,3.9,1.49,5.78,2.38,3.33,1.58,6.94,2.8,9.01,6.22Z" class="cls-3"/><path d="M403.42,425.73c-2.07-3.43-5.68-4.64-9.01-6.22-1.88-.9-3.82-1.67-5.78-2.38-5.17-1.88-10.36-3.65-15.8-4.64-1.99-.36-3.95-.86-5.95-1.17-1.54-.24-3.09-.49-4.63-.7-1.65-.22-3.37-.56-4.96-.5-1.35.05-2.76,0-4.05-.09-2.91-.2-5.8-.07-8.7-.11-2.14-.03-4.28.14-6.42.22-2.61.09-5.19-.27-7.75-.73-3.77-.68-6.56-3.63-6.8-7.36-.1-1.55.08-3.14.34-4.7.21-1.2.23-2.43.34-3.65.31-3.55.62-7.1.95-10.64.11-1.14-.12-2.28.18-3.43.12-.44-.3-1.04-1.03-1.17-3.3-.61-6.58-1.26-9.91-1.71-3.38-.46-6.77-.85-10.16-1.19-1.84-.19-3.69-.29-5.53-.46-5.48-.49-10.99-.52-16.48-.79-2.39-.12-4.79-.02-7.18-.17-7.14-.44-14.29-.06-21.43-.25-2.89-.07-5.78.08-8.67.04-3.65-.06-7.31.11-10.96-.04-8.62-.34-17.24-.15-25.86-.21-1.96-.01-3.93-.03-5.89,0-1.7.03-3.4.21-5.11.21-1.98,0-3.97-.14-5.95-.15-1.58,0-3.16.18-4.73.14-1.46-.04-2.92.07-4.39-.17-.84-.14-1.73.13-2.59.09-.9-.04-1.79-.11-2.69-.07-1.1.05-2.21.03-3.31.09-1,.06-2.02,0-2.99-.06-2.36-.16-4.68.16-7.02.13-.82,0-1.64-.04-2.47-.16-1.07-.16-2.21.22-3.3.13-2.51-.2-5.03.24-7.52-.19-.19-.03-.4-.03-.6,0-3.81.38-7.63-.29-11.43.04-1.14.1-2.25-.05-3.37-.03-5.06.07-10.13.04-15.18.29-2.37.12-4.76.07-7.14.34-1.07.12-2.24.08-3.35.11-4.18.14-8.34.55-12.51.89-3.06.25-6.1.57-9.13,1.02-2.54.38-5.05.93-7.57,1.43-.7.14-.71.74-.68,1.29.13,2.15.29,4.29.4,6.44.1,1.95.29,3.89.35,5.84.09,3.03.79,6.02.69,9.08-.05,1.65-.37,3.28-1.29,4.63-1.17,1.73-2.97,2.68-4.98,3.18-3.56.88-7.21.97-10.84.91-2-.03-4.04-.29-6.03-.3-2.6-.01-5.22-.06-7.8.2-.74.07-1.42,0-2.09-.1-2.45-.34-4.75.55-7.13.8-3.06.32-6.07,1.04-9.09,1.61-3.48.66-6.86,1.65-10.22,2.73-3.21,1.03-6.34,2.25-9.44,3.54-2.07.86-4.24,1.64-6.04,2.92-1.6,1.14-3.46,2.13-4.53,3.94-.09.15-.23.35-.48.28-.27-.08-.17-.32-.18-.5-.04-.96-.17-1.9-.49-2.81,0-2.08,0-4.16,0-6.24.07-.08.22-.16.21-.23-.26-3.05.7-6.09.03-9.13-.24-1.1.5-2.06.43-3.17-.09-1.43.22-2.9,0-4.29-.39-2.43-.22-4.85-.15-7.25.08-2.74.7-5.39,2.31-7.73.59-.86,1.45-1.42,2.12-2.21,2.56-3.02,6.04-4.65,9.51-6.35,2.76-1.35,5.54-2.63,8.42-3.66,1.67-.6,3.33-1.29,5.04-1.76,1.09-.3,1.42-.94,1.36-1.92-.11-1.9-.14-3.82-.13-5.7.01-3.81.26-7.71,2.4-11.06,1.55-2.43,3.65-4.42,6.05-6.05,3.48-2.36,7.29-4.02,11.27-5.41,3.03-1.05,6.03-2.22,9.09-3.16,3.4-1.05,6.83-2.06,10.33-2.76,1.94-.39,3.81-1.06,5.75-1.44,3.32-.65,6.58-1.6,9.97-1.94,2.8-.28,5.56-1.05,8.36-1.34,2.28-.23,4.56-.63,7.15-.54-1.28-1.04-2.54-1.63-3.68-2.35-4.98-3.13-10.04-6.13-14.97-9.35-1.28-.84-1.77-1.78-1.45-2.95.31-1.11,1.17-1.66,2.71-1.67,1.96-.02,3.92,0,6.09,0-1.74-1.18-3.51-1.9-5.14-2.86-1.58-.93-3.08-1.95-4.56-3.02-5-3.62-9.33-7.97-13.47-12.51-1.58-1.73-3.16-3.46-4.83-5.11-.41-.4-.78-.75-1.37-.84-.44-.07-.92-.27-1.06-.7-.49-1.54-1.86-2.46-2.63-3.79-.99-1.7-2.46-3.02-3.7-4.52-.84-1.02-1.12-2.15-.54-3.07.65-1.04,1.62-1.08,2.74-.86,1.71.34,3.43.61,5.13,1.09-1.54-1.79-3.29-3.34-4.84-5.08-1.64-1.84-3.09-3.82-4.53-5.82-2.37-3.3-4.26-6.89-6.21-10.44-1.97-3.57-3.67-7.29-5.64-10.86-.94-1.71-1.69-3.52-2.76-5.15-.41-.63-.63-1.32-.63-2.02,0-1.73,1.55-2.72,3.19-2.01,1.27.55,2.62.98,3.73,1.87.24.19.48.44.93.28-1.18-2.01-2.48-3.94-3.49-6.03-1.76-3.66-3.25-7.42-4.27-11.36-.96-3.74-2.06-7.45-2.92-11.21-.72-3.14-1.78-6.19-2.32-9.38-.11-.62-.36-1.21-.55-1.82-.39-1.25-.06-2.35.9-2.96.96-.61,2.26-.41,3.18.45,1.09,1.01,2.22,1.99,3.36,3.01.25-.49.07-.8-.04-1.07-2.86-7.05-3.43-14.46-3.5-21.94-.05-5.96-.02-11.92-.06-17.88,0-1.09.23-2.03,1.35-2.42,1.19-.41,2.1.12,2.8,1.07.65.89,1.43,1.68,2.14,2.6,0-1.12,0-2.23,0-3.35-.02-5.29.7-10.48,2.05-15.6,1.28-4.85,2.46-9.72,3.62-14.6.3-1.28.58-2.56.98-3.81.34-1.1.91-1.87,2.14-1.91.98-.03,1.99.87,2.35,2.08,1.1,3.66,2.22,7.32,3.02,11.06.07.31.17.6.44.93.32-1.42.66-2.85.97-4.27.64-2.91,1.72-5.67,2.86-8.42,1.17-2.84,2.62-5.55,4.28-8.1,1.8-2.75,3.78-5.4,6.04-7.84,1.86-2.01,3.83-3.91,5.78-5.83,1.41-1.39,2.87-2.71,4.31-4.06,1.35-1.27,2.59-2.66,4.01-3.86,1.22-1.03,2.35-2.15,3.55-3.2.91-.79,2.16-.87,2.98-.24.84.63,1.1,1.8.47,2.93-.96,1.74-2.06,3.4-3.05,5.12-1.39,2.45-2.69,4.94-3.9,7.49-1.68,3.56-2.97,7.27-4.48,10.9-1.25,3.01-2.5,6.02-3.88,8.96-1.33,2.84-2.74,5.65-4.34,8.36-1.26,2.14-2.43,4.33-3.77,6.47,1.2-.53,2.19-1.35,3.3-1.97,2.44-1.38,4.93-2.58,7.67-3.23.95-.22,1.85-.2,2.5.65.68.88.55,1.81.04,2.69-.75,1.31-1.56,2.58-2.36,3.86-2.72,4.33-4.56,9.06-6.3,13.84-.81,2.23-1.92,4.36-2.9,6.54-.37.83-.73,1.67-1.1,2.5-.06.08-.18.18-.16.23.08.21.22.06.34.02.8-.04,1.38-.57,2.07-.87,1.02-.44,2.07-.71,3.01.15.96.89.88,2,.4,3.08-1.04,2.33-2.07,4.67-2.75,7.11-.64,2.31-1.41,4.61-1.58,7.04.85-.71,1.16-1.73,1.6-2.66,2.52-5.33,5.15-10.6,7.91-15.81,1.53-2.88,3.08-5.76,4.58-8.66,2.37-4.6,4.8-9.17,7.03-13.84,3.31-6.93,6.49-13.92,9.49-21,2.17-5.13,4.46-10.21,6.67-15.33,2.22-5.15,4.42-10.32,6.62-15.48,1.68-3.96,3.37-7.91,5.01-11.89,2.78-6.77,4.83-13.78,6.36-20.93.76-3.56,1.2-7.2,1.35-10.88.21-5.25-.72-10.27-2.6-15.2-.02.27-.05.54-.06.81-.01.32-.01.64,0,.96.19,4.39-.5,8.62-2.72,12.45-3.54,6.13-8.79,9.69-15.94,10.4-3.21.32-6.37.27-9.48-.54-4.69-1.22-8.13-4.06-10.43-8.33-1.59-2.97-2.27-6.12-2.55-9.49-.46-5.54.09-10.9,1.99-16.11,2.02-5.5,5.16-10.18,10.4-13.1,2.96-1.66,6.11-2.83,9.58-3.14,4.9-.45,9.73-.32,14.39,1.4,6.67,2.45,11.88,6.74,15.57,12.82,3.45,5.68,5.29,11.92,6.21,18.45.21,1.45.4,2.92.46,4.38.04.91.37,1.16,1.22,1.15,5.04-.03,10.08,0,15.12,0,25.79,0,51.59,0,77.38,0,.75,0,1.51.26,1.61-1.08.3-4.09.97-8.14,2.12-12.09,1.46-5.02,3.4-9.85,6.75-13.9,4.4-5.32,9.8-9.34,16.73-10.66,7.78-1.48,15.34-1.04,22.15,3.63,4.05,2.78,6.62,6.69,8.52,11.13,2.31,5.39,2.76,11.04,2.45,16.78-.16,3.06-.57,6.12-2.2,8.84-.2.33-.18.67-.18,1.04,0,.62-.16,1.28-.71,1.58-1.2.65-1.91,1.78-2.83,2.69-2.96,2.92-6.52,4.24-10.61,4.59-3.05.26-6.08.3-9.01-.49-8.34-2.25-13.28-7.83-15.2-16.15-.64-2.78-.14-5.64-.33-8.66-1.15,2.35-1.57,4.73-2.09,7.07-.72,3.26-.93,6.57-.68,9.87.34,4.52,1.1,8.99,2.16,13.41,1.06,4.43,2.4,8.77,3.91,13.06,1.15,3.27,2.43,6.5,3.78,9.69,2.29,5.39,4.7,10.72,7.02,16.09,2.29,5.3,4.53,10.62,6.83,15.91,2.63,6.06,5.3,12.11,7.98,18.15.97,2.18,2.02,4.33,3.01,6.5,4.15,9.06,9.09,17.7,13.67,26.54,2.79,5.38,5.36,10.85,7.99,16.3.17.35.36.69.64,1,.01-1.75-.62-3.37-.94-5.04-.45-2.36-1.37-4.56-2.11-6.83-.48-1.47-1.42-2.76-1.71-4.32-.37-1.97,1.03-3.29,2.94-2.7.95.3,1.74.98,2.75,1.13.1.03.24.1.28.07.14-.12.04-.25-.06-.35-1.5-3.28-3-6.55-4.31-9.92-1.33-3.43-2.63-6.88-4.41-10.14-1.2-2.21-2.67-4.23-3.87-6.43-.53-.97-.8-1.95-.05-2.91.73-.94,1.73-.87,2.74-.6,2.67.7,5.14,1.84,7.52,3.25.9.54,1.8,1.09,2.79,1.6-.15-1.15-.92-1.99-1.44-2.88-1.73-2.94-3.34-5.95-4.9-8.99-1.62-3.15-3.01-6.4-4.45-9.63-.69-1.55-1.33-3.14-1.92-4.74-1.2-3.24-2.48-6.44-3.93-9.56-1.17-2.51-2.53-4.95-4.02-7.3-.81-1.27-1.59-2.56-2.31-3.88-.62-1.14-.42-2.27.4-2.94.84-.68,2.11-.63,3.06.26,2.37,2.22,4.79,4.39,7.15,6.63,2.55,2.42,5.06,4.89,7.65,7.26,2.04,1.86,3.73,4.11,5.54,6.21.36.42.64.89,1.21,1.08.34.11.65.39.76.73.88,2.96,3.02,5.24,4.3,7.98,2.16,4.62,3.97,9.34,4.88,14.38.08.43.19.85.48,1.31.48-1.98,1.02-3.95,1.42-5.95.46-2.24,1.5-4.28,2.06-6.48.25-.96,1.21-1.5,2.28-1.42,1.06.08,1.79.65,2.05,1.72.85,3.48,1.64,6.98,2.56,10.44.95,3.58,1.8,7.18,2.64,10.79,1.23,5.28,1.54,10.64,1.32,16.29.77-.99,1.46-1.8,2.07-2.67.77-1.11,1.72-1.57,2.82-1.21,1.21.39,1.46,1.36,1.44,2.47-.12,7.32.05,14.63-.17,21.95-.13,4.13-.75,8.16-1.59,12.19-.35,1.69-.91,3.29-1.54,4.88-.2.51-.33,1.04-.27,1.75,1.02-.88,2.08-1.72,3.06-2.65,1.2-1.14,2.45-1.43,3.53-.71,1.02.69,1.15,1.8.72,3.33-.84,2.98-1.66,5.97-2.28,9-.41,1.99-1.08,3.91-1.53,5.89-1.25,5.47-2.73,10.86-5.01,16.03-1.3,2.96-2.94,5.69-4.61,8.46.61.22.94-.24,1.29-.49,1.09-.78,2.35-1.17,3.55-1.7.88-.39,1.82-.26,2.49.57.82,1.01.62,2.15.11,3.16-1.44,2.83-3,5.6-4.49,8.4-1.87,3.54-3.67,7.12-5.58,10.63-1.77,3.24-3.71,6.38-5.88,9.38-2.43,3.36-5.25,6.34-8.24,9.26,1.69-.43,3.37-.75,5.06-1.06,1.35-.24,2.39.12,2.86,1.12.45.95.12,2.66-.72,3.3-1.72,1.32-2.98,3.09-4.44,4.65-1.41,1.51-2.78,3.04-4.19,4.55-.39.42-.75.78-.85,1.37-.09.54-.42,1.02-.94,1.16-.93.24-1.48.95-2.04,1.59-2.93,3.33-5.97,6.55-9.3,9.49-2.2,1.94-4.52,3.74-6.93,5.44-2.51,1.76-5.26,3.04-8.11,4.63,2.22,0,4.22,0,6.22,0,1.2,0,2.24.31,2.71,1.54.43,1.12,0,2.17-1.33,3-2.19,1.37-4.31,2.85-6.54,4.16-3.14,1.84-6.19,3.83-9.48,5.89,1.98.11,3.7.3,5.42.27,2.64-.04,5.26.25,7.89.32,3.93.1,7.86.52,11.78.92,3.26.33,6.53.53,9.76.99,3.2.45,6.4.92,9.59,1.52,2.6.49,5.21.95,7.79,1.54,2.54.58,5.07,1.15,7.6,1.79,3.91.98,7.76,2.13,11.6,3.38,5.72,1.86,11.47,3.68,16.74,6.62,4.8,2.67,8.74,6.23,10.44,11.71.4,1.28.62,2.59.62,3.94,0,3.12.02,6.25-.01,9.37,0,.76.13,1.14.98,1.4,5.47,1.64,10.71,3.87,15.83,6.42,3.52,1.75,6.67,4.01,9.25,6.91,1.37,1.55,2.18,3.61,2.53,5.77.26,1.58.18,3.16.23,4.75,0,.28-.19.65.23.83v.48c-.54,1.63-.13,3.3-.22,4.95-.02.42-.26.93.22,1.29v3.6c-.49.31-.23.8-.23,1.19-.02,5.37,0,10.74-.03,16.11,0,1.12-.11,2.25-.46,3.34h-.24ZM48.26,177.13s-.09-.1-.14-.15c0,.04-.03.08-.01.11.05.1.11.1.17,0,.07,1.56.62,2.97,1.26,4.43.76-1.36,1.45-2.66,1.84-4.26-1.1.35-2.14.42-3.13-.14ZM324.65,177.01c-1,.96-2.13.44-3.23.19.59,1.52,1.18,2.94,2.05,4.4.47-1.58,1.32-2.95,1.17-4.6.05.07.07.23.19.06-.06-.02-.12-.04-.19-.06ZM49.01,212.61c-.04-.11-.11-.2-.23-.13-.03.02.03.18.04.27,1.21,1.97,2.42,3.94,3.78,6.14.21-3.01,1.06-5.63,1.79-8.48-.81.5-1.05,1.07-1.29,1.67-.41,1.05-1.26,1.4-2.31,1.17-.61-.14-1.19-.43-1.79-.65ZM296.69,133.63c-.08-.18-.27-.23-.38-.13-.19.17.09.22.14.33,1.19,2.26,2.72,4.31,3.91,6.57.99,1.88,1.94,3.81,2.67,5.78.73,1.98,1.52,3.96,2.29,5.93,1.27,3.27,2.64,6.51,4.44,9.56.54.92,1.16,1.79,1.66,2.72,1.12,2.07,2.63,3.86,4.18,5.56,1.83,2.01,4.1,3.57,6.4,5.03.54.34,1.14.65,1.73.11,2.71-2.5,4.93-5.32,6.29-8.81,1.13-2.92,1.66-5.91,1.96-9,.5-5.17-.04-10.26-1.11-15.3-.77-3.63-1.75-7.21-2.63-10.82-.87-3.54-1.74-7.07-2.66-10.83-2.15,5.94-3.5,11.79-4.28,17.81-.78,6.01-1.03,12.03-1.07,18.09-1.68-3.01-3.11-6.08-5.07-8.87-1.74-2.47-3.69-4.74-5.94-6.71-1.74-1.53-3.61-2.92-5.68-4.06-2.2-1.21-4.37-2.42-6.84-2.96ZM53.19,276.57c-.09-.01-.25-.06-.27-.03-.08.12.04.16.13.18,1.48,1.8,3.08,3.5,4.67,5.2,1.38,1.48,2.68,3.08,4.04,4.59,1.57,1.75,3.18,3.47,4.78,5.19,4.03,4.33,8.16,8.55,12.96,12.08,2.97,2.18,6.07,4.13,9.39,5.68,2.71,1.27,5.55,2.21,8.53,2.7,4.57.76,9.02.46,13.34-1.29.35-.14.6-.27.63-.74.14-2.6.32-5.23-.09-7.78-.85-5.3-2.79-10.28-5.29-15.01-1.77-3.34-3.73-6.57-5.8-9.74-2.09-3.21-4.25-6.38-6.09-9.76-1.07-1.97-2.04-3.98-2.94-6.04-.94-2.16-1.6-4.42-2.49-6.71-.64.75-.56,1.6-.9,2.31-1.54,3.17-1.88,6.61-2.07,10.06-.13,2.43.14,4.84.41,7.26.55,4.98,2.13,9.63,4.15,14.16,1.04,2.34,2.3,4.58,3.69,6.78-2.48-1.33-4.78-2.91-7.15-4.37-4.17-2.56-8.47-4.9-12.83-7.1-3.02-1.52-6.13-2.87-9.29-4.13-3.76-1.51-7.54-2.77-11.52-3.5ZM139.4,308.2c.07.04.15.07.22.11-.02-.09-.05-.17-.07-.26-.22-1.45-.19-2.96-.76-4.33-.63-1.52-.61-2.45.3-3.09,1.01-.7,2.99-.56,3.8.31,2.62,2.83,5.87,4.83,9,6.99.56.38,1.15.46,1.81.46,21.83-.01,43.67-.01,65.5,0,.76,0,1.43-.15,2.04-.55,3.12-2.05,6.13-4.26,8.9-6.77.85-.77,1.74-1.14,2.83-.61.99.48,1.42,1.61,1.21,2.88-.27,1.57-.5,3.14-.75,4.71-.02.08-.05.17-.07.25l.23-.09c3.68-3.88,7.68-7.42,11.6-11.05,1.88-1.74,3.87-3.37,5.67-5.21.4-.41.51-.73.36-1.25-.39-1.34-.77-2.69-1.12-4.05-.39-1.55-.2-1.84,1.39-2,.94-.09,1.37-.49,1.33-1.44-.03-.88,0-1.76.02-2.64.02-2.01.33-2.25,2.29-1.72,3.97,1.07,8,1.5,12.11,1.33,1-.04,1.72-.34,2.09-1.22.44-1.04,1.22-1.85,1.8-2.8,2.49-4.06,5.26-7.95,7.3-12.27.69-1.46,1.48-2.87,1.66-4.63-.69.5-1.16,1.21-1.75,1.79-3.82,3.7-8.25,6.43-13.32,8.08-4.61,1.5-9.31,1.91-14.09.98-.37-.07-.92-.08-.98-.54-.06-.52.52-.52.86-.66,4.95-2.02,7.44-5.94,7.79-11.04.7-10.17-8.18-15.37-15.79-12.63-1.63.59-2.92,1.63-4.08,2.87-.94,1-2.16.96-3.24.66-1.01-.28-.38-1.38-.54-2.11-.06-.27-.01-.56-.01-.84,0-27.31,0-54.63,0-81.94,0-11.44,0-22.88,0-34.31,0-25.92,0-51.83,0-77.75,0-.4,0-.8,0-1.2,0-.37.18-.6.56-.66.42-.07.72.11.81.52.11.51.19,1.02.24,1.54.66,7.23,2.14,14.3,4.03,21.31,1.65,6.11,3.96,12,5.9,18.01,5.81,18.06,12.24,35.88,19.86,53.26,6.9,15.75,13.95,31.43,19.74,47.64,3.87,10.84,6.74,21.77,5.25,33.44-1.17,9.15-1.62,18.45-6.26,26.79-.16.29-.32.53.15.75,1.08.5,1.42,1.54,1.77,2.58.37,1.11.8,2.2,1.2,3.3.98-4.3,2.22-8.44,3.49-12.57,1.16-3.76,2.41-7.49,3.27-11.34.72-3.2,1.08-6.44,1.2-9.71.04-1.09.44-1.97,1.49-2.38.95-.37,1.81-.11,2.5.64.43.47.84.96,1.23,1.46.54.71,1.05,1.44,1.57,2.16-.2-3.8.03-7.51.15-11.21.08-2.43.34-4.84.48-7.26.28-4.8-.39-9.54-1.13-14.27-.2-1.3.17-2.39,1.04-2.83,1.03-.52,2.12-.22,3.13.75.84.8,1.75,1.53,2.71,2.35.07-.58-.18-.92-.33-1.27-4.84-11.51-10.17-22.79-16.09-33.78-6.63-12.29-12.84-24.78-18.39-37.6-4.88-11.27-9.7-22.56-14.59-33.81-3.46-7.96-6.95-15.9-9.44-24.24-2.53-8.47-4.29-17.06-3.98-25.97.22-6.29,1.58-12.27,4.71-17.8,1.95-3.43,4.75-5.89,8.32-7.49.39-.18.93-.61,1.27-.03.28.48-.25.79-.54,1.08-1.52,1.5-2.79,3.19-3.78,5.08-5.1,9.75-2.05,21.68,6.96,27.11,9.23,5.56,24.15,3.49,26.65-12.27.99-6.27-.07-12.27-2.69-18.01-3.96-8.66-12.43-13.85-21.92-13.17-10.28.74-17.95,5.86-23.03,14.74-3.82,6.68-5.39,14.07-6.03,21.68-.15,1.78-.26,1.87-2.01,1.91-.2,0-.4,0-.6,0-31.59,0-63.19,0-94.78,0-2.4,0-2.46-.08-2.65-2.44-.51-6.31-1.84-12.43-4.47-18.2-4.61-10.14-12.32-16.44-23.5-17.56-8.79-.88-16.22,2.25-21.15,9.85-4.3,6.63-5.67,14.04-4.38,21.85.72,4.34,2.53,8.19,6.1,10.96,6.74,5.23,17.34,4.37,23.8-1.87,7.26-7.01,8.1-18.96,1.93-27.24-.74-1-1.6-1.89-2.48-2.77-.23-.23-.48-.5-.23-.83.2-.26.51-.17.78-.08.92.31,1.75.78,2.58,1.26,4.36,2.54,6.76,6.58,8.48,11.12,2.83,7.45,2.99,15.17,2.04,22.95-1.26,10.33-4.39,20.15-8.41,29.69-6.13,14.52-12.4,28.97-18.68,43.42-4.24,9.75-8.61,19.46-13.65,28.83-6.92,12.86-13.64,25.81-19.43,39.23-.48,1.12-.94,2.25-1.56,3.74,1.21-.85,2.34-.66,3.37-1.17,1.61-.81,3.08.26,3.07,2.08,0,.79-.14,1.59-.28,2.37-1.06,5.69-1.05,11.42-.63,17.17.29,3.98.66,7.97.25,11.97-.06.62-.2,1.29.13,2.01,1.02-1.28,1.71-2.65,2.83-3.7.71-.66,1.51-.92,2.42-.6.96.35,1.43,1.12,1.52,2.12.1,1.15.22,2.31.24,3.47.06,3.58,1.04,7.01,1.92,10.43,1.16,4.5,2.69,8.91,4.08,13.35.68,2.17.81,4.48,1.68,6.85.51-1.4.96-2.58,1.36-3.77.25-.72.41-1.51,1.12-1.91.79-.45.59-.89.22-1.53-.93-1.59-1.69-3.26-2.23-5.03-1.87-6.11-2.72-12.41-3.47-18.73-1.05-8.82-.88-17.56,1.8-26.13,4.56-14.6,10.05-28.85,16.39-42.76,7.17-15.73,13.76-31.69,19.59-47.96,2.88-8.02,5.37-16.17,8.21-24.19,2.88-8.12,5.41-16.32,7.04-24.78.7-3.65,1.22-7.33,1.54-11.04.07-.84.27-1.58,1.39-1.56,1.19.02,1.04.85,1.05,1.6.02,3,.04,6,.04,9,0,22.63-.02,45.27-.03,67.9,0,10.84,0,21.68,0,32.51,0,28.6,0,57.19,0,85.79,0,.48-.02.96-.06,1.44-.03.33-.15.7-.52.71-1.48.04-3.05.47-4.27-.88-.81-.89-1.75-1.63-2.82-2.21-5.18-2.79-14.05-.99-16.45,7.4-1.83,6.39,1.51,13.86,7.58,15.86.32.11.84.16.83.56,0,.53-.58.43-.93.51-2.16.46-4.35.63-6.56.51-8.43-.48-15.43-4.06-21.46-9.8-.34-.33-.6-.81-1.29-.93.38,1.22.8,2.27,1.32,3.3,1.64,3.27,3.47,6.42,5.47,9.49,1.32,2.02,2.75,3.98,3.87,6.13.49.94,1.16,1.47,2.35,1.46,2.16-.02,4.31-.02,6.47-.28,1.67-.2,3.31-.54,4.94-.94,1.92-.47,2.09-.33,2.1,1.6,0,.64-.02,1.28,0,1.92.06,1.81.15,1.91,1.94,2.18,1.23.18,1.51.63,1.07,1.82-.39,1.05-.79,2.1-1.26,3.11-.33.7-.16,1.25.33,1.72,1.76,1.71,3.45,3.49,5.33,5.06,1.71,1.42,3.27,3,4.97,4.43,2.72,2.29,5.11,4.94,7.68,7.39ZM372.66,360.14c.25-4.32-1.45-7.62-4.15-10.4-3.4-3.5-7.86-5.31-12.32-6.99-2.86-1.08-5.76-2.09-8.66-3.07-4.16-1.4-8.39-2.52-12.61-3.67-2.54-.69-5.11-1.3-7.68-1.87-2.17-.48-4.34-1-6.54-1.23-2.34-.25-4.6-.94-6.95-1.1-2.3-.16-4.57-.71-6.88-.86-1.97-.13-3.95-.18-5.89-.52-2.76-.48-5.55-.63-8.32-.86-2.84-.24-5.72-.24-8.57-.41-2.28-.14-4.57-.06-6.86-.29-3.27-.33-6.6-.04-9.9-.27-2.83-.19-5.68.08-8.51-.08-2.04-.12-4.07-.03-6.1-.11-1.49-.05-2.98.31-4.44.11-1.68-.23-3.35-.28-5.01-.15-3.04.22-6.06-.14-9.1-.03-1.88.07-3.8.01-5.68.08-2.3.08-4.6.03-6.9.12-2.36.09-4.72.02-7.08.02-2.36,0-4.73,0-7.09,0-5.72,0-11.44-.01-17.17.01-.68,0-1.34-.32-1.97-.22-2.86.47-5.74.22-8.58.11-4.48-.17-8.96-.04-13.44-.12-3.6-.07-7.21-.11-10.8.03-1.77.07-3.57.14-5.3.06-1.93-.09-3.88-.11-5.77,0-1.92.11-3.85.1-5.75.09-4.91-.02-9.8.31-14.7.29-1.04,0-2.08.08-3.12.1-3.63.07-7.25.37-10.87.63-1.63.11-3.28.13-4.89.31-2.22.24-4.45.43-6.67.67-1.87.21-3.75.36-5.62.58-2.08.25-4.13.64-6.2.91-1.77.23-3.53.51-5.29.84-1.95.37-3.88.82-5.82,1.24-2.96.65-5.97,1.15-8.86,2.03-4.63,1.41-9.31,2.66-13.86,4.33-4.3,1.58-8.65,2.99-12.6,5.38-2.91,1.75-5.31,3.96-6.97,6.95-.92,1.66-1.06,3.45-1.27,5.3-.36,3.13-.07,6.25-.31,9.38-.14,1.75.24,3.6.06,5.36-.27,2.55-.14,5.1-.36,7.64-.31,3.6-.36,7.23-.55,10.84-.05.89.04,1.36,1.12.86,2.34-1.08,4.67-2.16,6.93-3.4,1.8-.99,3.62-1.92,5.53-2.69,2.01-.8,4-1.66,6-2.48,2.4-.98,4.83-1.86,7.27-2.7,4.51-1.55,9.12-2.79,13.79-3.81,2.32-.5,4.59-1.16,6.94-1.53,2.31-.37,4.59-.91,6.9-1.28,1.76-.28,3.54-.62,5.31-.82,2.74-.32,5.49-.54,8.23-.81,3.85-.38,7.7-.71,11.56-.85,3.62-.13,7.25-.41,10.88-.33.86.02,1.75-.06,2.62-.11,4.81-.28,9.63.08,14.44-.29,1.81-.14,3.66.18,5.49.18,6.56.03,13.13.04,19.69,0,13.53-.06,27.06.16,40.59-.11,1.51-.03,3.04.22,4.53.08,2.72-.25,5.45-.26,8.16-.17,4.04.13,8.08.21,12.12.21,5.44,0,10.88-.06,16.32.03,2.54.04,5.11.14,7.63.09,3.17-.07,6.35-.03,9.52-.05,2.04-.01,4.1-.05,6.17.1,3.58.27,7.2-.02,10.79.19,2.53.15,5.06.1,7.59.28,3.6.27,7.22.25,10.83.54,2.24.19,4.5.25,6.73.51,3.66.42,7.31.9,10.96,1.36,3.5.44,6.93,1.18,10.38,1.81,2.97.54,5.89,1.39,8.84,2.08,4.04.94,8.03,2.08,11.94,3.47,4.46,1.58,8.91,3.18,13.21,5.18,1.83.85,3.72,1.58,5.5,2.53,2.27,1.2,4.45,2.56,6.79,3.62,1.21.54,1.33.44,1.36-.86.07-2.7-.4-5.38-.42-8.05-.04-3.76-.04-7.54-.22-11.28-.21-4.32.41-8.63-.11-12.65ZM136.28,246.35V68.82c-1.06,3.94-2.11,7.86-3.39,11.72-1.6,4.81-3.36,9.56-4.91,14.38-3.19,9.87-6.59,19.67-10.34,29.34-2.47,6.39-5,12.76-7.65,19.08-2.53,6.06-5.26,12.03-7.95,18.03-1.89,4.21-3.71,8.46-5.44,12.74-1.66,4.1-3.17,8.26-4.75,12.39-2.34,6.11-4.63,12.22-6.33,18.55-1.7,6.34-2.43,12.75-1.73,19.29.53,4.94,1.34,9.84,2.13,14.75,1.16,7.2,4.29,13.41,9.23,18.69,2.8,2.99,6.15,5.28,9.77,7.21,3.28,1.75,6.82,2.54,10.71,3.15-1.34-1.69-2.51-3.25-2.99-5.1-1.27-4.84-1.59-9.68.92-14.29.55-1.02.61-2.53,1.55-3.03,1.69-.9,2.63-2.7,5.05-2.94,2.55-.25,5.11-.58,7.69-.64,1.6-.04,3.04.47,4.49,1.07,1.57.64,2.59,1.92,3.93,3.14ZM257.17,268.11c2.79-.4,5.37-.8,7.77-1.79,6.04-2.5,11.19-6.22,15.15-11.5,2.9-3.87,5.06-8.08,6.1-12.85,1.15-5.29,2.06-10.61,2.54-16.01.36-3.99.77-7.95.28-11.99-.61-5.06-1.83-9.97-3.43-14.76-2.37-7.1-5.06-14.09-7.75-21.08-2.95-7.66-6.28-15.15-9.7-22.61-3.74-8.15-7.17-16.42-10.47-24.74-4.36-11.01-8.36-22.16-12.05-33.41-2.13-6.48-4.33-12.94-6.46-19.43-.61-1.84-1.09-3.72-1.64-5.58-.06,0-.13.01-.19.02v173.06c2.9-2.88,6.25-3.39,9.87-3.37,1.88,0,3.76.76,5.65.09.13-.05.34-.01.47.07,1.28.82,2.46,1.79,4.01,2.13.36.08.55.6.59.99.2,1.68,1.23,2.98,1.92,4.44.29.61.6,1.24.74,1.89,1.21,5.86.85,11.42-3.39,16.42ZM376.08,393.9c.06,1.29-.03,3.01-.47,4.71-.17.64-.43,1.11-1.02,1.49-2.41,1.55-5.11,1.09-7.64.86-3.76-.34-7.45-1.3-11.19-1.88-3.71-.58-7.41-1.32-11.16-1.59-3.07-.22-6.11-.74-9.24-.34-2.74.35-5.39.75-7.63,2.49-1.4,1.09-2.08,2.3-1.2,4.31.78,1.79,2.41,2.28,3.97,2.79,2.34.76,4.81.73,7.25.74,3.76.02,7.52.03,11.28,0,4.28-.04,8.54.23,12.8.68,4.25.45,8.44,1.11,12.6,2.02,5.41,1.18,10.69,2.86,15.85,4.91,3.44,1.36,6.79,2.9,10.05,4.64,1.45.77,1.63.65,1.63-1.03,0-5.6,0-11.2,0-16.8,0-3.45.09-6.89-.03-10.33-.08-2.4-.66-4.65-2.39-6.56-2.58-2.84-5.78-4.77-9.1-6.48-4.41-2.28-9.02-4.11-13.77-5.57-1.01-.31-1.34-.17-1.33.93.03,3.71.27,7.41.44,11.12.13,2.81.34,5.64.31,8.91ZM64.97,406.79c.87-.02,1.74-.23,2.59-.23,2.65-.01,5.2-.41,7.74-1.21,1.76-.56,3.65-3.39,2.47-5.37-1.07-1.8-2.86-2.58-4.64-3.21-1.32-.47-2.83-.5-4.26-.66-2.92-.33-5.79-.04-8.65.19-3.57.28-7.11,1.01-10.66,1.56-3.55.55-7.05,1.39-10.63,1.77-2.39.25-4.78.7-7.15.17-1.32-.3-2.82-.67-3.16-2.34-.2-.96-.22-1.96-.28-2.94-.29-4.88.44-9.73.51-14.6,0-.41.1-.91.11-1.31.06-2.01.5-4.02.23-6.03-.07-.49-.3-1.06-1.12-.68-.66.3-1.46.3-2.12.61-3.75,1.78-7.74,2.97-11.42,4.93-2.86,1.53-5.53,3.21-7.99,5.33-2.45,2.11-3.46,4.85-3.54,7.85-.11,4.22.06,8.45.01,12.66-.04,3.31-.27,6.64-.31,9.97,0,.39-.07.79-.08,1.18-.03,1.42-.12,2.84-.05,4.26.03.59.48.64,1.03.33,2.39-1.37,4.87-2.55,7.4-3.62,5.66-2.39,11.45-4.32,17.41-5.85,4.75-1.22,9.57-1.85,14.39-2.49,3.45-.46,6.97-.45,10.46-.52,3.91-.08,7.82-.09,11.72.26ZM320.11,276.59c-15.19,3.22-28.2,11.05-41.35,19.3.8-1.3,1.46-2.27,2.03-3.29,2.07-3.7,3.68-7.58,4.82-11.68,1.13-4.09,1.61-8.24,1.68-12.46.04-2.49-.37-4.94-.82-7.35-.38-2.04-1.35-3.97-2.13-6.18-.91,2.13-1.37,4.09-2.12,5.95-1.25,3.08-2.75,6.03-4.41,8.88-2.03,3.47-4.33,6.78-6.46,10.19-1.99,3.18-3.89,6.39-5.48,9.79-1.1,2.36-2.04,4.76-2.88,7.23-1.43,4.2-1.68,8.48-1.4,12.84.02.37-.12.8.42,1,.78.28,1.52.71,2.32.9,3.99.94,7.98,1.11,12.05.3,4.84-.96,9.2-3.06,13.34-5.57,2.07-1.26,4.05-2.73,5.93-4.33,2.58-2.19,5.14-4.39,7.44-6.87,1.97-2.12,3.92-4.27,5.86-6.43,1.29-1.45,2.71-2.83,4.05-4.25,1.37-1.45,2.75-2.92,4.03-4.45,1-1.19,2.06-2.34,3.09-3.51ZM298.49,225.21c-.17,4.51-.94,8.88-2.09,13.17-1.08,4-2.3,7.96-3.54,11.91-1.59,5.07-2.81,10.23-3.15,15.54-.33,5.1-.1,10.17,1.86,15.01.13.33.25.4.55.44,3.76.51,7.39-.16,10.85-1.51,2.63-1.03,5.05-2.51,7.35-4.22,2.93-2.18,5.49-4.71,7.84-7.43,2.39-2.76,4.45-5.82,6.27-9,1.57-2.74,3.03-5.54,4.55-8.32.81-1.49,1.71-2.94,2.41-4.47.75-1.65,1.69-3.19,2.49-4.8.87-1.75,1.79-3.47,2.68-5.2-.08-.07-.17-.14-.25-.21-12.91,6.42-22.98,16.31-32.64,27.09,4.16-13.64,3.77-26.42-5.18-37.99ZM69.16,262.99c-4.73-5.36-9.67-10.45-15.09-15.05-5.39-4.57-10.98-8.87-17.69-11.86.14.43.17.62.26.79,1.08,2.1,2.1,4.24,3.27,6.29,1.24,2.19,2.32,4.47,3.53,6.67,1.02,1.87,2.04,3.75,3.04,5.63,1.1,2.05,2.25,4.08,3.51,6.02,1.73,2.67,3.67,5.19,5.75,7.61,3.17,3.69,6.9,6.72,11.02,9.19,1.63.98,3.51,1.73,5.45,2.21,2.81.7,5.61,1.13,8.49.76.28-.04.61.11.7-.4.33-1.86,1.2-3.56,1.51-5.47.78-4.87.58-9.74-.19-14.52-1.06-6.55-3.2-12.86-5.22-19.17-1.08-3.36-1.79-6.8-2.33-10.27-.32-2.06-.41-4.15-.62-6.4-2.81,3.17-4.62,6.76-5.89,10.58-3.04,9.15-2.28,18.27.51,27.37ZM304.6,193.69c0,.32-.03.55,0,.77.52,3.33,1.04,6.68,1.13,10.05.06,2.27.05,4.54-.18,6.81-.29,2.86-.34,5.74-.43,8.62-.19,5.92.39,11.76,2.12,17.43.87,2.87,2.29,5.5,4.05,7.99.87,1.23,1.59.83,2.54.63,4.58-.95,8.34-3.3,11.58-6.64,2.8-2.89,4.96-6.18,6.82-9.72.94-1.79,1.78-3.63,2.49-5.5,1.2-3.17,2.12-6.44,2.95-9.73.98-3.9,1.8-7.85,2.93-11.71.7-2.41.95-4.92,1.99-7.59-5.5,4.39-9.83,9.36-13.75,14.72-3.9,5.34-7.13,11.1-10.28,16.91.22-13.09-3.36-24.49-13.96-33.06ZM54.39,226.72c-3.12-5.84-6.39-11.57-10.29-16.93-3.9-5.36-8.25-10.29-13.51-14.39.15.76.51,1.44.61,2.15.46,3.34,1.63,6.5,2.35,9.78.81,3.65,1.82,7.26,2.79,10.88,1.01,3.78,2.39,7.44,4.14,10.93,1.16,2.32,2.57,4.49,4.06,6.64,1.53,2.21,3.37,4.12,5.37,5.81,2.49,2.11,5.45,3.53,8.69,4.33,1.47.36,2.52.5,3.51-1.04,1.78-2.79,3.33-5.71,4.09-8.89.91-3.81,1.51-7.69,1.64-11.65.14-4.48-.15-8.95-.43-13.4-.25-3.84-.19-7.64.25-11.45.22-1.89.5-3.78.78-5.85-10.61,8.67-14.21,20.04-14.04,33.09ZM81.6,314.15c.21.16.41.33.63.47,3.03,1.86,6.02,3.78,9.05,5.62,3.78,2.29,7.49,4.69,11.29,6.95.61.37,1.19.45,1.8.37,3.82-.5,7.67-.66,11.51-.9,2.86-.17,5.74-.17,8.61-.28,2.34-.09,4.69-.04,7.03-.17,2.9-.16,5.81-.08,8.71-.05.69,0,1.28-.34,1.97-.24,1.65.25,3.31.22,4.96-.01.46-.07.56-.24.42-.6-.47-1.22-.86-2.47-1.45-3.63-1.65-3.2-3.61-6.19-5.9-8.99-2.51-3.07-5.23-5.91-8.12-8.59-2.26-2.09-4.61-4.09-6.9-6.15-1.51-1.36-3-2.78-4.44-4.23-2.15-2.16-4.06-4.49-5.95-6.86-1.07-1.33-1.81-2.91-3.15-4.21-.45,4.02-.39,7.87.18,11.71.26,1.76.86,3.44,1.36,5.13.96,3.27,2.47,6.3,4.25,9.21,1.11,1.81,2.36,3.5,3.68,5.17,1.35,1.72,2.89,3.22,4.38,4.79.9.94,2.06,1.64,2.91,2.97-15.39-4.75-30.73-8.23-46.82-7.49ZM261.28,282.66c-1.11.92-1.58,2.18-2.37,3.22-2.6,3.44-5.37,6.7-8.55,9.64-2.69,2.49-5.44,4.92-8.17,7.37-3.74,3.36-7.26,6.94-10.36,10.89-2.41,3.07-4.49,6.39-5.88,10.09-.78,2.07-.88,2.03,1.33,2.03,8.94,0,17.87,0,26.81,0,4.41,0,8.82-.05,13.22.24.94.06,1.88-.04,2.84.19.69.16,1.49.21,2.2-.25,2.76-1.75,5.53-3.47,8.31-5.19,2.41-1.49,4.86-2.92,7.26-4.42,1.18-.74,2.3-1.57,3.64-2.5-8.29-.45-16.19.45-24.03,1.87-7.73,1.39-15.34,3.31-22.91,5.65,5.56-4.94,10.24-10.51,13.35-17.25,3.16-6.85,4.35-14.03,3.29-21.59ZM303.4,162.63c-.17.62.09.96.25,1.3,1.16,2.42,2.07,4.94,2.81,7.5,1.04,3.61,1.7,7.31,2.38,11,.29,1.59.66,3.17.99,4.76,1.11,5.24,2.86,10.25,5.62,14.84,1.78,2.98,3.78,5.82,6.24,8.33.59.6.85.61,1.4.18,2.55-2.04,4.9-4.25,6.97-6.83,3.24-4.04,5.32-8.57,6.53-13.54.71-2.93,1.4-5.88,1.53-8.9.35-8.11.28-16.23.27-24.34,0-.27.2-.62-.1-.79-.83.8-1.46,1.71-2.09,2.62-1.74,2.51-3.23,5.16-4.59,7.9-.88,1.77-1.72,3.55-2.43,5.38-.9,2.31-1.74,4.65-2.56,6.99-1.08,3.09-1.9,6.26-2.77,9.42-.06.21-.12.5-.37.41-3.32-11.34-8.66-21.02-20.08-26.23ZM69.61,162.77c-11.44,5.08-16.85,14.79-20.23,26.14-1.75-5.8-3.39-11.59-5.73-17.16-2.35-5.59-5.07-10.93-9.08-15.87,0,.79,0,1.33,0,1.87.07,7.24-.05,14.47.23,21.71.18,4.67,1.04,9.2,2.43,13.64.88,2.8,2.05,5.47,3.74,7.9,1.17,1.68,2.35,3.32,3.81,4.8,1.75,1.77,3.57,3.43,5.53,4.95.36.28.54.17.78-.1,2.78-3.08,5.09-6.45,7.16-10.07,2.07-3.62,3.3-7.49,4.42-11.42,1.2-4.22,1.74-8.6,2.68-12.89.59-2.69,1.19-5.38,2.21-7.97.71-1.81,1.51-3.61,2.05-5.52ZM52.78,156c.07-12.05-1.11-23.9-5.24-35.35-.3.34-.4.69-.49,1.08-.81,3.47-1.58,6.94-2.49,10.39-1.55,5.86-3.13,11.69-3.57,17.78-.35,4.93-.13,9.78,1.3,14.52,1.22,4.03,3.43,7.46,6.56,10.31.82.75,1.54.84,2.35.08.17-.16.39-.26.59-.38,2.91-1.79,5.43-4.04,7.5-6.74,2.2-2.89,4.02-6.01,5.62-9.3,1.73-3.56,3.14-7.25,4.58-10.92,1.75-4.46,3.78-8.74,6.58-12.63.21-.29.48-.65.27-.98-.22-.35-.69-.22-.99-.1-2.56,1.02-5.09,2.14-7.39,3.67-3.34,2.23-6.29,4.91-8.76,8.09-1.07,1.37-2.03,2.82-2.95,4.31-1.23,1.98-2.08,4.16-3.46,6.18ZM216.08,310.63h-58.95c1.77,1.03,3.61,1.85,5.39,2.77,3.88,2,7.83,3.85,11.54,6.19,2.62,1.66,5.29,3.24,7.61,5.33.97.88,2.02,1.44,3.43,1.25,1.15-.16,2.33-.22,3.51-.03.69.11,1.24-.1,1.82-.6,2.54-2.24,5.41-4.02,8.27-5.82,2.35-1.49,4.81-2.77,7.27-4.05,1.87-.97,3.8-1.82,5.68-2.75,1.43-.7,2.84-1.45,4.44-2.28ZM86.28,88.99l-.3-.28c-1.99,1.82-4.01,3.6-5.97,5.46-2.09,1.97-4.07,4.06-6.18,6.01-2.54,2.34-4.94,4.83-7.08,7.53-2.21,2.78-4.15,5.74-5.81,8.91-2.01,3.83-3.63,7.77-4.64,11.97-.84,3.47-1.58,6.95-1.6,10.57-.02,3.58-.27,7.15-.42,10.73.27-.83.83-1.49,1.21-2.25.92-1.88,1.98-3.68,3.13-5.42,1.34-2.04,2.87-3.97,4.12-6.06,1.46-2.43,2.93-4.86,4.33-7.34,1.48-2.61,2.87-5.26,4.15-7.96,1.46-3.06,2.75-6.2,4.04-9.34,1.45-3.53,2.71-7.13,4.35-10.6,1.23-2.61,2.53-5.17,3.98-7.66.85-1.45,1.63-2.94,2.71-4.26ZM286.97,88.72c-.08.08-.17.16-.25.24.58,1.01,1.26,1.99,1.87,2.97,2.18,3.45,3.99,7.08,5.62,10.8,1.07,2.44,1.94,4.97,2.94,7.45.91,2.27,1.83,4.53,2.84,6.76,1.26,2.8,2.52,5.62,3.97,8.32,1.32,2.46,2.65,4.92,4.14,7.29,1.36,2.17,2.69,4.35,4.09,6.49.84,1.29,1.87,2.45,2.64,3.78,1.33,2.31,2.71,4.6,3.91,7.28-.17-3.42-.48-6.57-.44-9.72.09-6.29-1.48-12.26-3.55-18.07-1.09-3.05-2.63-5.98-4.41-8.76-.74-1.15-1.66-2.18-2.29-3.42-.56-1.1-1.46-2.05-2.29-3-1.29-1.48-2.62-2.94-3.99-4.35-1.86-1.9-3.76-3.76-5.68-5.61-2.05-1.98-4.13-3.93-6.22-5.88-.94-.88-1.93-1.71-2.9-2.57ZM77.73,396.3c-.09-.58.31-.9.26-1.41-.26-2.46-.54-4.92-.68-7.39-.15-2.59.15-5.2-.18-7.79-.08-.65-.14-1.41-1.08-1.2-2.16.48-4.3,1.02-6.45,1.55-4.97,1.25-9.92,2.54-14.71,4.37-4.74,1.81-9.54,3.47-14.03,5.9-2.12,1.15-4.3,2.17-6.44,3.26-.86.44-1.7.91-2.53,1.41-.68.41-.78,1.09-.58,1.78.18.63.7.82,1.35.88,2.94.28,5.78-.34,8.63-.85,3.19-.57,6.37-1.24,9.58-1.7,2.52-.36,5.05-.71,7.61-.88,3.85-.27,7.66-.9,11.54-.45,2.7.31,5.28.87,7.71,2.53ZM340.54,394.48c2.71.25,5.43.47,8.13.78,2.13.25,4.26.57,6.37.95,1.83.33,3.64.83,5.47,1.17,2.36.44,4.72.89,7.11,1.16,1.34.15,2.68.54,4.09.1.73-.23,1.03-.63,1.18-1.22.17-.63-.11-1.05-.69-1.46-2.18-1.52-4.69-2.38-6.96-3.75-2.25-1.36-4.66-2.47-7.14-3.43-3.18-1.22-6.28-2.66-9.48-3.79-3.32-1.18-6.7-2.19-10.1-3.13-3.03-.84-6.13-1.43-9.17-2.2-1.5-.38-1.69-.3-1.75,1.28-.07,1.91-.01,3.84-.29,5.72-.17,1.14-.17,2.27-.3,3.4-.24,2.11-.33,4.23-.59,6.34-.06.47-.03.85.72.41,1.16-.68,2.41-1.29,3.74-1.56,3.18-.65,6.39-1.14,9.66-.77ZM232.04,302.39c-2.8,2.35-5.54,4.56-8.5,6.52-3.44,2.28-7.12,4.09-10.8,5.88-2.62,1.28-5.24,2.56-7.84,3.88-2.77,1.41-5.43,3.04-8.01,4.8-1.21.83-2.47,1.59-3.74,2.72,5.38-.22,10.52.11,15.67-.25,2.52-.18,5.07.02,7.61.04.54,0,1.1-.16,1.6-.03,1.32.34,2.39,0,3.27-.98,2.85-3.19,5.4-6.56,7.26-10.45,1.83-3.82,3.05-7.78,3.47-12.12ZM140.98,302.44c.4,1.94.35,3.95.98,5.86,1.14,3.45,2.52,6.77,4.46,9.88,1.62,2.6,3.56,4.91,5.63,7.14.45.49.94.61,1.57.61,7.83-.02,15.66-.02,23.5,0,.42,0,.86-.13,1.27.16.23.16.55.14.74-.14.25-.37-.16-.49-.32-.61-1.59-1.11-3.15-2.26-4.81-3.25-2.72-1.64-5.47-3.24-8.34-4.63-3.01-1.46-6.03-2.91-9.04-4.37-3.72-1.81-7.27-3.97-10.58-6.46-1.71-1.29-3.44-2.58-5.07-4.17ZM252.2,317.01c4.35-.92,8.49-2.19,12.75-2.96-1.54-.14-2.84-.88-4.19-1.42-.57-.23-.94-.7-1.13-1.32-.1-.32-.03-.93-.65-.78-.73.18-1.61-.43-2.2.44-1.38,2.08-2.89,4.05-4.58,6.03ZM120.82,317.01c-1.81-1.92-3.22-3.93-4.59-5.97-.61-.91-1.45-.32-2.17-.48-.64-.15-.55.44-.65.76-.23.7-.73,1.12-1.38,1.4-1.25.52-2.48,1.11-3.85,1.4,4.23.62,8.25,2.07,12.64,2.89ZM88.08,289.43c-1.61-3.65-2.63-7.15-3.61-10.82-.26.61-.48,1.03-.62,1.47-.15.45-.24.92-.36,1.39-.33,1.31-.98,1.84-2.36,1.96-.99.09-1.99.19-3.28.31,3.56,1.79,6.72,3.66,10.23,5.69ZM288.55,278.43c-1.02,3.87-2.08,7.39-3.65,11.02,3.45-2.1,6.71-3.87,10.17-5.74-1.3-.11-2.34-.19-3.37-.29-1.21-.11-1.96-.74-2.24-1.96-.21-.92-.54-1.81-.91-3.04ZM318.72,210.57c.68,2.71,1.31,5.37,1.71,8.27,1.31-2.16,2.52-4.14,3.96-6.5-2.9,1.91-4.14-.24-5.67-1.77ZM253.58,288.97c1.94-2.06,3.56-4.27,5.01-6.64-.5-.11-.88-.21-1.27-.29-2.16-.42-2.17-.42-2.17,1.79,0,1.02.03,2.2-.98,2.65-1.36.61-.99,1.41-.58,2.48ZM65,254.46c-.48-3.18-.49-6.14-.41-9.16-.97.82-1.37,1.95-2.2,2.73-.34.32-.18.66-.04.98.78,1.79,1.57,3.57,2.65,5.45ZM109.08,288.58c.17-1.85.03-3.68.35-5.48.09-.49-.15-.62-.6-.61-.91.02-1.82,0-2.83,0,.81,2.22,2.27,3.98,3.08,6.09ZM308.12,253.39c.1.02.21.04.31.06.69-1.52,1.38-3.03,2.06-4.55.13-.28.34-.61.05-.88-.8-.77-1.16-1.91-2.17-2.67.07,2.76.07,5.41-.25,8.05ZM263.89,288.57c.83-1.92,1.98-3.65,2.9-5.51.09-.17.15-.5-.04-.51-1.03-.04-2.06-.02-3.08.03-.22.01-.15.35-.12.52.29,1.8.18,3.62.34,5.46ZM114.39,282.31c1.26,2.15,2.68,4,4.34,5.93.01-.58.87-.99.14-1.35-1.51-.74-1.75-2.08-1.95-3.47-.25-1.67-.22-1.68-1.93-1.24-.15.04-.31.07-.59.14ZM315.49,247.98c-1.82-.13-2.18.95-2.58,2.39.94-.87,1.68-1.56,2.58-2.39ZM57.57,247.96c.64.7,1.14,1.31,1.93,1.68-.05-1.21-.65-1.7-1.93-1.68ZM258.4,308.32c.32.05.67.2.68-.33,0-.26,0-.51,0-.87-.33.43-.61.75-.68,1.2ZM67.44,178.5c-.09-.09-.16-.15-.24-.22-.07.12-.17.24-.2.37-.02.11-.02.33.18.26.11-.04.16-.24.25-.41ZM307.83,136.3c-.36-.15-.33.04-.39.1.09.06.17.14.26.19.19.1.19-.12.18-.16-.01-.1-.09-.2-.05-.13ZM308.05,254.07l.02.11h-.06s.05-.11.05-.11ZM59.73,249.94s-.04-.06-.06-.09c-.03.02-.07.05-.07.07,0,.03.04.06.06.09.03-.02.05-.05.08-.07ZM92.82,259.51l-.05.08h.07s-.02-.08-.02-.08Z" class="cls-2"/><path d="M403.66,425.73c.35-1.08.45-2.22.46-3.34.04-5.37.01-10.74.03-16.11,0-.39-.26-.87.23-1.19,0,6.64,0,13.28.02,19.92,0,.6-.14.84-.74.72Z" class="cls-3"/><path d="M404.38,401.49c-.48-.36-.25-.87-.22-1.29.09-1.65-.31-3.32.22-4.95v6.24Z" class="cls-3"/><path d="M233.43,308.05c.25-1.57.48-3.15.75-4.71.22-1.27-.21-2.39-1.21-2.88-1.09-.53-1.98-.16-2.83.61-2.77,2.51-5.78,4.72-8.9,6.77-.61.4-1.28.55-2.04.55-21.83-.02-43.67-.02-65.5,0-.66,0-1.25-.08-1.81-.46-3.13-2.16-6.38-4.16-9-6.99-.81-.87-2.79-1.01-3.8-.31-.91.64-.93,1.57-.3,3.09.57,1.37.53,2.88.76,4.33-.05.05-.1.1-.15.15-2.57-2.45-4.95-5.1-7.68-7.39-1.7-1.43-3.27-3-4.97-4.43-1.88-1.57-3.57-3.35-5.33-5.06-.49-.48-.66-1.02-.33-1.72.48-1.01.88-2.06,1.26-3.11.44-1.19.16-1.63-1.07-1.82-1.79-.27-1.89-.37-1.94-2.18-.02-.64,0-1.28,0-1.92,0-1.93-.18-2.07-2.1-1.6-1.63.4-3.27.74-4.94.94-2.15.26-4.3.26-6.47.28-1.19.01-1.86-.52-2.35-1.46-1.12-2.15-2.55-4.11-3.87-6.13-2-3.07-3.83-6.22-5.47-9.49-.52-1.03-.94-2.07-1.32-3.3.69.12.94.6,1.29.93,6.03,5.74,13.03,9.32,21.46,9.8,2.21.13,4.4-.04,6.56-.51.35-.08.93.02.93-.51,0-.4-.51-.45-.83-.56-6.07-2-9.41-9.48-7.58-15.86,2.4-8.38,11.27-10.18,16.45-7.4,1.07.58,2.01,1.31,2.82,2.21,1.22,1.35,2.79.92,4.27.88.37,0,.49-.39.52-.71.04-.48.06-.96.06-1.44,0-28.6,0-57.19,0-85.79,0-10.84,0-21.68,0-32.51,0-22.63.03-45.27.03-67.9,0-3-.02-6-.04-9,0-.75.15-1.58-1.05-1.6-1.12-.02-1.32.72-1.39,1.56-.32,3.71-.84,7.39-1.54,11.04-1.63,8.46-4.16,16.67-7.04,24.78-2.85,8.03-5.34,16.18-8.21,24.19-5.84,16.27-12.42,32.23-19.59,47.96-6.34,13.91-11.83,28.16-16.39,42.76-2.68,8.57-2.84,17.31-1.8,26.13.75,6.32,1.59,12.62,3.47,18.73.54,1.77,1.31,3.44,2.23,5.03.37.63.57,1.08-.22,1.53-.71.41-.87,1.19-1.12,1.91-.41,1.19-.86,2.37-1.36,3.77-.87-2.37-1-4.68-1.68-6.85-1.39-4.44-2.92-8.85-4.08-13.35-.88-3.41-1.86-6.84-1.92-10.43-.02-1.16-.14-2.31-.24-3.47-.09-.99-.56-1.77-1.52-2.12-.91-.33-1.71-.07-2.42.6-1.12,1.05-1.81,2.42-2.83,3.7-.33-.72-.19-1.39-.13-2.01.4-4,.04-7.99-.25-11.97-.42-5.75-.43-11.48.63-17.17.14-.78.28-1.58.28-2.37.02-1.82-1.45-2.89-3.07-2.08-1.02.52-2.15.32-3.37,1.17.62-1.49,1.07-2.62,1.56-3.74,5.79-13.42,12.51-26.37,19.43-39.23,5.04-9.38,9.41-19.08,13.65-28.83,6.28-14.45,12.55-28.9,18.68-43.42,4.02-9.53,7.15-19.36,8.41-29.69.95-7.79.78-15.5-2.04-22.95-1.72-4.54-4.12-8.59-8.48-11.12-.83-.48-1.67-.96-2.58-1.26-.27-.09-.58-.18-.78.08-.26.33,0,.6.23.83.88.88,1.73,1.77,2.48,2.77,6.17,8.28,5.33,20.23-1.93,27.24-6.46,6.24-17.06,7.1-23.8,1.87-3.57-2.77-5.38-6.62-6.1-10.96-1.29-7.81.07-15.21,4.38-21.85,4.93-7.6,12.36-10.73,21.15-9.85,11.19,1.12,18.89,7.42,23.5,17.56,2.63,5.78,3.96,11.89,4.47,18.2.19,2.36.25,2.44,2.65,2.44,31.59,0,63.19,0,94.78,0,.2,0,.4,0,.6,0,1.75-.04,1.87-.14,2.01-1.91.63-7.61,2.21-14.99,6.03-21.68,5.08-8.88,12.75-14,23.03-14.74,9.49-.68,17.96,4.51,21.92,13.17,2.62,5.74,3.69,11.74,2.69,18.01-2.5,15.76-17.42,17.83-26.65,12.27-9-5.43-12.06-17.36-6.96-27.11.99-1.89,2.26-3.58,3.78-5.08.29-.29.82-.6.54-1.08-.35-.59-.88-.15-1.27.03-3.57,1.61-6.37,4.06-8.32,7.49-3.13,5.52-4.49,11.51-4.71,17.8-.31,8.91,1.45,17.5,3.98,25.97,2.49,8.34,5.98,16.28,9.44,24.24,4.9,11.26,9.72,22.55,14.59,33.81,5.55,12.82,11.76,25.3,18.39,37.6,5.93,10.98,11.25,22.27,16.09,33.78.15.36.41.69.33,1.27-.95-.82-1.87-1.55-2.71-2.35-1.02-.97-2.1-1.26-3.13-.75-.87.44-1.25,1.52-1.04,2.83.74,4.73,1.41,9.47,1.13,14.27-.14,2.42-.4,4.83-.48,7.26-.12,3.71-.35,7.41-.15,11.21-.52-.72-1.03-1.45-1.57-2.16-.39-.51-.8-.99-1.23-1.46-.69-.75-1.55-1.01-2.5-.64-1.05.41-1.45,1.29-1.49,2.38-.12,3.27-.48,6.51-1.2,9.71-.86,3.85-2.11,7.58-3.27,11.34-1.27,4.12-2.51,8.27-3.49,12.57-.4-1.1-.83-2.19-1.2-3.3-.35-1.04-.68-2.07-1.77-2.58-.47-.22-.32-.46-.15-.75,4.64-8.33,5.09-17.64,6.26-26.79,1.49-11.67-1.38-22.59-5.25-33.44-5.78-16.22-12.84-31.89-19.74-47.64-7.61-17.37-14.05-35.2-19.86-53.26-1.93-6.01-4.25-11.9-5.9-18.01-1.89-7-3.37-14.07-4.03-21.31-.05-.52-.13-1.03-.24-1.54-.09-.41-.39-.59-.81-.52-.37.06-.55.29-.56.66,0,.4,0,.8,0,1.2,0,25.92,0,51.83,0,77.75,0,11.44,0,22.88,0,34.31,0,27.31,0,54.63,0,81.94,0,.28-.05.57.01.84.16.72-.47,1.83.54,2.11,1.08.3,2.3.34,3.24-.66,1.16-1.23,2.46-2.28,4.08-2.87,7.61-2.74,16.49,2.46,15.79,12.63-.35,5.1-2.84,9.01-7.79,11.04-.34.14-.92.14-.86.66.06.46.6.47.98.54,4.78.93,9.48.52,14.09-.98,5.07-1.65,9.5-4.37,13.32-8.08.59-.58,1.06-1.28,1.75-1.79-.17,1.75-.97,3.17-1.66,4.63-2.05,4.32-4.82,8.21-7.3,12.27-.58.94-1.35,1.75-1.8,2.8-.38.89-1.09,1.18-2.09,1.22-4.11.17-8.14-.25-12.11-1.33-1.96-.53-2.27-.29-2.29,1.72,0,.88-.05,1.76-.02,2.64.03.95-.39,1.35-1.33,1.44-1.59.15-1.78.45-1.39,2,.34,1.36.72,2.7,1.12,4.05.15.52.04.84-.36,1.25-1.79,1.84-3.78,3.47-5.67,5.21-3.92,3.63-7.92,7.17-11.6,11.05-.05-.05-.11-.11-.16-.16ZM162.75,292.32l-.03-.02c-.05.19-.06.39-.14.56-1.51,3.21-2.96,6.45-5.03,9.36-.17.24-.64.71-.06.81.93.16,1.92.13,2.86.02.63-.07.69-.81.96-1.27,2.84-4.67,4.39-10,7.51-14.52.65-.94.31-1.99-.57-2.46-.79-.42-1.87-.1-2.39.99-1.05,2.22-2.98,3.43-5.03,4.4-1.18.56-1.28,1.35-1.27,2.37,0,.78.37.93,1.09.74.77-.2,1.26-.95,2.09-1ZM208.35,149.49c0-32.39,0-64.79,0-97.18,0-2.43-.13-2.56-2.59-2.56-5.08,0-10.16-.02-15.24,0-3.73.01-3.07-.15-3.08,3.08-.02,64.03-.01,128.06-.01,192.09,0,.68-.05,1.36-.03,2.04.03,1.24-.75,1.4-1.73,1.41-1,0-1.61-.33-1.57-1.45.03-.84-.01-1.68-.01-2.52,0-64.11,0-128.22,0-192.33,0-2.3,0-2.31-2.3-2.32-5.04-.01-10.08-.04-15.12.01-2.63.03-2.87-.71-2.87,2.88,0,16,0,31.99,0,47.99,0,48.51,0,97.02,0,145.54,0,2.73,0,2.74,2.69,2.74,13.04,0,26.07.02,39.11-.01,2.7,0,2.75.64,2.75-2.81,0-32.19,0-64.39,0-96.58ZM231.54,149.23c0-16.95,0-33.91,0-50.86,0-15.75-.01-31.51.02-47.26,0-1.11-.31-1.41-1.4-1.39-5.48.06-10.96.02-16.43.03-1.99,0-1.99.03-1.99,2.01,0,58.14,0,116.28.01,174.42,0,6.88,0,13.76,0,20.63,0,1.95.12,1.97,1.99,2.1,4.99.35,9.99-.28,14.98.11,2.71.21,2.81,0,2.81-2.74,0-32.35,0-64.7,0-97.05ZM160.49,149.08c0-32.63,0-65.26.02-97.9,0-1.14-.3-1.49-1.46-1.47-4.72.07-9.44.02-14.16.03-2.67,0-2.68,0-2.68,2.72-.01,21.43-.04,42.87-.04,64.3,0,23.07.03,46.15.03,69.22,0,19.08,0,38.15-.01,57.23,0,1.44.05,2.88.06,4.32,0,.94.44,1.38,1.4,1.36,5.04-.11,10.07.26,15.11,0,1.52-.08,1.69-.23,1.7-1.81.03-3.24,0-6.48,0-9.72,0-29.43,0-58.87,0-88.3ZM219,276.89c9.04,0,18.07,0,27.11,0,.48,0,.96,0,1.44-.04.28-.02.6-.04.71-.35.12-.33-.16-.52-.37-.68-.45-.34-.92-.63-1.38-.96-5.38-3.87-9.54-8.62-11.03-15.29-.26-1.18-.9-1.48-2.03-1.48-13.91.03-27.82.02-41.74.03-.6,0-1.51-.29-1.72.39-.22.71.74.92,1.21,1.27,5.02,3.73,5.05,11.63.05,15.38-.48.36-1.44.6-1.2,1.28.25.7,1.19.43,1.84.43,9.04.02,18.07.01,27.11.01ZM153.89,276.9h0c9.07,0,18.15,0,27.22-.02.57,0,1.45.28,1.65-.3.25-.72-.69-.95-1.18-1.3-5.1-3.77-5.16-11.77-.13-15.46.49-.35,1.45-.6,1.21-1.28-.24-.71-1.19-.42-1.84-.42-10.99-.02-21.99-.03-32.98-.04-2.88,0-5.76.04-8.63.05-.98,0-1.64.31-1.89,1.4-1.55,6.72-5.63,11.61-11.19,15.44-.55.38-1.64.61-1.39,1.4.26.83,1.32.5,2.04.5,9.03.02,18.07.01,27.1.01ZM172.79,293.51c-.03,1.79.64,2.98,1.97,3.5,1.5.58,3.74.12,4.79-1.03.52-.57,1.05-1.27.52-2.02-.59-.83-1.33-.41-1.98.06-.13.09-.28.16-.43.21-1.04.39-1.76-.14-1.67-1.24.17-1.9,2.1-4.32,3.94-4.92,2.15-.7,3.68.66,3.24,2.89-.33,1.68-1.17,3.14-2.13,4.51-2.25,3.19-4.94,5.96-8.18,8.16-.65.44-1.01.87-.56,1.66.58,1.02,1.12,1.21,2.14.62,3.12-1.81,5.64-4.31,7.88-7.1,1.92-2.39,3.79-4.81,4.05-8.11.25-3.19-1.87-5.77-5.05-5.81-4.24-.06-8.45,4.2-8.52,8.61ZM191.58,303.35c1.7.06,3.26-.44,4.58-1.47,3.88-3.04,5.74-7.12,5.61-11.99-.1-3.95-3.04-5.81-6.8-4.59-1.08.35-2.05.88-2.92,1.6-2.71,2.23-4.17,5.2-4.81,8.58-.36,1.91-.29,3.81.62,5.6.77,1.54,1.94,2.39,3.72,2.28ZM216.15,294.6c-.02-2.08-.94-3.23-2.92-3.64-1.71-.35-3.69.53-4.26,1.91-.22.53-.37,1.1.05,1.58.47.52,1.02.27,1.53.01.29-.14.56-.33.86-.43.98-.32,1.57.14,1.52,1.16-.09,1.79-2.04,4.39-3.76,4.91-1.02.31-2.08.39-2.93-.42-.81-.76-.67-1.73-.43-2.68.47-1.85,1.41-3.45,2.6-4.93,2-2.47,4.35-4.56,6.95-6.37.47-.33.8-.69.61-1.29-.16-.52-.49-.92-1.03-1.08-.52-.15-.94.15-1.34.37-4.13,2.27-7.3,5.53-9.7,9.53-.98,1.63-1.46,3.43-1.34,5.38.14,2.32,1.78,4.22,4.01,4.54,4.79.69,9.64-3.65,9.59-8.57Z" class="cls-1"/><path d="M372.66,360.14c.52,4.03-.09,8.33.11,12.65.18,3.74.18,7.52.22,11.28.03,2.68.49,5.36.42,8.05-.03,1.3-.15,1.4-1.36.86-2.35-1.05-4.53-2.42-6.79-3.62-1.78-.94-3.67-1.67-5.5-2.53-4.3-2-8.75-3.59-13.21-5.18-3.92-1.39-7.9-2.53-11.94-3.47-2.95-.69-5.87-1.54-8.84-2.08-3.45-.63-6.88-1.36-10.38-1.81-3.65-.46-7.31-.94-10.96-1.36-2.23-.26-4.49-.32-6.73-.51-3.61-.3-7.23-.28-10.83-.54-2.53-.19-5.06-.13-7.59-.28-3.59-.22-7.21.07-10.79-.19-2.06-.15-4.13-.12-6.17-.1-3.17.02-6.35-.03-9.52.05-2.52.06-5.09-.05-7.63-.09-5.44-.08-10.88-.03-16.32-.03-4.04,0-8.08-.08-12.12-.21-2.72-.09-5.44-.08-8.16.17-1.5.14-3.02-.11-4.53-.08-13.53.28-27.06.05-40.59.11-6.56.03-13.13.02-19.69,0-1.83,0-3.68-.33-5.49-.18-4.81.38-9.63.01-14.44.29-.87.05-1.75.13-2.62.11-3.64-.09-7.26.19-10.88.33-3.85.14-7.71.48-11.56.85-2.74.27-5.49.49-8.23.81-1.77.21-3.55.54-5.31.82-2.32.37-4.59.92-6.9,1.28-2.35.37-4.63,1.03-6.94,1.53-4.67,1.01-9.28,2.26-13.79,3.81-2.44.83-4.87,1.72-7.27,2.7-2,.82-3.99,1.68-6,2.48-1.91.76-3.73,1.7-5.53,2.69-2.25,1.24-4.59,2.32-6.93,3.4-1.08.5-1.17.03-1.12-.86.19-3.61.24-7.24.55-10.84.22-2.54.09-5.09.36-7.64.18-1.76-.2-3.6-.06-5.36.24-3.13-.05-6.25.31-9.38.21-1.85.35-3.64,1.27-5.3,1.66-2.99,4.07-5.2,6.97-6.95,3.96-2.39,8.3-3.8,12.6-5.38,4.56-1.67,9.23-2.93,13.86-4.33,2.89-.88,5.9-1.37,8.86-2.03,1.94-.43,3.87-.87,5.82-1.24,1.75-.33,3.52-.61,5.29-.84,2.07-.27,4.12-.66,6.2-.91,1.87-.22,3.75-.37,5.62-.58,2.22-.24,4.45-.43,6.67-.67,1.61-.18,3.26-.2,4.89-.31,3.62-.25,7.25-.55,10.87-.63,1.04-.02,2.08-.11,3.12-.1,4.9.02,9.8-.31,14.7-.29,1.91,0,3.83.02,5.75-.09,1.89-.11,3.84-.09,5.77,0,1.73.08,3.53.01,5.3-.06,3.59-.14,7.2-.1,10.8-.03,4.48.08,8.95-.05,13.44.12,2.84.11,5.72.37,8.58-.11.62-.1,1.29.22,1.97.22,5.72-.02,11.44-.01,17.17-.01,2.36,0,4.73,0,7.09,0,2.36,0,4.72.07,7.08-.02,2.3-.09,4.6-.05,6.9-.12,1.87-.06,3.79,0,5.68-.08,3.04-.11,6.06.25,9.1.03,1.66-.12,3.34-.08,5.01.15,1.46.2,2.95-.16,4.44-.11,2.03.07,4.06-.01,6.1.11,2.83.17,5.69-.11,8.51.08,3.31.23,6.63-.06,9.9.27,2.29.23,4.58.15,6.86.29,2.85.17,5.73.17,8.57.41,2.77.23,5.56.38,8.32.86,1.93.34,3.92.39,5.89.52,2.31.15,4.58.71,6.88.86,2.36.16,4.61.85,6.95,1.1,2.2.23,4.37.75,6.54,1.23,2.57.57,5.14,1.17,7.68,1.87,4.22,1.15,8.45,2.28,12.61,3.67,2.91.97,5.8,1.99,8.66,3.07,4.46,1.68,8.92,3.49,12.32,6.99,2.69,2.77,4.4,6.08,4.15,10.4ZM248.98,342.09c.06.06.13.12.19.17-.7,1.25-1.42,2.49-2.09,3.75-1.97,3.7-3.86,7.44-4.28,11.71-.12,1.25.08,1.51,1.32,1.44.4-.02.8-.16,1.19-.13.72.05.9-.33.9-.93,0-1.5.45-2.9.95-4.3,1.77-5,4.54-9.48,7.34-13.93.71-1.12,1.31-2.29,1.54-3.61.26-1.51-.66-2.4-2.17-2.14-1.22.21-2.21.82-3.1,1.69-4.58,4.47-8.9,9.16-12.79,14.26-.08-.08-.16-.17-.23-.25.55-2.2,1.1-4.41,1.64-6.61.57-2.32,1.23-4.62,1.58-7,.16-1.11-.3-1.94-1.33-2.42-1-.46-1.77-.03-2.48.64-.35.34-.6.74-.83,1.16-1.17,2.18-2.33,4.36-3.56,6.51-3.33,5.84-6.34,11.89-11.15,16.91.42.02.78-.01,1.1.07,2.74.69,4.18-.79,5.48-2.96,2.53-4.25,5.06-8.5,7.28-12.92.17-.34.23-.8.82-1-.58,2.05-1.13,4-1.69,5.94-.81,2.8-1.53,5.61-1.99,8.49-.11.72-.17,1.47.6,1.92.81.47,1.55.21,2.22-.3.31-.24.57-.56.82-.87,1.24-1.52,2.47-3.04,3.69-4.57,2.91-3.66,5.75-7.37,9.02-10.72ZM267.89,352.12c-.07-.06-.15-.12-.22-.18.69-1.64,1.75-3.1,2.33-4.8-1.9-.27-3.68-.48-4.37,1.83-.04.14-.19.26-.29.38-2.18,2.54-4.82,4.53-7.65,6.28-.32.2-.67.47-1.2.13.71-1.46,1.41-2.92,2.13-4.38.73-1.49,1.48-2.97,2.25-4.52-1.86-.11-3.75-.71-4.48,1.73-.11.38-.55.67-.87.97-1.2,1.11-2.39,2.24-3.63,3.31-.43.38-.65.77-.64,1.33,0,.63-.31,1.51.13,1.83.6.44.92-.66,1.57-.78.07.53-.26.91-.43,1.34-.8,2.05-.08,2.96,2.11,2.75,2.07-.2,3.74-1.29,5.45-2.32.58-.35,1.14-.73,1.89-1.21-.31.96-.55,1.67-.76,2.39-.15.5-.02.96.38,1.3.42.35.9.31,1.35.08.35-.18.68-.42,1-.66,2.7-2.06,5.4-4.12,8.1-6.18.32-.25.63-.52,1.25-.63-.44.81-.78,1.42-1.11,2.05-.64,1.24-1.35,2.45-1.72,3.8-.34,1.26.14,1.9,1.42,2.02,1.54.14,2.91-.37,4.24-1.06,1.53-.79,3.02-1.65,4.58-2.94-.37.99-.68,1.68-.88,2.39-.31,1.08.1,1.69,1.17,1.91,1.06.22,2.06-.01,3.05-.37,1.92-.7,3.59-1.85,5.5-3.03-.24.7-.43,1.21-.6,1.72-.24.7-.49,1.47.19,1.99.72.55,1.44.11,2.07-.36,2.24-1.67,4.48-3.35,6.73-5.01.87-.64,1.69-1.37,2.78-1.89-.05.69-.42,1.07-.65,1.52-.71,1.34-1.52,2.63-2,4.08-.5,1.51-.04,2.18,1.56,2.29,1.36.1,2.6-.31,3.79-.92,1.15-.59,2.29-1.2,3.49-1.83.19,1.51.68,2.67,2.13,3.17,1.31.45,2.61.19,3.98-.24-.26.85-.79,1.29-1.22,1.81-1.62,1.97-3.39,3.85-3.9,6.49-.18.94-.29,1.91.79,2.37,1.03.43,1.85-.06,2.51-.87.96-1.19,1.68-2.53,2.25-3.93.71-1.76,1.82-3.17,3.38-4.25,1.51-1.05,2.96-2.19,4.54-3.11,1.28-.75,1.59-1.76,1.47-3.1-.06-.66-.27-.75-.8-.41-1.21.77-2.44,1.53-3.65,2.29-.07-.08-.15-.16-.22-.24.56-1.69,1.67-3.14,2.31-4.82q-2.89-.36-4.57,1.67c-.33.4-.67.79-1.02,1.17-.76.82-1.48,1.68-2.56,2.13-1.21.51-1.86.18-1.96-1.13-.13-1.68.34-3.18,1.7-4.27,2.28-1.83,4.87-1.99,7.59-1.27.33.09.74.4.99.09.46-.57.3-1.29.25-1.96-.05-.59-.45-.79-.97-.87-1.99-.29-3.99-.37-5.96.04-3.18.67-5.98,1.89-6.75,5.54-.03.14-.11.32-.22.39-1.36.91-2.67,1.9-4.17,2.58-.16.07-.43.1-.56.01-.24-.17-.09-.44,0-.64.36-.71.74-1.41,1.13-2.1.83-1.49,1.87-2.88,2.42-4.52.45-1.34,0-1.95-1.41-2.04-.88-.05-1.65.2-2.37.67-2.18,1.4-4.36,2.79-6.54,4.18-.07-.05-.14-.11-.21-.16.5-.95.99-1.91,1.5-2.86q1.06-1.98-1.2-2.06c-.52-.02-1.08-.26-1.45.44-2.02,3.75-5.53,5.86-8.95,8.05-.27.17-.63.37-.87.18-.33-.26,0-.59.14-.85.98-1.96,1.98-3.91,2.98-5.86q1.26-2.44-1.55-2.41c-.34,0-.77-.16-.94.29-.92,2.37-3.06,3.63-4.82,5.21-1.42,1.27-3.05,2.32-4.77,3.17-.2.1-.44.28-.66.09-.22-.2-.04-.45.06-.65.35-.71.7-1.43,1.08-2.13.81-1.51,1.83-2.91,2.37-4.55.42-1.29.1-1.79-1.19-2.02-1.07-.19-1.96.25-2.8.8-2.1,1.37-4.19,2.76-6.28,4.15ZM92.28,357.19c.08.08.16.16.25.25-.13.5-.28,1-.4,1.5-.36,1.47.29,2.24,1.8,2.12.88-.07,1.71-.28,2.52-.68,1.57-.78,2.96-1.83,4.45-3,.23,1.47.82,2.54,2.23,2.92,1.09.29,2.17.47,3.31.29,2.35-.37,4.39-1.39,6.2-2.9.52-.43.74-.57.98.29.45,1.61,1.45,2.22,3.14,2.17.88-.03,1.76-.19,2.54-.6.99-.51,1.93-1.43,2.83.14.18.31.71.29,1.12.31.91.03,1.71-.32,2.51-.68,1.66-.76,3.17-1.75,4.66-3.09.17,1.88,1.14,2.79,2.79,3.13,2.26.47,4.34-.01,6.37-1.01,2.87-1.41,4.94-3.76,7.13-5.97.9-.9,1.76-1.85,2.45-2.94.32-.49.86-.73,1.35-.5.64.31.06.78-.08,1.1-.94,2.11-2.02,4.16-2.76,6.36-.6,1.8.47,2.98,2.36,2.67,1.82-.29,3.37-1.19,4.86-2.22,1.23-.85,2.33-1.88,3.52-2.83-.18.97-.47,1.87-.7,2.78-.3,1.16.25,1.96,1.45,2.12,1.08.14,2.04-.26,2.99-.7,1.46-.69,2.8-1.58,4.13-2.54.88,3.45,4.49,4.07,7.63,1.56.32,1.31.74,1.6,2.08,1.41.84-.12,1.62-.41,2.34-.85,1.63-1,3.25-2.03,4.69-3.31.22-.2.41-.51.8-.4.16.38-.06.68-.17,1.02-.63,1.85-1.29,3.69-1.86,5.55-.47,1.56-.89,3.15-1.22,4.75-.26,1.27-.04,2.5,1.15,3.29.92.62,2.27.41,3.44-.54.52-.42,1.01-.91,1.43-1.44,2.11-2.7,3.18-5.78,3.23-9.2.01-.66.21-1.02.77-1.31.52-.27,1-.63,1.52-.96.56,2.34,1.31,3,3.72,3.32,2.87.38,5.29-.74,7.63-2.21.98-.62,1.62-1.66,2.7-2.15.05.05.11.1.17.13-.14.54-.29,1.07-.43,1.61-.54,2.05.38,3.07,2.43,2.54,2.06-.54,3.97-1.48,5.55-2.95.84-.78.97-1.78.76-2.87-.11-.57-.32-.65-.78-.3-.99.74-2,1.46-3.01,2.17-.31.21-.63.65-1.04.34-.39-.3-.11-.77,0-1.12.41-1.33.87-2.65,1.33-3.96,1.3-3.69,3.43-7.02,4.72-10.71.61-1.74,1.09-3.5,1.16-5.36.02-.56-.15-1.04-.69-1.28-.52-.23-1.02-.1-1.47.23-.4.29-.62.71-.79,1.17-.79,2.09-1.57,4.18-2.39,6.25-1.74,4.4-2.7,9.16-6.99,12.21-1.98,1.41-3.89,2.73-6.21,3.42-.84.25-1.58.03-2.28-.39-.27-.16-.6-.38-.5-.74.08-.27.44-.31.71-.36.2-.03.4-.02.6-.05,2.52-.44,4.73-1.5,6.38-3.48,1.77-2.12.91-4.97-1.52-5.36-3.35-.53-8.08,1.92-9.28,5.09-.54,1.42-1.41,2.33-2.52,3.18-.38.29-.72.67-1.13.88-1.02.52-1.34,1.41-1.43,2.45-.2,2.13-.88,4.12-1.73,6.06-.37.84-.8,1.65-1.42,2.35-.15.17-.32.43-.59.28-.24-.13-.17-.42-.15-.65.02-.2.05-.4.12-.58,2.6-7.11,4.64-14.42,7.81-21.32.86-1.89,1.6-3.82,2.26-5.79.38-1.14.71-2.29.67-3.51-.02-.58-.1-1.16-.73-1.38-.57-.2-1.09,0-1.55.39-.56.49-.87,1.12-1.16,1.79-1.43,3.3-2.3,6.79-3.57,10.15-.51,1.34-.85,2.79-1.84,3.86-2.18,2.34-4.56,4.48-7.24,6.25-.27.18-.62.57-.93.26-.29-.29.06-.67.19-.99.57-1.39,1.39-2.67,1.8-4.03-2.2-.75-3.71-.13-4.58,2.06-.28.71-.92,1.3-1.46,1.88-.59.65-1.3,1.2-2.13,1.52-.67.26-1.25.12-1.34-.67-.15-1.36-.15-2.7.76-3.88,1.8-2.33,5.46-3.54,8.28-2.68.27.08.64.3.78.08.45-.7,0-1.46.02-2.2.01-.53-.36-.62-.8-.68-1.85-.22-3.71-.25-5.45.38-2.88,1.04-5.68,2.28-6.89,5.45-.81,2.11-2.67,3.06-4.44,4.11-.46.27-.7.02-.65-.45.04-.39.15-.78.3-1.15,1.14-2.89,2.36-5.75,3.41-8.68.42-1.17,1-1.69,2.23-1.54,1.22.15,1.36-.75,1.41-1.61.06-.96-.6-1.07-1.36-1.01-.21.02-.48.1-.68-.18.59-1.71,1.42-3.35,1.79-5.16.15-.74.21-1.5-.57-1.9-.76-.4-1.28.18-1.75.67-1.25,1.31-1.8,3-2.32,4.67-.58,1.85-.55,1.89-2.42,1.96-1.21.05-1.38.86-1.47,1.79-.11,1.13.7.97,1.35.93.86-.06.86.24.64.97-.56,1.84-1.49,3.41-2.82,4.79-1.88,1.96-3.71,3.96-6.07,5.38-.39.24-.85.78-1.27.43-.43-.36.09-.84.27-1.23.69-1.52,1.43-3.03,2.13-4.55.42-.9.67-1.84-.04-2.71-.72-.87-1.7-.97-2.73-.67-.66.19-1,.07-1.15-.71-.28-1.45-1.22-1.98-2.64-1.61-.97.25-1.77,1.74-1.21,2.73.51.9.11,1.4-.32,2.01-.41.59-.81,1.19-1.25,1.76-2.09,2.68-4.47,4.98-7.82,6.04-.97.31-1.88.32-2.76-.22-.24-.14-.51-.32-.47-.64.04-.35.35-.38.63-.42.43-.07.88-.11,1.3-.23,2.35-.69,4.5-1.76,5.85-3.89,1.35-2.13.37-4.61-1.85-4.96-3.44-.54-8.36,2.39-9.32,5.76-.34,1.2-1,1.91-1.91,2.58-.84.62-1.65,1.26-2.48,1.88-.22.17-.45.35-.71.44-.41.15-.85.3-1.2-.15-.33-.42-.05-.75.16-1.08.13-.2.3-.37.45-.56,3.18-4.18,5.57-8.74,6.55-13.95.4-2.13.57-4.28-.1-6.4-.47-1.47-1.28-1.7-2.49-.73-.6.48-1.05,1.09-1.5,1.71-2.2,3.05-3.59,6.49-4.55,10.09-.27,1.02-.6,1.35-1.71,1.33-4.02-.09-7.11,2.54-7.81,6.49-.07.41-.2.75-.53,1.03-1.56,1.34-3.3,2.37-5.24,3.05-.52.18-1.09.3-1.65.13-.57-.17-1.38-.3-1.37-.95.01-.65.85-.5,1.35-.62,2.45-.56,4.55-1.74,6.1-3.73.91-1.17.97-2.53.43-3.86-.44-1.1-1.49-1.39-2.55-1.48-3.3-.28-7.9,2.7-8.81,5.88-.36,1.26-1.02,2.1-1.98,2.84-.51.39-1.01.78-1.54,1.15-.32.22-.73.64-1.05.41-.47-.33,0-.81.14-1.17,1.05-2.7,2.15-5.39,3.25-8.12-1.88-.07-3.8-.43-4.34,2.11-.08.38-.51.7-.81,1.03-1,1.09-1.99,2.19-3.04,3.23-.61.6-.98,1.23-.85,2.11.07.51-.12,1.25.31,1.46.52.25.78-.53,1.21-.79ZM78.51,358.51c1.41-2.22,2.15-4.53,2.92-6.83,1.07-3.17,1.96-6.4,3.45-9.42.47-.95,1.03-1.81,1.91-2.41.47-.33,1.04-.53,1.56-.15.47.35.43.87.31,1.42-.24,1.1-.67,2.13-1.16,3.13-.9,1.83-1.84,3.63-2.76,5.44-.12.24-.35.49-.11.76.18.2.44.12.68.08q3.65-.64,5.21-4.03c.31-.69.61-1.39.87-2.1.45-1.24.78-2.51.93-3.83.32-2.88-1.24-4.61-4.14-4.57-2.46.03-4.21,1.32-5.53,3.28-1.76,2.61-2.82,5.52-3.66,8.53-.91,3.27-1.93,6.49-3.78,9.39-.4.63-.83.91-1.65.84-1.43-.13-2.88-.17-4.27.34-.88.32-1.6.78-1.59,1.85.01,1.11.74,1.62,1.68,1.9,1.61.48,3.16.12,4.69-.38.41-.13.77-.39,1.25-.32,3.63.5,7.25.23,10.86-.21,3.19-.39,3.37-.66,3.34-4.04-3.58.81-7.16,1.54-11.04,1.32ZM101.57,343.67c0-1.12-.69-1.88-1.71-1.9-1.15-.03-2.36,1.19-2.38,2.41-.02,1,.82,1.82,1.83,1.8,1.28-.03,2.26-1.03,2.26-2.3ZM260.72,344.78c1.18,0,2.29-1.09,2.29-2.29,0-1.09-.69-1.84-1.74-1.86-1.21-.03-2.35,1.12-2.36,2.37,0,1.06.72,1.78,1.81,1.78ZM290.69,343.52c-.01-1.16-.64-1.79-1.75-1.78-1.2.01-2.39,1.22-2.36,2.38.03,1.01.8,1.7,1.9,1.7,1.26,0,2.23-1.01,2.21-2.3Z" class="cls-3"/><path d="M136.28,246.35c-1.34-1.22-2.36-2.5-3.93-3.14-1.46-.6-2.89-1.1-4.49-1.07-2.58.06-5.14.38-7.69.64-2.42.24-3.35,2.04-5.05,2.94-.94.5-1,2.01-1.55,3.03-2.51,4.61-2.19,9.45-.92,14.29.48,1.85,1.65,3.41,2.99,5.1-3.88-.61-7.42-1.4-10.71-3.15-3.62-1.93-6.97-4.21-9.77-7.21-4.94-5.29-8.07-11.49-9.23-18.69-.79-4.91-1.59-9.81-2.13-14.75-.7-6.54.03-12.94,1.73-19.29,1.69-6.33,3.99-12.45,6.33-18.55,1.58-4.13,3.09-8.29,4.75-12.39,1.73-4.28,3.55-8.53,5.44-12.74,2.68-5.99,5.41-11.97,7.95-18.03,2.64-6.32,5.17-12.69,7.65-19.08,3.75-9.68,7.15-19.47,10.34-29.34,1.56-4.82,3.32-9.57,4.91-14.38,1.28-3.85,2.33-7.78,3.39-11.72v177.53Z" class="cls-3"/><path d="M257.17,268.11c4.24-5,4.6-10.56,3.39-16.42-.13-.65-.45-1.28-.74-1.89-.68-1.46-1.72-2.76-1.92-4.44-.05-.39-.23-.91-.59-.99-1.55-.34-2.73-1.31-4.01-2.13-.12-.08-.33-.11-.47-.07-1.89.67-3.77-.08-5.65-.09-3.62-.02-6.97.49-9.87,3.37V72.39c.06,0,.13-.01.19-.02.54,1.86,1.03,3.74,1.64,5.58,2.13,6.48,4.33,12.94,6.46,19.43,3.69,11.26,7.68,22.4,12.05,33.41,3.3,8.33,6.74,16.6,10.47,24.74,3.42,7.45,6.75,14.95,9.7,22.61,2.69,6.99,5.38,13.98,7.75,21.08,1.6,4.79,2.83,9.69,3.43,14.76.48,4.04.08,8-.28,11.99-.48,5.4-1.39,10.72-2.54,16.01-1.04,4.77-3.2,8.97-6.1,12.85-3.95,5.28-9.11,9-15.15,11.5-2.39.99-4.97,1.39-7.77,1.79Z" class="cls-3"/><path d="M376.08,393.9c.03-3.28-.18-6.1-.31-8.91-.17-3.7-.4-7.4-.44-11.12-.01-1.1.32-1.24,1.33-.93,4.75,1.46,9.36,3.3,13.77,5.57,3.32,1.71,6.52,3.64,9.1,6.48,1.74,1.91,2.31,4.16,2.39,6.56.11,3.44.03,6.89.03,10.33,0,5.6,0,11.2,0,16.8,0,1.68-.17,1.81-1.63,1.03-3.26-1.74-6.61-3.28-10.05-4.64-5.16-2.04-10.43-3.72-15.85-4.91-4.15-.91-8.35-1.57-12.6-2.02-4.26-.45-8.52-.71-12.8-.68-3.76.03-7.52.03-11.28,0-2.44-.01-4.91.02-7.25-.74-1.56-.51-3.19-1-3.97-2.79-.88-2.01-.2-3.22,1.2-4.31,2.24-1.75,4.89-2.14,7.63-2.49,3.13-.4,6.17.12,9.24.34,3.75.27,7.44,1.01,11.16,1.59,3.74.58,7.43,1.54,11.19,1.88,2.54.23,5.23.69,7.64-.86.58-.37.85-.84,1.02-1.49.44-1.7.54-3.42.47-4.71Z" class="cls-3"/><path d="M64.97,406.79c-3.9-.35-7.81-.34-11.72-.26-3.49.07-7.01.06-10.46.52-4.82.64-9.65,1.27-14.39,2.49-5.96,1.53-11.75,3.45-17.41,5.85-2.54,1.07-5.02,2.25-7.4,3.62-.55.32-1.01.26-1.03-.33-.07-1.41.02-2.84.05-4.26,0-.4.08-.79.08-1.18.05-3.33.27-6.66.31-9.97.05-4.21-.12-8.45-.01-12.66.08-3,1.09-5.74,3.54-7.85,2.46-2.12,5.13-3.8,7.99-5.33,3.68-1.97,7.67-3.15,11.42-4.93.66-.31,1.46-.31,2.12-.61.83-.38,1.06.19,1.12.68.27,2.01-.17,4.02-.23,6.03-.01.4-.1.9-.11,1.31-.07,4.87-.8,9.72-.51,14.6.06.98.08,1.98.28,2.94.34,1.67,1.84,2.04,3.16,2.34,2.37.53,4.76.09,7.15-.17,3.58-.38,7.08-1.22,10.63-1.77,3.55-.55,7.09-1.28,10.66-1.56,2.86-.23,5.73-.52,8.65-.19,1.44.16,2.94.19,4.26.66,1.77.63,3.56,1.4,4.64,3.21,1.18,1.98-.71,4.82-2.47,5.37-2.54.8-5.09,1.2-7.74,1.21-.84,0-1.72.21-2.59.23Z" class="cls-3"/><path d="M320.11,276.59c-1.03,1.17-2.09,2.31-3.09,3.51-1.29,1.54-2.66,3-4.03,4.45-1.34,1.42-2.75,2.81-4.05,4.25-1.93,2.16-3.89,4.3-5.86,6.43-2.3,2.48-4.86,4.68-7.44,6.87-1.88,1.6-3.86,3.07-5.93,4.33-4.14,2.51-8.49,4.61-13.34,5.57-4.07.81-8.06.64-12.05-.3-.8-.19-1.54-.62-2.32-.9-.54-.19-.4-.63-.42-1-.29-4.36-.03-8.63,1.4-12.84.84-2.47,1.78-4.87,2.88-7.23,1.58-3.4,3.49-6.61,5.48-9.79,2.13-3.41,4.44-6.72,6.46-10.19,1.66-2.85,3.16-5.8,4.41-8.88.76-1.87,1.21-3.83,2.12-5.95.79,2.21,1.75,4.14,2.13,6.18.45,2.41.87,4.85.82,7.35-.08,4.23-.55,8.38-1.68,12.46-1.14,4.1-2.75,7.98-4.82,11.68-.57,1.02-1.23,1.99-2.03,3.29,13.15-8.24,26.16-16.07,41.35-19.3Z" class="cls-3"/><path d="M53.19,276.57c3.97.73,7.76,2,11.52,3.5,3.15,1.26,6.26,2.61,9.29,4.13,4.36,2.2,8.66,4.54,12.83,7.1,2.37,1.46,4.67,3.04,7.15,4.37-1.39-2.19-2.65-4.44-3.69-6.78-2.02-4.52-3.59-9.17-4.15-14.16-.27-2.42-.54-4.83-.41-7.26.19-3.45.53-6.88,2.07-10.06.34-.7.26-1.56.9-2.31.89,2.28,1.55,4.55,2.49,6.71.9,2.06,1.87,4.07,2.94,6.04,1.83,3.37,4,6.54,6.09,9.76,2.07,3.17,4.03,6.4,5.8,9.74,2.5,4.73,4.44,9.71,5.29,15.01.41,2.55.23,5.18.09,7.78-.03.47-.28.6-.63.74-4.32,1.75-8.77,2.04-13.34,1.29-2.98-.49-5.82-1.44-8.53-2.7-3.32-1.55-6.42-3.5-9.39-5.68-4.8-3.53-8.93-7.75-12.96-12.08-1.6-1.72-3.21-3.44-4.78-5.19-1.36-1.51-2.66-3.11-4.04-4.59-1.59-1.71-3.19-3.4-4.67-5.2.05-.05.1-.1.14-.16Z" class="cls-3"/><path d="M298.49,225.21c8.95,11.57,9.34,24.35,5.18,37.99,9.66-10.78,19.73-20.67,32.64-27.09.08.07.17.14.25.21-.9,1.73-1.81,3.45-2.68,5.2-.8,1.61-1.74,3.15-2.49,4.8-.7,1.54-1.6,2.99-2.41,4.47-1.51,2.78-2.98,5.58-4.55,8.32-1.82,3.19-3.88,6.24-6.27,9-2.35,2.71-4.92,5.25-7.84,7.43-2.31,1.72-4.73,3.19-7.35,4.22-3.45,1.36-7.09,2.03-10.85,1.51-.3-.04-.41-.1-.55-.44-1.96-4.84-2.18-9.91-1.86-15.01.34-5.31,1.56-10.46,3.15-15.54,1.24-3.95,2.46-7.91,3.54-11.91,1.15-4.29,1.92-8.67,2.09-13.17Z" class="cls-3"/><path d="M69.16,262.99c-2.79-9.1-3.55-18.22-.51-27.37,1.27-3.82,3.08-7.41,5.89-10.58.21,2.25.3,4.34.62,6.4.54,3.47,1.26,6.91,2.33,10.27,2.02,6.31,4.16,12.62,5.22,19.17.77,4.78.97,9.65.19,14.52-.31,1.91-1.17,3.6-1.51,5.47-.09.51-.42.36-.7.4-2.89.37-5.68-.06-8.49-.76-1.94-.48-3.82-1.24-5.45-2.21-4.12-2.47-7.85-5.5-11.02-9.19-2.08-2.43-4.03-4.95-5.75-7.61-1.26-1.94-2.41-3.97-3.51-6.02-1.01-1.88-2.02-3.76-3.04-5.63-1.21-2.2-2.29-4.48-3.53-6.67-1.16-2.06-2.19-4.19-3.27-6.29-.09-.17-.12-.36-.26-.79,6.71,2.99,12.3,7.29,17.69,11.86,5.42,4.6,10.37,9.69,15.09,15.05Z" class="cls-3"/><path d="M304.6,193.69c10.6,8.56,14.18,19.96,13.96,33.06,3.15-5.81,6.38-11.57,10.28-16.91,3.91-5.36,8.25-10.34,13.75-14.72-1.05,2.67-1.29,5.18-1.99,7.59-1.13,3.86-1.94,7.81-2.93,11.71-.83,3.29-1.75,6.56-2.95,9.73-.71,1.87-1.55,3.71-2.49,5.5-1.86,3.54-4.03,6.83-6.82,9.72-3.23,3.34-6.99,5.69-11.58,6.64-.95.2-1.67.6-2.54-.63-1.76-2.49-3.18-5.12-4.05-7.99-1.72-5.67-2.31-11.52-2.12-17.43.09-2.88.14-5.76.43-8.62.23-2.28.24-4.54.18-6.81-.08-3.38-.6-6.72-1.13-10.05-.03-.22,0-.45,0-.77Z" class="cls-3"/><path d="M54.39,226.72c-.17-13.06,3.43-24.43,14.04-33.09-.28,2.07-.56,3.96-.78,5.85-.44,3.81-.49,7.61-.25,11.45.28,4.46.58,8.92.43,13.4-.13,3.96-.73,7.84-1.64,11.65-.76,3.18-2.3,6.1-4.09,8.89-.98,1.54-2.04,1.4-3.51,1.04-3.24-.8-6.2-2.21-8.69-4.33-1.99-1.69-3.84-3.6-5.37-5.81-1.48-2.14-2.9-4.32-4.06-6.64-1.75-3.5-3.13-7.15-4.14-10.93-.97-3.62-1.98-7.22-2.79-10.88-.72-3.27-1.89-6.44-2.35-9.78-.1-.72-.46-1.4-.61-2.15,5.26,4.1,9.62,9.03,13.51,14.39,3.89,5.36,7.17,11.09,10.29,16.93Z" class="cls-3"/><path d="M81.6,314.15c16.09-.74,31.42,2.73,46.82,7.49-.85-1.33-2.02-2.03-2.91-2.97-1.5-1.57-3.03-3.08-4.38-4.79-1.31-1.67-2.57-3.35-3.68-5.17-1.78-2.91-3.29-5.94-4.25-9.21-.5-1.7-1.1-3.37-1.36-5.13-.57-3.84-.63-7.69-.18-11.71,1.34,1.3,2.09,2.88,3.15,4.21,1.89,2.37,3.81,4.7,5.95,6.86,1.44,1.45,2.92,2.88,4.44,4.23,2.29,2.05,4.64,4.06,6.9,6.15,2.89,2.68,5.62,5.53,8.12,8.59,2.29,2.8,4.25,5.79,5.9,8.99.6,1.15.99,2.41,1.45,3.63.14.36.04.54-.42.6-1.66.24-3.31.26-4.96.01-.69-.1-1.29.25-1.97.24-2.9-.03-5.8-.11-8.71.05-2.34.13-4.69.08-7.03.17-2.87.11-5.75.1-8.61.28-3.84.23-7.69.39-11.51.9-.61.08-1.19,0-1.8-.37-3.8-2.26-7.51-4.66-11.29-6.95-3.04-1.84-6.03-3.76-9.05-5.62-.22-.14-.42-.31-.63-.47Z" class="cls-3"/><path d="M261.28,282.66c1.06,7.56-.13,14.75-3.29,21.59-3.12,6.74-7.8,12.32-13.35,17.25,7.56-2.34,15.17-4.26,22.91-5.65,7.84-1.41,15.74-2.32,24.03-1.87-1.35.93-2.47,1.77-3.64,2.5-2.4,1.5-4.85,2.93-7.26,4.42-2.78,1.71-5.55,3.44-8.31,5.19-.72.45-1.52.41-2.2.25-.96-.23-1.89-.13-2.84-.19-4.4-.29-8.81-.24-13.22-.24-8.94,0-17.87,0-26.81,0-2.21,0-2.11.04-1.33-2.03,1.4-3.7,3.47-7.02,5.88-10.09,3.1-3.94,6.61-7.53,10.36-10.89,2.73-2.45,5.47-4.88,8.17-7.37,3.18-2.94,5.95-6.2,8.55-9.64.79-1.04,1.25-2.3,2.37-3.22Z" class="cls-3"/><path d="M303.4,162.63c11.41,5.21,16.76,14.89,20.08,26.23.25.09.31-.21.37-.41.87-3.15,1.69-6.33,2.77-9.42.82-2.34,1.66-4.68,2.56-6.99.71-1.83,1.55-3.62,2.43-5.38,1.36-2.74,2.85-5.39,4.59-7.9.63-.91,1.26-1.82,2.09-2.62.29.16.1.52.1.79.01,8.12.08,16.23-.27,24.34-.13,3.01-.82,5.97-1.53,8.9-1.21,4.98-3.3,9.51-6.53,13.54-2.06,2.57-4.42,4.78-6.97,6.83-.54.43-.81.42-1.4-.18-2.46-2.5-4.45-5.35-6.24-8.33-2.75-4.59-4.51-9.6-5.62-14.84-.33-1.58-.7-3.16-.99-4.76-.68-3.69-1.34-7.39-2.38-11-.74-2.57-1.64-5.09-2.81-7.5-.16-.34-.43-.68-.25-1.3Z" class="cls-3"/><path d="M69.61,162.77c-.54,1.92-1.34,3.71-2.05,5.52-1.02,2.6-1.62,5.29-2.21,7.97-.94,4.28-1.48,8.66-2.68,12.89-1.12,3.93-2.34,7.8-4.42,11.42-2.07,3.62-4.38,6.99-7.16,10.07-.25.27-.42.38-.78.1-1.96-1.52-3.78-3.18-5.53-4.95-1.46-1.48-2.64-3.12-3.81-4.8-1.69-2.43-2.86-5.11-3.74-7.9-1.4-4.44-2.25-8.97-2.43-13.64-.28-7.24-.16-14.47-.23-21.71,0-.54,0-1.08,0-1.87,4.01,4.94,6.73,10.28,9.08,15.87,2.34,5.57,3.97,11.35,5.73,17.16,3.37-11.35,8.78-21.07,20.23-26.14Z" class="cls-3"/><path d="M296.69,133.63c2.47.54,4.64,1.75,6.84,2.96,2.07,1.14,3.93,2.53,5.68,4.06,2.25,1.98,4.2,4.25,5.94,6.71,1.96,2.79,3.38,5.86,5.07,8.87.04-6.06.29-12.08,1.07-18.09.78-6.02,2.13-11.87,4.28-17.81.92,3.75,1.79,7.29,2.66,10.83.89,3.6,1.87,7.19,2.63,10.82,1.06,5.04,1.61,10.13,1.11,15.3-.3,3.09-.83,6.08-1.96,9-1.36,3.5-3.58,6.32-6.29,8.81-.59.54-1.19.23-1.73-.11-2.3-1.46-4.57-3.02-6.4-5.03-1.55-1.7-3.06-3.49-4.18-5.56-.5-.93-1.12-1.81-1.66-2.72-1.8-3.04-3.17-6.29-4.44-9.56-.77-1.97-1.55-3.94-2.29-5.93-.73-1.97-1.67-3.89-2.67-5.78-1.19-2.26-2.72-4.32-3.91-6.57.08-.07.16-.13.24-.2Z" class="cls-3"/><path d="M52.78,156c1.37-2.02,2.23-4.2,3.46-6.18.92-1.48,1.89-2.93,2.95-4.31,2.47-3.18,5.43-5.86,8.76-8.09,2.29-1.54,4.82-2.65,7.39-3.67.3-.12.77-.25.99.1.21.33-.06.68-.27.98-2.8,3.9-4.83,8.18-6.58,12.63-1.44,3.67-2.85,7.36-4.58,10.92-1.59,3.29-3.41,6.41-5.62,9.3-2.06,2.71-4.59,4.95-7.5,6.74-.2.12-.42.23-.59.38-.82.76-1.54.66-2.35-.08-3.13-2.85-5.34-6.28-6.56-10.31-1.43-4.74-1.66-9.59-1.3-14.52.44-6.09,2.02-11.92,3.57-17.78.91-3.44,1.68-6.92,2.49-10.39.09-.39.19-.74.49-1.08,4.13,11.46,5.31,23.31,5.24,35.35Z" class="cls-3"/><path d="M216.08,310.63c-1.6.83-3.01,1.57-4.44,2.28-1.89.93-3.82,1.78-5.68,2.75-2.46,1.28-4.92,2.56-7.27,4.05-2.86,1.81-5.73,3.59-8.27,5.82-.58.51-1.13.71-1.82.6-1.17-.19-2.35-.12-3.51.03-1.4.19-2.46-.37-3.43-1.25-2.31-2.1-4.98-3.67-7.61-5.33-3.7-2.34-7.66-4.19-11.54-6.19-1.78-.92-3.62-1.74-5.39-2.77h58.95Z" class="cls-3"/><path d="M86.28,88.99c-1.07,1.32-1.86,2.81-2.71,4.26-1.45,2.49-2.74,5.05-3.98,7.66-1.64,3.46-2.9,7.07-4.35,10.6-1.29,3.14-2.59,6.28-4.04,9.34-1.28,2.69-2.67,5.35-4.15,7.96-1.4,2.47-2.87,4.9-4.33,7.34-1.25,2.09-2.78,4.02-4.12,6.06-1.15,1.74-2.21,3.55-3.13,5.42-.37.76-.93,1.42-1.21,2.25.15-3.58.41-7.15.42-10.73.02-3.62.76-7.1,1.6-10.57,1.01-4.19,2.63-8.14,4.64-11.97,1.66-3.17,3.6-6.13,5.81-8.91,2.14-2.7,4.54-5.19,7.08-7.53,2.11-1.94,4.09-4.03,6.18-6.01,1.96-1.85,3.98-3.64,5.97-5.46l.3.28Z" class="cls-3"/><path d="M286.97,88.72c.97.86,1.95,1.69,2.9,2.57,2.09,1.95,4.16,3.9,6.22,5.88,1.91,1.85,3.82,3.71,5.68,5.61,1.37,1.41,2.7,2.87,3.99,4.35.83.95,1.73,1.9,2.29,3,.64,1.24,1.55,2.27,2.29,3.42,1.78,2.78,3.32,5.71,4.41,8.76,2.07,5.81,3.64,11.78,3.55,18.07-.05,3.15.27,6.3.44,9.72-1.2-2.68-2.58-4.97-3.91-7.28-.76-1.33-1.8-2.49-2.64-3.78-1.4-2.14-2.73-4.33-4.09-6.49-1.49-2.38-2.81-4.84-4.14-7.29-1.45-2.7-2.7-5.52-3.97-8.32-1.01-2.23-1.92-4.49-2.84-6.76-1-2.48-1.87-5.01-2.94-7.45-1.63-3.72-3.44-7.35-5.62-10.8-.62-.98-1.29-1.95-1.87-2.97.08-.08.17-.16.25-.24Z" class="cls-3"/><path d="M77.73,396.3c-2.43-1.67-5.01-2.22-7.71-2.53-3.89-.45-7.7.18-11.54.45-2.56.18-5.09.52-7.61.88-3.21.46-6.39,1.13-9.58,1.7-2.85.51-5.69,1.14-8.63.85-.66-.06-1.17-.24-1.35-.88-.2-.69-.1-1.37.58-1.78.83-.5,1.67-.97,2.53-1.41,2.14-1.1,4.32-2.12,6.44-3.26,4.48-2.43,9.29-4.09,14.03-5.9,4.79-1.83,9.75-3.12,14.71-4.37,2.14-.54,4.29-1.07,6.45-1.55.94-.21,1,.55,1.08,1.2.33,2.59.03,5.2.18,7.79.15,2.47.43,4.93.68,7.39.05.52-.35.83-.26,1.41Z" class="cls-3"/><path d="M340.54,394.48c-3.27-.37-6.47.12-9.66.77-1.33.27-2.58.87-3.74,1.56-.75.44-.77.06-.72-.41.25-2.11.35-4.24.59-6.34.13-1.13.13-2.27.3-3.4.28-1.88.22-3.81.29-5.72.06-1.58.24-1.66,1.75-1.28,3.05.77,6.14,1.37,9.17,2.2,3.4.94,6.78,1.95,10.1,3.13,3.21,1.14,6.31,2.57,9.48,3.79,2.48.95,4.9,2.07,7.14,3.43,2.26,1.37,4.78,2.23,6.96,3.75.58.41.86.83.69,1.46-.15.59-.45.99-1.18,1.22-1.41.44-2.75.05-4.09-.1-2.38-.27-4.75-.72-7.11-1.16-1.83-.34-3.64-.84-5.47-1.17-2.11-.38-4.24-.7-6.37-.95-2.71-.31-5.42-.52-8.13-.78Z" class="cls-3"/><path d="M232.04,302.39c-.42,4.34-1.65,8.3-3.47,12.12-1.86,3.89-4.41,7.27-7.26,10.45-.88.99-1.95,1.32-3.27.98-.5-.13-1.07.03-1.6.03-2.54-.02-5.08-.22-7.61-.04-5.15.36-10.29.04-15.67.25,1.27-1.13,2.52-1.89,3.74-2.72,2.58-1.76,5.24-3.39,8.01-4.8,2.6-1.32,5.22-2.61,7.84-3.88,3.68-1.79,7.36-3.6,10.8-5.88,2.96-1.96,5.7-4.18,8.5-6.52Z" class="cls-3"/><path d="M140.98,302.44c1.62,1.59,3.36,2.89,5.07,4.17,3.31,2.49,6.86,4.66,10.58,6.46,3.01,1.46,6.03,2.91,9.04,4.37,2.87,1.38,5.62,2.99,8.34,4.63,1.66,1,3.22,2.14,4.81,3.25.16.11.58.23.32.61-.19.28-.51.3-.74.14-.41-.28-.85-.15-1.27-.16-7.83-.01-15.66-.01-23.5,0-.63,0-1.12-.12-1.57-.61-2.07-2.23-4.01-4.54-5.63-7.14-1.93-3.11-3.32-6.43-4.46-9.88-.63-1.91-.58-3.92-.98-5.86Z" class="cls-3"/><path d="M252.2,317.01c1.7-1.98,3.21-3.96,4.58-6.03.58-.88,1.47-.26,2.2-.44.62-.16.55.45.65.78.19.62.56,1.09,1.13,1.32,1.36.54,2.65,1.29,4.19,1.42-4.26.77-8.4,2.04-12.75,2.96Z" class="cls-1"/><path d="M120.82,317.01c-4.4-.83-8.41-2.27-12.64-2.89,1.38-.3,2.6-.88,3.85-1.4.65-.27,1.15-.69,1.38-1.4.11-.33.02-.91.65-.76.72.16,1.56-.43,2.17.48,1.37,2.04,2.78,4.06,4.59,5.97Z" class="cls-1"/><path d="M88.08,289.43c-3.51-2.04-6.67-3.9-10.23-5.69,1.29-.12,2.28-.22,3.28-.31,1.39-.12,2.03-.65,2.36-1.96.12-.46.2-.94.36-1.39.15-.44.36-.86.62-1.47.97,3.67,2,7.17,3.61,10.82Z" class="cls-1"/><path d="M288.55,278.43c.37,1.23.7,2.12.91,3.04.28,1.22,1.03,1.85,2.24,1.96,1.03.1,2.07.18,3.37.29-3.46,1.87-6.72,3.64-10.17,5.74,1.56-3.63,2.62-7.15,3.65-11.02Z" class="cls-1"/><path d="M318.72,210.57c1.53,1.53,2.76,3.68,5.67,1.77-1.44,2.36-2.65,4.35-3.96,6.5-.4-2.91-1.03-5.56-1.71-8.27Z" class="cls-1"/><path d="M49.01,212.61c.59.22,1.17.51,1.79.65,1.05.23,1.9-.12,2.31-1.17.24-.6.47-1.17,1.29-1.67-.73,2.85-1.58,5.47-1.79,8.48-1.36-2.2-2.57-4.17-3.78-6.14.07-.04.13-.09.18-.15Z" class="cls-1"/><path d="M253.58,288.97c-.41-1.07-.78-1.88.58-2.48,1.02-.45.98-1.63.98-2.65,0-2.21.02-2.21,2.17-1.79.39.08.77.17,1.27.29-1.45,2.37-3.07,4.57-5.01,6.64Z" class="cls-1"/><path d="M65,254.46c-1.07-1.88-1.87-3.66-2.65-5.45-.14-.33-.31-.66.04-.98.83-.78,1.22-1.91,2.2-2.73-.07,3.02-.06,5.98.41,9.16Z" class="cls-1"/><path d="M109.08,288.58c-.81-2.11-2.27-3.87-3.08-6.09,1.01,0,1.92.02,2.83,0,.45-.01.69.12.6.61-.32,1.8-.18,3.63-.35,5.48Z" class="cls-1"/><path d="M308.12,253.39c.32-2.64.33-5.28.25-8.05,1.01.76,1.37,1.9,2.17,2.67.29.28.07.6-.05.88-.68,1.52-1.37,3.03-2.06,4.55-.1-.02-.21-.04-.31-.06Z" class="cls-1"/><path d="M263.89,288.57c-.15-1.85-.05-3.66-.34-5.46-.03-.18-.1-.51.12-.52,1.03-.06,2.06-.07,3.08-.03.19,0,.12.34.04.51-.92,1.86-2.07,3.59-2.9,5.51Z" class="cls-1"/><path d="M114.39,282.31c.28-.07.44-.1.59-.14,1.72-.43,1.68-.43,1.93,1.24.21,1.38.45,2.73,1.95,3.47.73.36-.12.77-.14,1.35-1.66-1.93-3.08-3.77-4.34-5.93Z" class="cls-1"/><path d="M324.64,177c.15,1.65-.7,3.02-1.17,4.6-.88-1.46-1.46-2.89-2.05-4.4,1.1.25,2.23.76,3.23-.19h0Z" class="cls-1"/><path d="M48.26,177.13c.98.56,2.03.49,3.13.14-.39,1.6-1.09,2.9-1.84,4.26-.65-1.46-1.2-2.87-1.26-4.43l-.02.03Z" class="cls-1"/><path d="M315.49,247.98c-.9.83-1.64,1.52-2.58,2.39.4-1.44.76-2.52,2.58-2.39Z" class="cls-1"/><path d="M57.57,247.96c1.28-.02,1.88.47,1.93,1.68-.8-.38-1.29-.99-1.93-1.68Z" class="cls-1"/><path d="M258.4,308.32c.07-.45.35-.77.68-1.2,0,.35,0,.61,0,.87,0,.54-.36.39-.68.33Z" class="cls-1"/><path d="M67.44,178.5c-.1.17-.14.37-.25.41-.2.07-.2-.15-.18-.26.03-.13.13-.25.2-.37.07.07.15.14.24.22Z" class="cls-3"/><path d="M296.44,133.83c-.05-.11-.33-.17-.14-.33.12-.1.3-.05.38.13-.08.07-.16.13-.24.2Z" class="cls-3"/><path d="M307.83,136.3c-.04-.07.04.03.05.13,0,.04,0,.26-.18.16-.1-.05-.18-.13-.26-.19.07-.06.04-.25.39-.1Z" class="cls-3"/><polygon points="308.05 254.07 308 254.17 308.06 254.18 308.05 254.07" class="cls-1"/><path d="M59.73,249.94s-.05.05-.08.07c-.02-.03-.06-.06-.06-.09,0-.03.05-.05.07-.07.02.03.04.06.06.09Z" class="cls-1"/><path d="M53.05,276.72c-.1-.03-.22-.06-.13-.18.02-.04.18.02.27.03-.04.06-.09.11-.14.16Z" class="cls-3"/><path d="M48.83,212.76c-.02-.09-.08-.25-.04-.27.11-.08.19.01.23.13-.06.06-.12.1-.18.15Z" class="cls-1"/><path d="M324.65,177.01c.06.02.12.04.19.06-.12.17-.14,0-.19-.06,0,0,0,0,0,0Z" class="cls-1"/><path d="M48.28,177.1c-.06.1-.13.1-.17,0-.01-.03,0-.07.01-.11.05.05.09.1.14.15,0,0,.02-.03.02-.03Z" class="cls-1"/><path d="M307.05,161.42c.1.1.2.23.06.35-.04.04-.18-.04-.28-.07.07-.09.15-.19.22-.28Z" class="cls-3"/><path d="M66.14,161.71c-.12.04-.25.2-.34-.02-.02-.05.1-.15.16-.23.06.08.12.17.18.25Z" class="cls-3"/><path d="M233.59,308.21l-.23.09c.02-.08.05-.17.07-.25.05.05.11.11.16.16Z" class="cls-1"/><polygon points="92.82 259.51 92.84 259.6 92.77 259.59 92.82 259.51" class="cls-1"/><path d="M139.55,308.05c.02.09.05.17.07.26-.07-.04-.15-.07-.22-.11.05-.05.1-.1.15-.15Z" class="cls-1"/><path d="M208.35,149.49c0,32.19,0,64.39,0,96.58,0,3.45-.05,2.8-2.75,2.81-13.04.03-26.07.01-39.11.01-2.68,0-2.69,0-2.69-2.74,0-48.51,0-97.02,0-145.54,0-16,0-31.99,0-47.99,0-3.59.24-2.85,2.87-2.88,5.04-.05,10.08-.02,15.12-.01,2.29,0,2.3.02,2.3,2.32,0,64.11,0,128.22,0,192.33,0,.84.04,1.68.01,2.52-.04,1.12.57,1.46,1.57,1.45.97,0,1.76-.17,1.73-1.41-.02-.68.03-1.36.03-2.04,0-64.03,0-128.06.01-192.09,0-3.23-.65-3.07,3.08-3.08,5.08-.02,10.16,0,15.24,0,2.46,0,2.59.14,2.59,2.56,0,32.39,0,64.79,0,97.18ZM189.85,149.28c0,31.99,0,63.97-.02,95.96,0,.97.2,1.27,1.22,1.26,4.56-.06,9.12-.06,13.67,0,1.02.01,1.22-.27,1.22-1.25-.03-63.93-.03-127.87,0-191.8,0-1.06-.28-1.37-1.34-1.36-4.4.05-8.8.02-13.19.02q-1.56,0-1.56,1.56c0,31.87,0,63.73,0,95.6ZM181.68,149.47c0-31.11,0-62.23,0-93.34,0-.96-.03-1.92,0-2.88.03-.8-.22-1.16-1.08-1.15-4.48.03-8.96.03-13.44,0-.73,0-1.03.3-1.05.97-.01.52,0,1.04,0,1.56,0,50.03,0,100.06,0,150.09,0,13.44.01,26.87-.02,40.31,0,1.16.32,1.48,1.47,1.46,4.24-.07,8.48-.07,12.72,0,1.14.02,1.43-.23,1.43-1.41-.04-31.87-.03-63.75-.03-95.62Z" class="cls-2"/><path d="M231.54,149.23c0,32.35,0,64.7,0,97.05,0,2.74-.1,2.95-2.81,2.74-5-.39-9.99.24-14.98-.11-1.87-.13-1.99-.15-1.99-2.1-.01-6.88,0-13.76,0-20.63,0-58.14,0-116.28-.01-174.42,0-1.98,0-2.01,1.99-2.01,5.48-.01,10.96.02,16.43-.03,1.1-.01,1.41.28,1.4,1.39-.04,15.75-.02,31.51-.02,47.26,0,16.95,0,33.91,0,50.86ZM229.18,149.26c0-9.56,0-19.11,0-28.67,0-22.35-.01-44.7.03-67.06,0-1.26-.36-1.48-1.51-1.45-3.92.07-7.84.03-11.76.03q-1.85,0-1.85,1.79c0,63.62,0,127.23,0,190.85,0,.28.01.56,0,.84-.03.67.27.87.93.89,1.38.05,2.76.07,4.15.01,2.75-.11,5.52-.04,8.28-.03,1.73,0,1.73,0,1.73-1.72,0-31.83,0-63.66,0-95.49Z" class="cls-2"/><path d="M160.49,149.08c0,29.43,0,58.87,0,88.3,0,3.24.02,6.48,0,9.72-.01,1.58-.18,1.73-1.7,1.81-5.04.25-10.07-.12-15.11,0-.96.02-1.39-.43-1.4-1.36-.01-1.44-.06-2.88-.06-4.32,0-19.08.01-38.15.01-57.23,0-23.07-.03-46.15-.03-69.22,0-21.43.02-42.87.04-64.3,0-2.71,0-2.72,2.68-2.72,4.72,0,9.44.04,14.16-.03,1.16-.02,1.46.33,1.46,1.47-.03,32.63-.02,65.26-.02,97.9ZM158.15,149.4c0-10.04,0-20.08,0-30.12,0-21.96-.01-43.91.03-65.87,0-1.15-.35-1.35-1.39-1.33-3.4.06-6.8.02-10.2.02q-2.07,0-2.07,2.03c0,51.03,0,102.07,0,153.1,0,12.64.01,25.28-.02,37.91,0,1.04.27,1.37,1.34,1.35,3.64-.07,7.28-.08,10.92,0,1.2.03,1.42-.34,1.42-1.47-.03-31.88-.03-63.75-.03-95.63Z" class="cls-2"/><path d="M219,276.89c-9.04,0-18.07,0-27.11-.01-.65,0-1.6.28-1.84-.43-.24-.68.72-.92,1.2-1.28,5-3.75,4.98-11.65-.05-15.38-.48-.35-1.44-.56-1.21-1.27.21-.68,1.12-.39,1.72-.39,13.91-.02,27.82,0,41.74-.03,1.13,0,1.76.29,2.03,1.48,1.49,6.66,5.65,11.42,11.03,15.29.45.33.93.62,1.38.96.21.16.49.36.37.68-.11.3-.43.33-.71.35-.48.03-.96.04-1.44.04-9.04,0-18.07,0-27.11,0ZM195.61,260.41c1.69,2.23,1.69,4.6,1.72,7.01.03,2.46-.13,4.84-1.61,7.1.41,0,.6,0,.79,0,14.03,0,28.07,0,42.1,0,.2,0,.4,0,.6-.01.14-.01.39,0,.34-.21-.16-.66.26-1.32-.36-2.01-2.88-3.17-5.07-6.76-6.03-10.99-.15-.67-.45-.91-1.13-.91-12.03.01-24.07.01-36.42.01Z" class="cls-2"/><path d="M153.89,276.9c-9.03,0-18.07,0-27.1-.01-.72,0-1.78.33-2.04-.5-.24-.79.84-1.02,1.39-1.4,5.56-3.83,9.64-8.72,11.19-15.44.25-1.09.91-1.4,1.89-1.4,2.88-.01,5.76-.05,8.63-.05,10.99,0,21.99.01,32.98.04.65,0,1.59-.29,1.84.42.24.69-.73.93-1.21,1.28-5.04,3.68-4.97,11.68.13,15.46.48.36,1.42.58,1.18,1.3-.2.58-1.08.3-1.65.3-9.07.02-18.15.01-27.22.01h0ZM176.83,260.42c-11.94,0-23.77,0-35.6,0-.12,0-.24,0-.36,0-.67.07-1.05.28-1.25,1.1-.73,2.92-1.96,5.62-3.77,8.07-1.28,1.72-2.79,3.22-4.39,4.85h45.42c-2.01-4.38-2.02-8.69-.04-14.03Z" class="cls-2"/><path d="M172.79,293.51c.07-4.41,4.28-8.66,8.52-8.61,3.18.04,5.3,2.62,5.05,5.81-.26,3.3-2.13,5.71-4.05,8.11-2.23,2.79-4.75,5.29-7.88,7.1-1.02.59-1.56.4-2.14-.62-.45-.79-.09-1.23.56-1.66,3.24-2.2,5.93-4.97,8.18-8.16.97-1.37,1.8-2.83,2.13-4.51.44-2.23-1.1-3.59-3.24-2.89-1.84.6-3.78,3.02-3.94,4.92-.1,1.1.63,1.63,1.67,1.24.15-.06.3-.12.43-.21.65-.47,1.39-.89,1.98-.06.53.75,0,1.45-.52,2.02-1.05,1.15-3.29,1.61-4.79,1.03-1.33-.52-2-1.71-1.97-3.5Z" class="cls-2"/><path d="M191.58,303.34c-1.77.11-2.94-.74-3.72-2.28-.91-1.8-.98-3.7-.62-5.6.64-3.38,2.1-6.34,4.81-8.58.87-.72,1.84-1.25,2.92-1.6,3.76-1.22,6.7.65,6.8,4.59.13,4.87-1.74,8.95-5.61,11.99-1.32,1.03-2.88,1.53-4.58,1.47ZM190.24,297.43c0,1.19-.01,2.2.97,2.75,1.01.57,2.02.3,2.95-.25.34-.2.65-.47.93-.75,1.27-1.26,2.11-2.79,2.71-4.46.5-1.39.95-2.81.91-4.3-.06-2.24-1.6-3.14-3.59-2.15-.8.4-1.46.97-2.03,1.65-1.88,2.23-2.58,4.9-2.85,7.51Z" class="cls-2"/><path d="M216.15,294.6c.06,4.92-4.8,9.26-9.59,8.57-2.22-.32-3.87-2.22-4.01-4.54-.12-1.94.37-3.75,1.34-5.38,2.4-4.01,5.57-7.27,9.7-9.53.41-.22.83-.52,1.34-.37.54.16.87.56,1.03,1.08.19.59-.14.96-.61,1.29-2.6,1.81-4.95,3.9-6.95,6.37-1.19,1.48-2.13,3.08-2.6,4.93-.25.96-.38,1.93.43,2.68.85.8,1.91.72,2.93.42,1.72-.52,3.67-3.11,3.76-4.91.05-1.02-.54-1.49-1.52-1.16-.3.1-.57.28-.86.43-.52.26-1.07.5-1.53-.01-.43-.47-.27-1.05-.05-1.58.57-1.38,2.56-2.27,4.26-1.91,1.98.41,2.9,1.55,2.92,3.64Z" class="cls-2"/><path d="M162.75,292.32c-.83.04-1.31.8-2.09,1-.72.18-1.09.03-1.09-.74,0-1.02.09-1.81,1.27-2.37,2.05-.97,3.97-2.18,5.03-4.4.52-1.09,1.6-1.41,2.39-.99.88.47,1.22,1.52.57,2.46-3.13,4.52-4.68,9.85-7.51,14.52-.28.46-.33,1.2-.96,1.27-.95.1-1.93.14-2.86-.02-.58-.1-.11-.57.06-.81,2.07-2.91,3.52-6.15,5.03-9.36.08-.17.1-.37.14-.56.05-.05.09-.1.14-.15l-.11-.02c0,.06,0,.12,0,.18Z" class="cls-2"/><path d="M206.16,354.21c-1.08.49-1.72,1.53-2.7,2.15-2.34,1.47-4.76,2.6-7.63,2.21-2.41-.32-3.16-.98-3.72-3.32-.51.33-.99.68-1.52.96-.56.29-.75.66-.77,1.31-.05,3.42-1.12,6.5-3.23,9.2-.41.53-.9,1.02-1.43,1.44-1.17.94-2.52,1.15-3.44.54-1.19-.8-1.41-2.02-1.15-3.29.32-1.6.74-3.19,1.22-4.75.57-1.87,1.23-3.71,1.86-5.55.11-.33.33-.64.17-1.02-.39-.11-.58.2-.8.4-1.43,1.29-3.05,2.31-4.69,3.31-.73.45-1.5.73-2.34.85-1.34.19-1.76-.1-2.08-1.41-3.14,2.51-6.75,1.89-7.63-1.56-1.34.95-2.67,1.85-4.13,2.54-.95.44-1.91.84-2.99.7-1.2-.16-1.75-.95-1.45-2.12.23-.91.53-1.81.7-2.78-1.19.95-2.28,1.98-3.52,2.83-1.49,1.03-3.03,1.92-4.86,2.22-1.89.3-2.96-.88-2.36-2.67.74-2.19,1.83-4.24,2.76-6.36.14-.32.72-.8.08-1.1-.49-.23-1.03,0-1.35.5-.7,1.08-1.55,2.03-2.45,2.94-2.19,2.2-4.26,4.56-7.13,5.97-2.03,1-4.1,1.48-6.37,1.01-1.64-.34-2.62-1.25-2.79-3.13-1.49,1.33-3,2.33-4.66,3.09-.8.37-1.6.71-2.51.68-.41-.01-.94,0-1.12-.31-.91-1.57-1.85-.66-2.83-.14-.79.41-1.66.57-2.54.6-1.7.06-2.7-.56-3.14-2.17-.24-.86-.46-.72-.98-.29-1.81,1.51-3.85,2.53-6.2,2.9-1.14.18-2.22,0-3.31-.29-1.41-.38-2-1.45-2.23-2.92-1.49,1.17-2.89,2.21-4.45,3-.81.4-1.65.61-2.52.68-1.5.13-2.15-.65-1.8-2.12.12-.5.27-1,.4-1.5.13-.12.2-.3.09-.41-.16-.16-.23.08-.33.16-.43.26-.69,1.04-1.21.79-.43-.21-.23-.95-.31-1.46-.13-.88.25-1.51.85-2.11,1.05-1.04,2.03-2.14,3.04-3.23.3-.32.73-.64.81-1.03.55-2.54,2.46-2.18,4.34-2.11-1.1,2.73-2.19,5.42-3.25,8.12-.14.36-.61.84-.14,1.17.33.22.73-.19,1.05-.41.52-.37,1.03-.76,1.54-1.15.96-.73,1.62-1.58,1.98-2.84.9-3.18,5.51-6.16,8.81-5.88,1.06.09,2.11.38,2.55,1.48.54,1.33.47,2.7-.43,3.86-1.56,2-3.65,3.17-6.1,3.73-.5.12-1.34-.04-1.35.62-.01.65.8.78,1.37.95.56.17,1.13.05,1.65-.13,1.94-.68,3.68-1.72,5.24-3.05.33-.28.45-.62.53-1.03.7-3.94,3.79-6.57,7.81-6.49,1.1.02,1.43-.31,1.71-1.33.96-3.6,2.35-7.03,4.55-10.09.44-.62.9-1.23,1.5-1.71,1.21-.97,2.03-.74,2.49.73.67,2.12.5,4.27.1,6.4-.98,5.21-3.37,9.77-6.55,13.95-.15.19-.32.36-.45.56-.21.33-.49.67-.16,1.08.35.44.79.3,1.2.15.26-.09.48-.28.71-.44.83-.62,1.65-1.27,2.48-1.88.9-.67,1.56-1.38,1.91-2.58.96-3.37,5.88-6.3,9.32-5.76,2.23.35,3.21,2.83,1.85,4.96-1.35,2.13-3.5,3.2-5.85,3.89-.42.12-.86.17-1.3.23-.28.04-.59.07-.63.42-.04.33.23.5.47.64.88.53,1.78.52,2.76.22,3.36-1.06,5.73-3.36,7.82-6.04.44-.57.84-1.17,1.25-1.76.43-.61.83-1.12.32-2.01-.56-.99.24-2.48,1.21-2.73,1.42-.37,2.36.16,2.64,1.61.15.78.49.9,1.15.71,1.04-.3,2.01-.2,2.73.67.72.86.46,1.8.04,2.71-.7,1.52-1.44,3.02-2.13,4.55-.18.39-.7.88-.27,1.23.42.35.87-.19,1.27-.43,2.36-1.41,4.19-3.42,6.07-5.38,1.33-1.39,2.26-2.96,2.82-4.79.22-.73.22-1.03-.64-.97-.66.04-1.46.2-1.35-.93.09-.93.26-1.74,1.47-1.79,1.87-.07,1.84-.11,2.42-1.96.53-1.67,1.07-3.36,2.32-4.67.47-.49.99-1.07,1.75-.67.77.41.72,1.16.57,1.9-.37,1.8-1.2,3.45-1.79,5.16.2.28.46.2.68.18.76-.06,1.42.05,1.36,1.01-.05.86-.19,1.76-1.41,1.61-1.22-.15-1.81.37-2.23,1.54-1.05,2.92-2.27,5.78-3.41,8.68-.14.37-.26.76-.3,1.15-.05.47.19.72.65.45,1.77-1.05,3.63-2,4.44-4.11,1.21-3.17,4.02-4.41,6.89-5.45,1.74-.63,3.61-.6,5.45-.38.44.05.81.15.8.68-.02.74.43,1.5-.02,2.2-.14.22-.52,0-.78-.08-2.82-.85-6.48.35-8.28,2.68-.92,1.18-.92,2.52-.76,3.88.09.8.67.93,1.34.67.83-.32,1.54-.87,2.13-1.52.54-.59,1.18-1.17,1.46-1.88.87-2.19,2.38-2.82,4.58-2.06-.4,1.36-1.22,2.64-1.8,4.03-.13.31-.48.7-.19.99.31.31.66-.08.93-.26,2.68-1.77,5.06-3.91,7.24-6.25,1-1.07,1.34-2.52,1.84-3.86,1.27-3.35,2.13-6.85,3.57-10.15.29-.66.6-1.3,1.16-1.79.45-.4.98-.59,1.55-.39.63.22.71.8.73,1.38.03,1.22-.29,2.37-.67,3.51-.66,1.97-1.4,3.9-2.26,5.79-3.16,6.9-5.21,14.21-7.81,21.32-.07.18-.1.39-.12.58-.02.23-.09.52.15.65.27.15.44-.12.59-.28.62-.69,1.05-1.5,1.42-2.35.84-1.94,1.53-3.94,1.73-6.06.1-1.03.41-1.93,1.43-2.45.42-.21.75-.59,1.13-.88,1.1-.85,1.98-1.76,2.52-3.18,1.2-3.17,5.93-5.62,9.28-5.09,2.44.39,3.29,3.24,1.52,5.36-1.65,1.98-3.86,3.05-6.38,3.48-.2.03-.4.02-.6.05-.27.05-.63.08-.71.36-.11.36.23.58.5.74.7.42,1.44.64,2.28.39,2.33-.69,4.24-2.01,6.21-3.42,4.29-3.05,5.25-7.81,6.99-12.21.82-2.07,1.6-4.16,2.39-6.25.17-.46.39-.88.79-1.17.44-.33.95-.46,1.47-.23.54.24.71.72.69,1.28-.07,1.85-.55,3.62-1.16,5.36-1.29,3.7-3.42,7.02-4.72,10.71-.46,1.32-.93,2.63-1.33,3.96-.1.34-.38.82,0,1.12.41.32.73-.13,1.04-.34,1.02-.71,2.02-1.43,3.01-2.17.47-.35.67-.28.78.3.21,1.09.07,2.09-.76,2.87-1.58,1.48-3.49,2.41-5.55,2.95-2.04.54-2.96-.49-2.43-2.54.14-.54.29-1.08.43-1.61.06-.11.1-.22-.04-.3,0,0-.09.11-.13.17ZM116.42,354.79c.05.3.1.82.25,1.32.15.52.46.93,1.06,1,1,.11,3.13-1.49,3.17-2.49.07-1.53.31-3.01.72-4.48.18-.66-.09-.77-.65-.7-2.34.27-4.57,2.78-4.54,5.35ZM129.25,337.05c-2.34,4.12-3.78,8.56-4.57,13.22,2.57-4.04,3.96-8.49,4.57-13.22ZM133.52,352.86c1.97-.38,3.52-.97,4.79-2.18.43-.41.7-.93.32-1.49-.37-.55-.94-.51-1.5-.28-1.71.71-2.75,2.05-3.62,3.94ZM103.97,354c2.02-.48,3.61-1.07,4.82-2.36.36-.38.64-.85.27-1.38-.35-.5-.9-.54-1.4-.33-1.78.73-2.86,2.1-3.7,4.08ZM195.38,351.91c2.01-.29,3.53-.89,4.82-2,.43-.37.75-.91.39-1.48-.34-.56-.92-.58-1.48-.35-1.71.69-2.82,1.96-3.74,3.83ZM184.03,353.89s-.05-.1-.08-.15c-.02.03-.07.06-.07.08.01.05.05.1.07.15.02-.03.05-.05.08-.08Z" class="cls-2"/><path d="M318.35,358.68c1.22-.76,2.44-1.52,3.65-2.29.53-.33.74-.25.8.41.12,1.35-.19,2.35-1.47,3.1-1.58.93-3.03,2.07-4.54,3.11-1.55,1.08-2.66,2.49-3.38,4.25-.57,1.41-1.29,2.74-2.25,3.93-.66.81-1.48,1.3-2.51.87-1.08-.45-.97-1.42-.79-2.37.51-2.64,2.28-4.52,3.9-6.49.43-.52.95-.97,1.22-1.81-1.37.42-2.67.69-3.98.24-1.45-.5-1.95-1.66-2.13-3.17-1.2.63-2.34,1.24-3.49,1.83-1.19.61-2.43,1.02-3.79.92-1.6-.12-2.06-.78-1.56-2.29.48-1.45,1.29-2.74,2-4.08.23-.44.61-.83.65-1.52-1.09.51-1.91,1.25-2.78,1.89-2.25,1.66-4.49,3.34-6.73,5.01-.63.47-1.34.91-2.07.36-.68-.52-.43-1.3-.19-1.99.18-.51.36-1.02.6-1.72-1.91,1.18-3.59,2.33-5.5,3.03-.98.36-1.99.59-3.05.37-1.08-.22-1.48-.83-1.17-1.91.2-.71.51-1.4.88-2.39-1.56,1.29-3.06,2.14-4.58,2.94-1.32.69-2.7,1.2-4.24,1.06-1.28-.12-1.76-.75-1.42-2.02.37-1.36,1.08-2.57,1.72-3.8.33-.63.68-1.25,1.11-2.05-.62.11-.93.39-1.25.63-2.7,2.06-5.39,4.13-8.1,6.18-.32.24-.64.48-1,.66-.45.23-.94.26-1.35-.08-.4-.34-.53-.8-.38-1.3.21-.72.45-1.43.76-2.39-.75.48-1.31.86-1.89,1.21-1.7,1.03-3.38,2.12-5.45,2.32-2.19.21-2.91-.71-2.11-2.75.17-.43.5-.81.43-1.34-.65.11-.97,1.21-1.57.78-.44-.32-.12-1.2-.13-1.83,0-.56.21-.96.64-1.33,1.24-1.07,2.43-2.19,3.63-3.31.32-.3.76-.59.87-.97.73-2.44,2.61-1.83,4.48-1.73-.77,1.55-1.52,3.03-2.25,4.52-.72,1.46-1.42,2.92-2.13,4.38.53.34.88.07,1.2-.13,2.84-1.74,5.47-3.73,7.65-6.28.1-.12.25-.23.29-.38.69-2.32,2.47-2.11,4.37-1.83-.59,1.7-1.65,3.16-2.33,4.8-.01.1-.02.2-.03.29.08-.04.17-.08.25-.12,2.09-1.38,4.18-2.78,6.28-4.15.84-.55,1.73-.99,2.8-.8,1.29.23,1.61.73,1.19,2.02-.54,1.65-1.56,3.04-2.37,4.55-.38.7-.73,1.42-1.08,2.13-.1.2-.28.45-.06.65.21.2.45.01.66-.09,1.73-.85,3.35-1.89,4.77-3.17,1.76-1.58,3.9-2.83,4.82-5.21.18-.46.6-.29.94-.29q2.81-.03,1.55,2.41c-1.01,1.95-2,3.9-2.98,5.86-.13.26-.47.59-.14.85.25.19.61,0,.87-.18,3.43-2.19,6.94-4.3,8.95-8.05.37-.7.93-.46,1.45-.44q2.26.08,1.2,2.06c-.51.95-1,1.91-1.5,2.86-.01.09-.03.19-.04.28.08-.04.17-.08.25-.12,2.18-1.39,4.36-2.79,6.54-4.18.72-.46,1.5-.72,2.37-.67,1.42.09,1.86.69,1.41,2.04-.55,1.64-1.59,3.03-2.42,4.52-.39.69-.76,1.4-1.13,2.1-.1.2-.25.47,0,.64.13.09.4.06.56-.01,1.5-.68,2.81-1.67,4.17-2.58.11-.08.19-.25.22-.39.78-3.65,3.57-4.86,6.75-5.54,1.97-.42,3.97-.34,5.96-.04.52.08.93.28.97.87.06.67.21,1.39-.25,1.96-.26.31-.67,0-.99-.09-2.72-.72-5.31-.57-7.59,1.27-1.36,1.09-1.83,2.59-1.7,4.27.1,1.31.75,1.63,1.96,1.13,1.07-.45,1.8-1.31,2.56-2.13.35-.38.69-.77,1.02-1.17q1.68-2.03,4.57-1.67c-.64,1.69-1.76,3.13-2.31,4.82-.1.1-.19.23-.04.34.04.03.17-.06.26-.1Z" class="cls-2"/><path d="M237.99,350.07c3.89-5.09,8.21-9.79,12.79-14.26.89-.87,1.88-1.48,3.1-1.69,1.51-.26,2.43.63,2.17,2.14-.23,1.31-.83,2.48-1.54,3.61-2.8,4.45-5.57,8.93-7.34,13.93-.49,1.4-.94,2.8-.95,4.3,0,.6-.17.99-.9.93-.39-.03-.79.11-1.19.13-1.25.06-1.44-.2-1.32-1.44.42-4.27,2.3-8.01,4.28-11.71.67-1.26,1.39-2.5,2.09-3.75.14-.12.36-.3.2-.44-.22-.18-.27.15-.39.26-3.28,3.35-6.12,7.06-9.02,10.72-1.22,1.53-2.45,3.05-3.69,4.57-.25.31-.51.62-.82.87-.67.52-1.41.77-2.22.3-.77-.45-.72-1.2-.6-1.92.46-2.88,1.18-5.7,1.99-8.49.56-1.94,1.11-3.89,1.69-5.94-.6.2-.65.66-.82,1-2.22,4.42-4.75,8.67-7.28,12.92-1.29,2.17-2.74,3.65-5.48,2.96-.32-.08-.68-.04-1.1-.07,4.81-5.02,7.82-11.07,11.15-16.91,1.22-2.15,2.38-4.33,3.56-6.51.23-.43.48-.83.83-1.16.71-.68,1.48-1.1,2.48-.64,1.04.48,1.5,1.31,1.33,2.42-.35,2.37-1.01,4.67-1.58,7-.54,2.21-1.09,4.41-1.64,6.61-.14.17-.24.34-.06.55.1-.1.19-.2.29-.3Z" class="cls-2"/><path d="M78.51,358.51c3.87.22,7.46-.5,11.04-1.32.03,3.38-.15,3.65-3.34,4.04-3.61.44-7.23.7-10.86.21-.48-.07-.85.19-1.25.32-1.54.5-3.08.86-4.69.38-.94-.28-1.67-.79-1.68-1.9-.01-1.07.71-1.53,1.59-1.85,1.39-.51,2.84-.47,4.27-.34.81.07,1.24-.21,1.65-.84,1.85-2.9,2.87-6.12,3.78-9.39.84-3.01,1.9-5.93,3.66-8.53,1.32-1.95,3.08-3.24,5.53-3.28,2.9-.04,4.45,1.69,4.14,4.57-.14,1.31-.47,2.59-.93,3.83-.26.71-.56,1.41-.87,2.1q-1.55,3.39-5.21,4.03c-.24.04-.49.13-.68-.08-.24-.27-.01-.53.11-.76.92-1.81,1.86-3.62,2.76-5.44.49-1,.92-2.03,1.16-3.13.12-.55.16-1.07-.31-1.42-.52-.38-1.09-.18-1.56.15-.87.61-1.44,1.47-1.91,2.41-1.49,3.02-2.38,6.25-3.45,9.42-.78,2.3-1.52,4.61-2.92,6.83Z" class="cls-2"/><path d="M101.57,343.67c0,1.27-.97,2.27-2.26,2.3-1.01.03-1.84-.8-1.83-1.8.02-1.21,1.23-2.43,2.38-2.41,1.02.02,1.7.79,1.71,1.9Z" class="cls-2"/><path d="M260.72,344.78c-1.09,0-1.81-.72-1.81-1.78,0-1.25,1.15-2.4,2.36-2.37,1.05.03,1.75.77,1.74,1.86,0,1.2-1.11,2.3-2.29,2.29Z" class="cls-2"/><path d="M290.69,343.52c.02,1.29-.95,2.29-2.21,2.3-1.1,0-1.87-.69-1.9-1.7-.03-1.17,1.16-2.37,2.36-2.38,1.11-.01,1.73.62,1.75,1.78Z" class="cls-2"/><path d="M189.85,149.28c0-31.87,0-63.73,0-95.6q0-1.56,1.56-1.56c4.4,0,8.8.03,13.19-.02,1.05-.01,1.34.3,1.34,1.36-.03,63.93-.03,127.87,0,191.8,0,.98-.2,1.26-1.22,1.25-4.56-.06-9.12-.06-13.67,0-1.03.01-1.22-.28-1.22-1.26.03-31.99.02-63.97.02-95.96Z" class="cls-3"/><path d="M181.68,149.47c0,31.87,0,63.75.03,95.62,0,1.18-.3,1.43-1.43,1.41-4.24-.07-8.48-.07-12.72,0-1.15.02-1.47-.31-1.47-1.46.04-13.44.02-26.87.02-40.31,0-50.03,0-100.06,0-150.09,0-.52,0-1.04,0-1.56.02-.67.32-.98,1.05-.97,4.48.03,8.96.03,13.44,0,.87,0,1.12.35,1.08,1.15-.04.96,0,1.92,0,2.88,0,31.11,0,62.23,0,93.34Z" class="cls-3"/><path d="M229.18,149.26c0,31.83,0,63.66,0,95.49,0,1.73,0,1.72-1.73,1.72-2.76,0-5.52-.08-8.28.03-1.39.06-2.76.04-4.15-.01-.67-.03-.97-.23-.93-.89.01-.28,0-.56,0-.84,0-63.62,0-127.23,0-190.85q0-1.79,1.85-1.79c3.92,0,7.84.04,11.76-.03,1.15-.02,1.51.19,1.51,1.45-.05,22.35-.03,44.7-.03,67.06,0,9.56,0,19.11,0,28.67Z" class="cls-3"/><path d="M158.15,149.4c0,31.88,0,63.75.03,95.63,0,1.12-.22,1.5-1.42,1.47-3.64-.09-7.28-.07-10.92,0-1.07.02-1.35-.3-1.34-1.35.03-12.64.02-25.28.02-37.91,0-51.03,0-102.07,0-153.1q0-2.03,2.07-2.03c3.4,0,6.8.04,10.2-.02,1.04-.02,1.39.18,1.39,1.33-.04,21.96-.03,43.91-.03,65.87,0,10.04,0,20.08,0,30.12Z" class="cls-3"/><path d="M195.61,260.41c12.35,0,24.39,0,36.42-.01.68,0,.97.24,1.13.91.97,4.23,3.16,7.81,6.03,10.99.62.69.2,1.35.36,2.01.05.22-.2.2-.34.21-.2.02-.4.01-.6.01-14.03,0-28.07,0-42.1,0-.19,0-.38,0-.79,0,1.48-2.26,1.64-4.64,1.61-7.1-.03-2.41-.03-4.78-1.72-7.01Z" class="cls-3"/><path d="M176.83,260.42c-1.98,5.33-1.97,9.64.04,14.03h-45.42c1.6-1.63,3.12-3.13,4.39-4.85,1.81-2.45,3.04-5.15,3.77-8.07.21-.82.58-1.03,1.25-1.1.12-.01.24,0,.36,0,11.83,0,23.67,0,35.6,0Z" class="cls-3"/><path d="M190.24,297.43c.27-2.61.97-5.28,2.85-7.51.57-.68,1.23-1.26,2.03-1.65,2-.99,3.54-.08,3.59,2.15.04,1.5-.41,2.91-.91,4.3-.6,1.67-1.44,3.2-2.71,4.46-.28.28-.59.55-.93.75-.94.55-1.95.82-2.95.25-.98-.55-.98-1.56-.97-2.75Z" class="cls-1"/><path d="M162.75,292.32c0-.06,0-.12,0-.18l.11.02s-.09.1-.14.15c0,0,.03.02.03.02Z" class="cls-1"/><path d="M116.42,354.79c-.03-2.57,2.2-5.08,4.54-5.35.57-.07.84.04.65.7-.41,1.46-.65,2.95-.72,4.48-.04,1-2.17,2.61-3.17,2.49-.6-.07-.91-.48-1.06-1-.14-.49-.19-1.02-.25-1.32Z" class="cls-1"/><path d="M129.25,337.05c-.61,4.72-2,9.18-4.57,13.22.79-4.66,2.23-9.1,4.57-13.22Z" class="cls-1"/><path d="M133.52,352.86c.87-1.9,1.91-3.23,3.62-3.94.56-.23,1.12-.27,1.5.28.38.56.1,1.08-.32,1.49-1.27,1.21-2.83,1.8-4.79,2.18Z" class="cls-1"/><path d="M103.97,354c.84-1.97,1.91-3.35,3.7-4.08.49-.2,1.04-.17,1.4.33.38.53.09,1-.27,1.38-1.22,1.29-2.8,1.88-4.82,2.36Z" class="cls-1"/><path d="M195.38,351.91c.91-1.88,2.03-3.15,3.74-3.83.56-.23,1.14-.21,1.48.35.35.58.04,1.11-.39,1.48-1.29,1.11-2.82,1.71-4.82,2Z" class="cls-1"/><path d="M92.28,357.19c.1-.08.17-.32.33-.16.11.11.05.29-.09.41-.08-.08-.16-.16-.25-.25Z" class="cls-3"/><path d="M206.16,354.21c.05-.06.12-.17.13-.17.14.08.1.19.04.3-.06-.03-.12-.08-.17-.13Z" class="cls-3"/><path d="M184.03,353.89s-.05.06-.08.08c-.03-.05-.06-.1-.07-.15,0-.02.04-.05.07-.08.03.05.05.1.08.15Z" class="cls-3"/><path d="M267.89,352.12c-.08.04-.17.08-.25.12.01-.1.02-.2.03-.29.07.06.14.12.22.18Z" class="cls-3"/><path d="M295.47,353.3c-.08.04-.17.08-.25.12.01-.09.03-.19.04-.28.07.05.14.11.21.16Z" class="cls-3"/><path d="M318.35,358.68c-.09.04-.22.13-.26.1-.14-.11-.06-.23.04-.34.07.08.15.16.22.24Z" class="cls-3"/><path d="M237.99,350.07c-.1.1-.19.2-.29.3-.18-.2-.09-.38.06-.55.08.08.16.17.23.25Z" class="cls-3"/><path d="M248.98,342.09c.12-.12.17-.45.39-.26.16.14-.05.32-.2.44-.06-.06-.13-.12-.19-.17Z" class="cls-3"/></svg>