<?xml version="1.0" encoding="UTF-8"?>
<svg id="Ebene_1" data-name="Ebene 1" xmlns="http://www.w3.org/2000/svg" viewBox="0 0 2982.42 3016.4">
  <defs>
    <style>
      .cls-1 {
        fill: #823c41;
      }

      .cls-2, .cls-3, .cls-4 {
        fill: #fff;
      }

      .cls-3 {
        font-family: Bahnschrift, Bahnschrift;
        font-size: 200px;
        font-variation-settings: 'wght' 400, 'wdth' 100;
      }

      .cls-4 {
        font-family: Bahnschrift-SemiBold, Bahnschrift;
        font-size: 276.36px;
        font-variation-settings: 'wght' 600, 'wdth' 100;
        font-weight: 600;
      }

      .cls-5 {
        letter-spacing: -.02em;
      }
    </style>
  </defs>
  <g>
    <g>
      <path class="cls-2" d="M332.13,1261c-3.6-51.1-39.32-81.34-63.62-124.38-54.23-96.1-63.93-215.23-48.18-323.41,1.53-10.49,4.79-32.31,8.79-41.21,2.84-6.33,12.13-15.88,18.49-9.47.84.85,5.71,9.92,6.88,12.12,30.83,58.05,71.93,169.38,88.64,233.35,1.73,6.64,1.7,15.05,3.35,20.65.77,2.62,3.03,4.51,4.68,1.39.7-12.04,7.55-25.75,8.8-37.2,4.35-39.72-17.89-79.63-27.31-118.37-26.55-109.19-21.7-255.09,24.11-358.84,7.81-17.7,26.15-43.18,34.49-9.75,12.22,48.98,13.6,118.55,21.15,170.85,3.05,21.12,6.42,44.86,10.33,65.68.41,2.2.41,7.95,3.38,7.58,7.76-11.24,4.49-19.59,6.06-30.95,9.83-71.49,12.93-129.18,49.96-194.04,30.95-54.22,102.73-129.16,155.38-162.62,8.47-5.38,22.02-16.17,24.51.78,1.94,13.14-11.79,52.46-16.46,67.27-29.93,94.94-73.47,206.42-144.37,277.63-19.61,19.7-49.83,37.57-61.4,62.6-6.72,14.54-8.77,29.45-14.07,43.93-1.2,3.27-7.56,11.7-7.54,12.43.05,1.56,3,3.53,5.99,2.03,2.76-1.38,11.88-15.96,15.83-20.15,35.7-37.79,122.6-101.51,170.06-121.96,5.26-2.27,21.15-9.58,23.82-1.64,1.5,6.01-.88,11.22-2.79,16.67-36.57,104.62-113.79,192.13-201.14,256.87-11.27,8.35-35.54,20.9-42.91,31.09-14.5,20.03-21.95,83.74-24.43,109.59-.18,1.91-1.8,6.22,2.49,4.47,5.8-2.36,15.57-23.33,20.21-29.8,32.4-45.25,76.01-88.26,120.99-121.01,6.72-4.89,30.04-22.08,35.94-24.04,8.18-2.72,17.17-2.36,17.8,7.99.52,8.46-17.71,56.15-21.87,67.92-35.86,101.51-73.41,169.36-155.08,240.92-6.5,5.69-25.34,14.72-26.91,23.09-2.72,14.44,3.79,49.46,6.59,65.32,4.02,22.79,10.23,45.39,16.36,67.62,6.89-7.57,6.7-21.14,9.54-30.46,17.75-58.3,59.16-131.33,95.81-180.19,5.19-6.91,20.65-29.05,29.72-26.55,10.81,5.41,10.18,19.6,9.91,30.2-1.88,75.68-14.74,172.78-43,242.98-14.02,34.84-36.3,66.77-51.32,100.68-2.66,6.01-8.46,19.05-9.26,24.88-1.22,8.96,11.71,40.88,16.18,50.89l29.4,53.57c5.58-86.73,36.15-169.73,70.29-248.72,15.3-14.35,20.23,1.62,24.74,14.72,26.3,76.36,30.11,183.72,14.39,262.42-7.86,39.36-25.49,77.06-27.28,116.47,6.43,26.54,25.93,42.2,42.9,61.09,6.91,7.7,13.82,17.7,20.92,25.08,1.59,1.65,10.14,11.19,12.04,8.94,1.61-20.71-6.73-40.31-8.07-60.91-3.42-52.66.03-108.44,7.88-160.29,1.72-11.37.07-20.92,5.18-32.81,13.56-31.56,31.27,9.65,39.37,24.67,56.44,104.7,76.62,205.32,69.64,324.32-.65,11.15-5.12,25.8-2.11,36.11l96.11,66.91c-4.41-10.29-10.44-19.88-14.7-30.28-29.59-72.12-31.6-152.07-43.44-228.72l2.65-10.56c5.46-5.86,18.24,5.98,22.31,9.77,16.62,15.46,38.8,42.61,53.15,60.85,65.91,83.79,103.22,176.16,117.92,282.08,3.11,2.24,49.09-.66,57.12-1.16,40.61-2.5,92.6-12.6,132.13-8.09,13.65,1.56,11.11,25.93-.15,28.07-8.79,1.67-22.17-.69-31.94.06-139.16,10.69-279.62,24.24-417.79,44.21-107.17,15.49-336.46,50.67-418.17,117.83-44.52,36.59-35.19,67.41-34.98,118.86.38,91.69-.47,183.42-.06,275.08,82-49.38,183.77-67.52,277.56-83.42,257.59-43.67,521.14-49.79,781.42-52.98,305.67-3.74,619.53-3.3,923.98,24.41,130.89,11.91,356.51,35.33,469.05,98.95,3.54,2,20.18,14.96,21.95,13.03.36-6.52-1.87-12.33-2.08-18.9-3.55-107.07,2.99-214.8-.07-321.93-7.53-60.4-113.13-98.65-163.43-114.57-220.05-69.66-495.1-82.67-725.43-100.57-6.41-.5-29.57,1.76-32.1-1.89-2.01-5.04-1.16-22.43,3.05-25.2,55.49-1.71,111.28,5,167.05,7.1,24.34.91,26.99,9.37,34.53-19.51,10.17-38.91,15.28-75.66,29.58-114.42,26.09-70.67,78-143.82,130.85-197.15,10.54-10.64,31.81-36.66,38.1-8.01-12,68.96-16.1,140.13-42.55,205.56-7.92,19.58-19.4,36.18-27.48,55.5l101.12-69.86c6.36-8.52-.78-35.46-1.22-47.05-4.66-123.25,17.28-219.48,78.06-326.11,9.29-16.3,25.25-44.96,33.12-9.08,12.76,58.12,17.08,162.67,6.39,220.59-2.6,14.06-7.81,27.75-11.47,41.51,32.42-35.85,72.97-68.98,87.66-116.95-5.59-20.09-14.63-39.17-20.61-59.11-23.34-77.82-23.92-144.88-12.86-224.73,3.55-25.65,11.37-76.39,20.84-99.16,3.09-7.44,7.28-15.87,16.98-11.07,6.62,3.28,29.62,63.58,33.4,74.6,20.69,60.31,32.07,123.29,40.6,186.41l11.35-19.62c10.38-28.03,33.17-66.64,28.49-97.25-3.34-21.82-40.82-80.53-51.86-106.12-30.13-69.82-46.64-178.16-42.1-254.1.66-11.11,1.87-41.66,18.09-25.89,10.8,10.5,28.98,40.08,38.05,53.94,36.47,55.72,72.12,119.47,85.98,185.03,2.61.58,2.38-2.07,2.96-3.97,6.89-22.51,14.5-59.7,16.98-83.05,1.1-10.35,3.38-36.68,1.91-45.84-.42-2.62-1.12-5.03-2.98-7.02-82.51-59.22-132.05-141.65-169.23-234.77-8.17-20.47-31.89-79.06-31.12-97.84.08-1.9.98-6.38,2.65-7.64,10.07-2.8,37.63,16.94,46.63,23.32,42.15,29.86,88.52,76.73,121.2,116.8,10,12.26,18.97,23.63,25.98,38.02,4.13-8.68-1.59-17.08-2.86-25.14-5.12-32.68-11.07-77.55-37.2-100.8-19.67-17.5-46.93-31.06-67.91-48.09-64.82-52.61-124.49-142.1-157.39-218.61-13.17-30.62-9.49-39.79,22.39-22.39,51.11,27.9,98.54,61.59,142.91,99.09,10.36,8.75,23.26,19.82,32.5,29.53,2.22,2.33,3.07,5.76,2.54-.52-1.23-14.46-12.18-51.8-21.1-62.94-8.03-10.02-25.94-21.41-36.06-31-95.86-90.82-128.17-187.4-167.77-311.17-3.06-9.57-13.67-39.46-13.17-46.92.51-7.64,6.66-15.56,14.98-15.02,5.17.33,21.99,14.69,27.17,18.95,63.9,52.65,132.11,122.38,164.32,199.68,24.19,58.04,31.35,118.72,31.67,181.35,2.52-.61,4.57-3.19,5.46-5.52,3.4-8.89,6.52-32.79,8.32-43.68,6.4-38.8,10.97-79.12,16-118,3.27-25.25,2.93-57.32,8.62-81.38,2.21-9.33,11.23-16.48,20.1-9.46,11.14,8.82,33.84,88.56,38.12,106.41,23.66,98.73,23.17,195.73-6.11,293.17-5.03,16.73-25.85,61.38-26.4,73.61-.82,18.17,10.51,42.38,11.88,60.87,3.99.49,3.3.41,4.49-2.5,6.26-15.23,9.11-37.19,14.53-53.48,17.68-53.21,45.09-118.18,68.62-169.38,6.05-13.16,26.72-64.67,37.43-26.73,4.06,14.4,7.14,39.66,8.9,55.1,13.29,116.3.79,218.48-57.64,320.33-20.76,36.18-51.72,67.31-56.32,109.68-1.31,12.04.24,24.89-2,36.97l140.32-208.65c4.21-6.92,18.41-18.68,26.27-13.52,5.07,3.33,3.97,46.52,3.47,55.26-7.62,132.84-59.68,259.62-165.14,342.86-13.3,10.5-38.77,23.66-48.64,35.36-11.57,13.72-14.58,45.54-20.29,62.69,60.52-66.03,134.01-117.74,204.89-172.09,32.65-17.03,12.37,32.74,7.62,47.61-34.8,109.01-101.73,199.87-196.7,263.3-33.61,22.45-98.81,49.52-120.66,79.34-6.33,8.64-11.12,20.86-19.15,28.86-2.81,7.11,15.47-3.54,17.37-4.64,64.16-37.03,125.43-78.1,196.11-103.89,25.08-9.15,44.66-18.81,30.2,18.2-30.23,77.4-116.72,161.53-188.37,201.64-52.54,29.41-93.24,36.68-149.41,52.59-33.73,9.55-55.52,20.29-77.91,48.1-.95,4.79,3.86,3.21,6.51,2.51,77.42-20.47,161.53-53.2,242.49-59.5,7.2-.56,16.13-.97,22.48,2.44,8.43,8.28-11.55,27.94-17.45,34.57-83.31,93.53-218.74,151.22-342.98,159.02-26.49,1.66-72.79-4.82-95.65.35-4.36.99-39.07,25.34-37.41,27.56,56.84,11.42,115.21,13.23,172.75,20.27,125.65,15.37,383.97,52.52,479.27,134.73,57.4,49.52,31.98,110.4,38.9,177.1,50.14,16.27,100.64,34.59,145.71,62.29,33.07,20.33,71.22,48.78,78.86,89.14-.28,99.83,8.85,208.21,2.6,307.59-.79,12.52-.58,33.21-18.6,28.43-18.35-12.96-34.51-28.42-53.67-40.36-72.83-45.34-167.62-63.99-252.92-63.25-65.36.57-189.68,24.68-245.4-8.44-11.32-6.73-15.33-22.37-17.49-34.51l-1.29-169.09c-42.14-8.47-84.96-11.55-127.7-15.93-195.16-20-393.21-25.95-590.01-29.99-242.95-4.99-485.67.96-727.94,14.1-89.62,4.86-179,8.95-267.85,20.15-27,3.4-54.07,8.8-81.15,11.84-1.24,6.47,1.76,12.54,1.99,18.84,1.62,43.6,3.85,107.71-.12,150.05-1.25,13.32-4.58,22.4-15.02,30.98-40.49,33.26-136.45,16.91-185.97,14.07-128.93-7.37-276.74,6.45-373.01,100.94-14.27,3.73-20.75.62-22.06-13.86-5.44-59.88,1.71-133.17,2.19-194,.58-73.84-19.65-133.64,41.88-188.12,51.35-45.47,119.77-70.76,185.15-88.85,3.74-5.32-1.16-99.18,1.36-116.64,1-6.96,6.09-20.07,9.48-26.52,41.71-79.46,219.15-117.65,301.63-134.37,124.12-25.16,250.42-39.56,376.41-52.6,3.01-3.36-20.77-19.11-24.12-20.86-27.94-14.64-84.13-8.6-116.85-11.15-119.29-9.29-227.51-53.02-312.82-137.18-6.2-6.11-37.23-37.99-39.17-42.89-4.18-10.54,1.97-19.57,13.65-17.76l151.34,30.82,93.96,24.04c-13.22-17.49-22.49-35.9-45.46-40.54-104.52-21.15-177.37-42.01-258.56-115.44-31.47-28.46-97.34-109.8-108.82-149.16-3.35-11.48-1.47-18.82,11.57-17.73,14.52,1.21,63.89,24.65,80.04,32.1,54.97,25.36,107.68,56.19,159.22,87.76l-22.95-30.03c-39.19-38.17-90.76-61.08-135.66-92.34-89.1-62.04-145.82-146.64-180.65-249.35-2.99-8.81-13.07-35.82-12.65-43.14.44-7.85,5.36-10.17,12.45-8.74,4.56.92,42.24,25.97,49.3,30.78,53.73,36.55,105.73,82.82,152.26,127.74,4.05,3.91,6.15,9.71,10.93,13.07,3.19-4.85-3.02-11.03-4.38-15.62-2.24-7.57-3.21-17-5.67-24.33-12.52-37.23-47.96-47.88-75.91-72.09-96.1-83.27-143.36-211.38-142.96-337.02.03-10.48-2.37-19.7.33-31.5,4-17.47,15.24-7.21,22.37.78,25.7,28.75,57.98,78.23,80.83,111.17,21.04,30.33,39.97,61.93,60.37,92.63-.56-10.88.76-22.15,0-33ZM626.12,404.01c-3.23-3.31-16.13,14.89-18.2,16.78-41.77,38-77.4,69.58-106.13,119.87-31.6,55.32-40.09,114.94-47.64,177.34,95.16-77.69,136.91-199.75,171.97-313.99ZM2359.34,408.8c-2.66-1.83-6.49-2.68-9.19-4.8-.41,3.35.45,6.45,1.35,9.63,26.56,94.23,74.65,213.55,146.6,281.4l26.02,20.96c1.22-92.03-36-171.79-94.96-240.02-16.27-18.83-50.09-53.56-69.82-67.17ZM372.15,924c3.37-2.01,6.24-9.98,7.36-13.62,12.83-41.61,27.92-106.22,24.38-149.14-3.38-40.92-13.99-90.18-19.99-132.01-3.8-26.49-7.83-52.94-11.79-79.23-5.48,4.31-7.41,14.83-9.41,21.56-19.64,66.09-29.57,148.59-22.32,217.18,4.89,46.22,18.47,91.05,31.78,135.24ZM2602.15,932c3.02-.3,3.09-2.96,3.88-5.1,42.04-114.52,44.25-219.59,13.53-337.32-3.14-12.04-7-27.08-12.44-37.56-1.7,1.16-2.54,5.18-2.8,7.18-4.58,34.94-7.41,70.52-12.46,105.54-7.18,49.76-21.18,97.07-15.48,148.02,4.54,40.58,17.38,79.52,25.77,119.25ZM388.15,960l62.93-46.05c51-41.32,112.53-118.82,139.2-178.8,1.41-3.16,2.46-5.5,1.83-9.15-68.92,43.17-146.72,92.49-181.7,169.28-6.65,14.59-9.95,29.97-15.25,44.75-2.29,6.4-9.62,10.9-7.02,19.96ZM2582.12,947.99c-16.26-103.38-110.72-169.54-193.97-219.99-3.19,4.25,19.19,41.15,23.15,47.83,34.8,58.73,101.22,140.34,163.7,170.3,2.43,1.16,4.12,2.57,7.12,1.86ZM332.11,1188c5.06-83.88-5.63-159.43-32.7-238.28-12.88-37.51-31.87-92.32-48.93-127.07-1.51-3.07-2.66-7.52-6.33-8.65-11.01,88.91-10.93,180.02,23.01,263.97,15.73,38.91,39.04,77.58,64.95,110.03ZM2646.15,1192c31.07-39.27,57.12-88.34,72.89-136.09,25.3-76.67,25.32-156.33,15.07-235.89l-60.33,140.63c-27,73.49-33.66,153.56-27.63,231.35ZM354.14,1233.99c1.23,1.38,16.99-8.38,18.99-9.99,42.48-34.19,88.12-101.66,110.99-151.01,12.27-26.46,24-69.53,38.03-91.97.6-.96,12.78-11.37,4.98-10.98-3.98.2-55.29,43.63-62.06,49.91-58.09,53.91-111.75,131.67-110.94,214.04ZM2622.11,1238c6.05-35.56-6.33-76.58-22.59-108.38-32.8-64.14-89.52-115.69-145.37-159.61,20.8,59,42.69,119.2,77.15,171.83,23.94,36.57,58.05,67.67,90.81,96.16ZM360.15,1116c4.55-1.2,4.16-6.27,3.96-10-4.55,1.2-4.16,6.27-3.96,10ZM2683.29,1407.16c67.54-76.59,98.57-178.53,106.82-279.16-4.76,2.99-8.29,8.83-11.61,13.37-31.45,43.03-67.53,91.71-95.2,136.8-37.33,60.83-59.39,127-77.15,195.83,27.35-19.54,54.93-41.65,77.14-66.84ZM192.09,1130.02l-3.99,1.01c4.76,28.95,6.75,58.31,12.96,87.04,19.08,88.28,64.13,172.14,134.11,229.89l34.95,24.03c-2.42-6-1.16-12.82-2.46-18.52-15.71-68.83-51.67-141.29-89.49-200.51-26.98-42.25-60.52-79.83-86.08-122.94ZM2564.15,1530c3.21-1.07,5.31-5.64,6.42-8.56,26.02-68.94.83-148.62-31.74-211.14l-58.68-96.29c2.79,75.49,11.59,153.77,41.05,223.92,13.06,31.1,33.65,59.62,42.96,92.06ZM500.13,1218.02c-4.25-.8-5.52,2.71-7.66,5.32-13.77,16.85-31.76,49.51-42.69,69.31-32.15,58.29-57.34,117.76-49.41,186.1,1.76,15.13,6.75,29.98,7.76,45.26,4.53,1.02,3.25-.66,4.59-2.5,11.48-15.79,29.61-54.78,38.12-73.78,30-66.98,40.19-136.15,45.31-208.69.45-6.4,2.26-14.74,3.97-21.01ZM372.97,1583.16c-32.52-36.04-70.32-72.46-109.04-101.96-18.87-14.37-39.76-25.71-57.77-41.21,31.61,95.7,91.77,184.25,175.72,241.26l98.25,62.73c.88-3.74-1.26-5.53-2.71-8.27-28.84-54.5-63.22-106.86-104.44-152.56ZM2770.13,1440.02l-106.03,82.95c-64.99,55.07-116.24,123.8-158.69,197.31-1.5,2.6-8.55,16.16-7.25,17.73,91.07-45.96,172.29-107.6,224-196.98,18.65-32.25,33.42-66.77,47.98-101ZM2438.11,1458l-4.04,2.92c-14.43,80.95-26.19,161.45-9.01,243.15,5.6,26.63,15.83,52.14,24.06,77.92,13.26-13.49,24.45-37.61,29.94-56.06,14.06-47.23,3.78-112.63-7.45-160.41-8.6-36.59-23.98-71.23-33.5-107.52ZM548.12,1462.01c-4-.65-5.89,2.45-7.53,5.45-7.67,13.99-18.03,48.03-23.38,64.62-19.79,61.36-36.31,128.2-20.51,192.35,5.74,23.3,16.28,43.12,28.44,63.56,25.23-64.57,40.15-135.06,37.07-205.07-1.53-34.93-9.5-68.11-13.84-102.16-.79-6.2.01-12.54-.25-18.75ZM2283.31,1999.19c61.94-74.94,60.67-180.71,52.85-272.22-1.1-12.88.78-26.13-2.05-38.96l-12.33,22.64c-27.2,56.5-47.51,113.92-55.4,176.6-5.52,43.84-4.43,84.89-.23,128.75,6.25-4.75,12.22-10.84,17.16-16.81ZM716.11,2022c1.93-82.26-2.47-163.76-29.08-241.9-5.94-17.44-15.37-39.95-23.48-56.52-4.4-8.99-10.04-21.37-17.4-27.58-10.39,71.19-14.26,145.6,5.46,215.52,10.79,38.26,30.69,71.7,55.69,102.31,2.42,2.96,5.33,6.5,8.81,8.17ZM2666.12,1736.01c-58.48,24.54-115.09,54.39-168.62,88.36-15.99,10.15-32.87,20.66-48.03,31.97-39.48,29.44-73.62,69.9-107.34,105.64,121.81-24.72,228.1-82.04,299.93-185.05,5.85-8.39,17.96-25.6,22.07-33.93,1.14-2.32,2.9-3.65,1.98-7ZM612.83,1935.3c-40.22-41.11-67.08-70.13-116.86-102.14-57.31-36.85-118.31-68.41-181.83-93.15,22.08,45.76,58.32,87.14,97.04,119.94,57.84,48.99,134.88,82.81,208.89,99.11,6.51,1.43,15.56,3.54,22.05,1.95-8.81-8.79-20.71-16.94-29.29-25.71ZM2182.13,1888.02c-3.57-.76-4.9,1.83-7.03,3.95-18.92,18.82-42.36,50.02-57.79,72.21-43.04,61.87-69.04,131.39-81.16,205.82,34.71-10.42,64.21-44.04,82.83-74.15,39.24-63.42,49.26-135.85,63.15-207.83ZM816.95,1907.19c-4.17-4.66-5.39-11.45-12.8-13.19,6.02,63.92,16.32,128.83,43.63,187.35,21.55,46.2,52.23,69.93,94.33,96.65,4.03-5.39-25.93-106.19-31.08-119.9-19.83-52.82-56.66-109.08-94.08-150.91ZM850.11,2148c.95-4.29-2.12-4.56-4.62-6.36-36.58-26.26-90.14-58.27-130.98-77.02-75.03-34.46-158.99-43.85-238.37-64.61-3.41,3.22,17.06,22.3,19.96,25.02,48.67,45.58,127.12,85.99,191.6,102.4,53.46,13.6,108.06,14.42,162.41,20.57ZM2512.12,2000.01c-77.28,15.66-154.9,31.29-229.34,57.64-42.24,15.97-99.34,47.25-134.48,75.52-1.51,1.22-10.62,8.75-8.16,10.82,124.29-2.05,249.93-35.68,344.93-118.05l27.05-25.93ZM2956.13,2974v-279c0-.96-4.78-16.54-5.55-18.45-15.87-38.93-89.62-78.34-127.09-94.91-23.05-10.2-46.96-19.23-71.35-25.63.47,59.66-.62,119.4-.09,179.07.36,40.73,17.68,110.36-35.82,124.01-33.37,8.52-65.43,3.28-99.07.88-52.82-3.75-106.51-12.22-159.55-3.51-19.37,3.18-54.44,14.08-18.01,29.08,29.18,12.02,75.63,7.91,107.52,6.44,52.01-2.4,103.75-8.83,156.1-6.06,90.18,4.77,179.67,36.45,252.92,88.08ZM232.13,2560c-25.54,1.86-53.3,13.69-77,24-41.56,18.09-116.42,57.33-126.53,105.47l-2.47,17.53v267c3.1.73,4.35-1.27,6.58-2.42,12.75-6.57,27.67-19.86,42.07-27.92,103.85-58.13,217.98-60.39,334.43-55.74,42.89,1.71,88.35,10.24,130.94,1.1,10.08-2.16,31.23-6.89,29.71-19.62-1.86-6.46-22.55-12.08-28.9-13.24-40.26-7.36-88.65-2.63-129.82-.14-41.64,2.52-136.57,20.25-168.01-10.03-2.79-2.69-11.01-15.97-11.01-18.99v-267ZM2418.13,2840c17.72-4.15,35.01-9.82,53.26-11.74,60.7-6.39,122.98,4.68,183.76,7.72,18.2.91,71.23,3.29,72.92-23.11,1.43-22.47-42.03-42.71-59.22-50.59-77.59-35.55-164.96-47.32-248.7-60.3.62,2.01-2.02,4.27-2.02,5.02v133ZM572.11,2840l1.52-133.09-4.5-2.93c-73.96,11.62-153.67,23.21-224.53,47.48-21.44,7.34-85.49,32.71-88.02,57.99-3.3,32.91,60.02,27.31,80.55,26.53,29.84-1.13,60.16-6.77,89.94-8.06,46.59-2.03,101.32-3.32,145.06,12.08Z"/>
      <path class="cls-2" d="M532.59,2472.45l-24.1,83.08c-1.7,6.67,1.66,8.15,7.19,9.92,15.06,4.84,37.53,7.96,53.21,6.3,9.4-.99,30.85-11.57,36.37.2,1.91,4.07-9.48,13.45-12.67,15.51-20.7,13.37-41.92,12.82-64.98,8.07-7.62-1.57-27.53-9.73-32.51-9.7-5.42.04-15.69,11.59-22.88,15.25-20.74,10.55-57,12.08-53.98-19.83,1.87-19.76,34.47-28.79,51.01-29.32,6.03-.19,13.58,5.51,16.49-1.34l18.07-79.66c-15.4-5.95-34.79-18.44-31.58-37.77.89-5.34,6.46-15.83,12.82-15.25,11.5,1.07,7.48,31.38,22.06,34.17,6.62-5.07,3.91-10.09,5.92-16.18,7.68-23.2,22.12-61.31,43.69-74.31,18.2-10.97,44.35-15.24,48.94,11.9,6.97,41.16-33.99,89.73-73.06,98.97ZM588.12,2374.01c-7.53-7.73-31.88,28.85-34.83,34.16-3.48,6.27-19.86,44.17-17.14,47.84,29.25-16.26,54.78-47,51.97-81.99ZM474.13,2572.02c-15.96-.58-32.56-2.79-35.91,16.84l4.79,3.14c11.03-4.68,24.01-9.72,31.11-19.98Z"/>
      <path class="cls-2" d="M640.83,2410.7c13.26-14.64,32.65-10.51,25.41,12.43-10.91,34.59-46.02,10.32-25.41-12.43Z"/>
      <path class="cls-1" d="M232.13,2560v267c0,3.02,8.22,16.3,11.01,18.99,31.43,30.28,126.36,12.55,168.01,10.03,41.16-2.49,89.56-7.22,129.82.14,6.34,1.16,27.04,6.77,28.9,13.24,1.52,12.73-19.63,17.46-29.71,19.62-42.59,9.13-88.05.61-130.94-1.1-116.44-4.65-230.58-2.39-334.43,55.74-14.4,8.06-29.33,21.36-42.07,27.92-2.23,1.15-3.48,3.15-6.58,2.42v-267l2.47-17.53c10.12-48.14,84.97-87.38,126.53-105.47,23.7-10.31,51.46-22.14,77-24Z"/>
      <path class="cls-1" d="M572.11,2840c-43.74-15.4-98.47-14.11-145.06-12.08-29.78,1.3-60.1,6.93-89.94,8.06-20.53.78-83.85,6.37-80.55-26.53,2.54-25.28,66.58-50.64,88.02-57.99,70.86-24.27,150.57-35.86,224.53-47.48l4.5,2.93-1.52,133.09Z"/>
      <path class="cls-1" d="M740.12,2454.01c1.01,8.15-1.86,16.08-6,22.98-2.46,4.1-29.65,35.2-33.99,30.99-.31-7.7,33.65-61.14,39.99-53.97Z"/>
      <path class="cls-1" d="M588.12,2374.01c2.81,34.99-22.72,65.73-51.97,81.99-2.71-3.67,13.66-41.57,17.14-47.84,2.95-5.31,27.29-41.89,34.83-34.16Z"/>
      <path class="cls-1" d="M474.13,2572.02c-7.1,10.26-20.09,15.29-31.11,19.98l-4.79-3.14c3.34-19.63,19.94-17.42,35.91-16.84Z"/>
      <g>
        <path class="cls-1" d="M372.97,1583.16c41.23,45.7,75.61,98.06,104.44,152.56,1.45,2.74,3.59,4.53,2.71,8.27l-98.25-62.73c-83.95-57.01-144.11-145.56-175.72-241.26,18.01,15.49,38.91,26.84,57.77,41.21,38.72,29.49,76.53,65.91,109.04,101.96Z"/>
        <path class="cls-1" d="M612.83,1935.3c8.58,8.76,20.48,16.92,29.29,25.71-6.49,1.59-15.54-.52-22.05-1.95-74.01-16.3-151.05-50.12-208.89-99.11-38.72-32.8-74.96-74.18-97.04-119.94,63.52,24.73,124.53,56.29,181.83,93.15,49.78,32.01,76.63,61.04,116.86,102.14Z"/>
        <path class="cls-1" d="M850.11,2148c-54.36-6.14-108.95-6.96-162.41-20.57-64.48-16.41-142.93-56.82-191.6-102.4-2.9-2.71-23.37-21.8-19.96-25.02,79.38,20.76,163.33,30.15,238.37,64.61,40.83,18.75,94.4,50.76,130.98,77.02,2.5,1.8,5.57,2.07,4.62,6.36Z"/>
        <path class="cls-1" d="M192.09,1130.02c25.56,43.11,59.1,80.69,86.08,122.94,37.82,59.22,73.78,131.68,89.49,200.51,1.3,5.7.04,12.52,2.46,18.52l-34.95-24.03c-69.98-57.75-115.03-141.62-134.11-229.89-6.21-28.73-8.2-58.09-12.96-87.04l3.99-1.01Z"/>
        <path class="cls-1" d="M332.11,1188c-25.92-32.45-49.23-71.12-64.95-110.03-33.94-83.96-34.02-175.06-23.01-263.97,3.67,1.13,4.82,5.57,6.33,8.65,17.06,34.75,36.05,89.56,48.93,127.07,27.07,78.85,37.75,154.4,32.7,238.28Z"/>
        <path class="cls-1" d="M626.12,404.01c-35.06,114.23-76.81,236.29-171.97,313.99,7.55-62.4,16.04-122.03,47.64-177.34,28.73-50.29,64.37-81.87,106.13-119.87,2.07-1.88,14.97-20.08,18.2-16.78Z"/>
        <path class="cls-1" d="M372.15,924c-13.31-44.2-26.89-89.02-31.78-135.24-7.25-68.6,2.68-151.1,22.32-217.18,2-6.73,3.93-17.26,9.41-21.56,3.96,26.29,7.99,52.74,11.79,79.23,6,41.83,16.61,91.09,19.99,132.01,3.55,42.92-11.55,107.53-24.38,149.14-1.12,3.63-3.99,11.6-7.36,13.62Z"/>
        <path class="cls-1" d="M548.12,1462.01c.27,6.21-.54,12.54.25,18.75,4.34,34.05,12.31,67.23,13.84,102.16,3.07,70.01-11.85,140.5-37.07,205.07-12.16-20.44-22.7-40.26-28.44-63.56-15.8-64.16.72-130.99,20.51-192.35,5.35-16.59,15.71-50.63,23.38-64.62,1.64-3,3.54-6.09,7.53-5.45Z"/>
        <path class="cls-1" d="M716.11,2022c-3.48-1.66-6.4-5.2-8.81-8.17-25-30.61-44.9-64.05-55.69-102.31-19.71-69.92-15.85-144.33-5.46-215.52,7.37,6.21,13,18.59,17.4,27.58,8.11,16.57,17.54,39.08,23.48,56.52,26.61,78.14,31.01,159.65,29.08,241.9Z"/>
        <path class="cls-1" d="M816.95,1907.19c37.42,41.83,74.25,98.09,94.08,150.91,5.15,13.72,35.11,114.51,31.08,119.9-42.1-26.72-72.78-50.45-94.33-96.65-27.3-58.52-37.6-123.44-43.63-187.35,7.41,1.74,8.63,8.52,12.8,13.19Z"/>
        <path class="cls-1" d="M354.14,1233.99c-.81-82.37,52.85-160.13,110.94-214.04,6.76-6.28,58.08-49.71,62.06-49.91,7.8-.39-4.38,10.02-4.98,10.98-14.03,22.45-25.76,65.51-38.03,91.97-22.88,49.34-68.51,116.81-110.99,151.01-2,1.61-17.76,11.37-18.99,9.99Z"/>
        <path class="cls-1" d="M500.13,1218.02c-1.71,6.27-3.52,14.61-3.97,21.01-5.11,72.55-15.31,141.72-45.31,208.69-8.51,19-26.64,58-38.12,73.78-1.34,1.84-.06,3.53-4.59,2.5-1.02-15.27-6-30.13-7.76-45.26-7.94-68.33,17.26-127.8,49.41-186.1,10.92-19.81,28.92-52.46,42.69-69.31,2.14-2.62,3.41-6.12,7.66-5.32Z"/>
        <path class="cls-1" d="M388.15,960c-2.6-9.07,4.73-13.56,7.02-19.96,5.29-14.79,8.6-30.16,15.25-44.75,34.97-76.79,112.77-126.11,181.7-169.28.63,3.65-.42,5.99-1.83,9.15-26.68,59.98-88.2,137.48-139.2,178.8l-62.93,46.05Z"/>
        <path class="cls-1" d="M360.15,1116c-.2-3.73-.59-8.8,3.96-10,.2,3.73.59,8.8-3.96,10Z"/>
      </g>
    </g>
    <g>
      <path class="cls-2" d="M1550.11,2482.01c-21.3,19.89-42.84,41.9-74.81,37.83-18.37-2.34-35.83-12.82-33.18-33.83-13.42,8.3-25.11,16.72-41.96,14.01.21,23.73-9.73,43.51-22,63.01-6.25,9.94-14.29,23.93-25.54,28.45-15.52,6.24-23.09,2.17-24.58-14.37-2.86-31.73,5.97-57.25,14.09-87.1-15.69,18.44-23.42,33.53-51.06,30.08-16.86-2.1-14.49-22.21-17.92-22.04-18.43,28.35-50.68,45.69-68.05,5.95-19.46,13.87-33.13,28.82-59.85,23.92-15.43-2.83-16.75-18.16-21.09-28.94-.93-2.3,1.54-3.79-3.97-2.95-8.03,29.66-66.62,49.94-71.91,10.85-2.18-16.11,18.07-44.19,10.88-58.87-3.25-4.14-8.34-6.63-11.55-1.46-23.63,38.03-38.82,92.46-92.37,95.54-20.93,1.21-34.56-2.24-44.11-22.1-14.05,10.7-25.58,23.69-45.52,19.56-19.51-4.04-17.16-24.36-18.45-39.55-16.49,22.52-30.4,50.97-63.51,43.49-9.73-2.2-11.54-15.88-12.48-15.46-12.91,16.63-37.38,38.43-59.84,35.84-3.51-.4-17.92-3.79-21.06-4.96-7.76-2.88-10.99-11.87-17.11-16.85-21.05,33.83-65.21,46.11-67.08-6.96-.61-17.31,9.06-66.17,24.15-76,6.61-4.31,21.04-5.14,21.35,4.17.25,7.65-13.63,30.98-16.94,40.24-4.12,11.52-15.64,52.88,6.08,48.15,25.88-5.63,32.51-44.62,41.68-64.38,10.69-23.04,38.29-65.19,68.46-46.94s-10.92,63.6-30.93,74.47c-8.99,4.89-26.25,5.66-25.12,17.93,2.12,22.93,33.86,10.75,46.02,2.97,28.81-18.42,35.83-53.11,55.66-78.34,11.09-14.11,42.59-43.94,60.76-29.42,2.88,2.3,2.41,9.21,5.87,4.05,4.89-7.29,10.08-38.99,13.62-50.38,4-12.86,16.58-55.42,27.92-60.07,3.61-1.48,12.04-3.32,14.61.35l.72,10.94c-14.02,49.68-36.08,100.55-47.25,150.78-3,13.5-11.35,41.85,11.48,35.47,25.02-7,30.47-36.88,41.91-56.07,9.87-16.56,30.19-42.72,51.02-43.15,39.32-.82,19.97,46.19,1.02,63.18-10.16,9.11-39.46,18.84-42.55,25.45-11.97,25.62,30.06,18.26,43.55,9.55,18.37-11.87,51.95-59.35,56.45-79.55,3.02-13.55-2.39-35.47,17.54-40.67,10.94-.05,7.25,12.61,11.2,19,2.41,3.89,10.01,6.35,13.78,10.22,22.64,23.2-5.55,55.92-4.15,78.01.93,14.66,18.05.9,24.19-4,23.16-18.52,31.23-40.83,37.97-69.01l-18-.02c-1.02-15.88,11.16-13.47,20.58-16.42,8.67-2.71,27.68-61.32,36.73-73.07,5.73-7.43,14.17-8.23,22.41-4.22,7.37,11.8-23.93,61.53-27.71,75.69,8.9,1.03,36.93-6.49,42.13,1.38l1.67,7.32c-2.9,10.36-41.19.63-50.75,11.38-4.61,5.18-17.72,47.39-18.58,55.49-3.12,29.66,27.44,21.24,43.35,9.28,24.56-18.45,32.01-53.38,55.19-74.81,17.52-16.2,54.38-32.69,71-7.03,14.94,23.08-22.86,71.19-13.13,85.13,5.36,7.67,25.71-9.59,30.21-14.02,39.34-38.74,55-132.89,90.48-168.1,19.87-19.71,39.87-8.78,31.87,18.45-7.1,24.16-26.95,39.65-41.1,58.89-6.03,8.19-25.41,36.5-23.99,45.13.69,4.18,4.83,9.47,5.18,15.03.27,4.35-1.84,7.74-1.16,12.96,1.44,11.06,5.42,14.61,16.14,13.07,40.25-5.76,45.69-65.45,83.03-83,16.02-7.53,41.89-8.63,42.64,14.45,1.02,31.48-27.14,51.58-54.14,60.05-7.09,2.22-14.22-1.98-17.13,6.86-8.52,25.92,18.36,24.47,35.04,19.05,73-23.7,67.96-145.93,132.18-191.82,17.01-12.16,39.53-13.56,37.47,13.3-2.32,30.27-33.81,77.65-53.66,100.51-16.21,18.68-41.84,31.07-37.48,59.57,4.59,30.01,34.75,2.2,45.5-9.55,3.86-4.22,8.06-16.76,15.01-14.95s-3.18,19.24-5.3,22.67c-8.7,14.08-29.64,33.74-46.56,35.42-27.82,2.76-30.9-9.99-35.13-34.09ZM1592.15,2424c19.29-16.47,32.9-40.89,42.91-64.07,4.79-11.09,10.96-23.94,11.05-35.93-23.39,28.23-44.14,64.4-53.96,100ZM1470.13,2461.98c16.14-1.61,42.25-26.02,43.56-41.52.29-3.42.61-4.17-2.54-6.41-19.02,10.12-32.09,28.65-41.01,47.93ZM1294.12,2424.01c-28.24-7.44-67.91,55.74-63.98,76.89,4.15,22.31,35.47-13.7,40.81-21.08,11.88-16.42,18.85-36.06,23.17-55.81ZM946.14,2483.99c3.48,3.62,25.64-17.49,28-20.97,2.57-3.79,10.7-24.72,3-24.97s-32.37,36.08-31,45.94ZM858.11,2442c-21.88,4.61-32.56,16.77-44.81,34.17-5.43,7.72-29.09,43.65-19.28,50.97,13.22,1.24,24.1-12.88,32.05-22.2,14.86-17.43,29.15-40.03,32.04-62.94ZM740.12,2454.01c-6.34-7.17-40.3,46.27-39.99,53.97,4.34,4.22,31.53-26.89,33.99-30.99,4.14-6.9,7-14.83,6-22.98ZM1376.12,2471.99c-5.14-.79-3.11.48-4.18,2.82-4.86,10.63-25.57,93.5-21.8,97.19l6.14-1.24c11.5-22.83,31.9-48.32,27.71-75.64-1.24-8.07-8.66-14.64-7.87-23.14Z"/>
      <path class="cls-1" d="M1294.12,2424.01c-4.31,19.75-11.28,39.39-23.17,55.81-5.34,7.38-36.66,43.39-40.81,21.08-3.93-21.16,35.74-84.33,63.98-76.89Z"/>
      <path class="cls-1" d="M858.11,2442c-2.89,22.91-17.18,45.52-32.04,62.94-7.95,9.32-18.83,23.44-32.05,22.2-9.81-7.32,13.85-43.25,19.28-50.97,12.25-17.41,22.93-29.56,44.81-34.17Z"/>
      <path class="cls-1" d="M1376.12,2471.99c-.79,8.5,6.64,15.06,7.87,23.14,4.19,27.32-16.22,52.81-27.71,75.64l-6.14,1.24c-3.77-3.7,16.94-86.57,21.8-97.19,1.07-2.34-.96-3.61,4.18-2.82Z"/>
      <path class="cls-1" d="M1592.15,2424c9.82-35.6,30.57-71.77,53.96-100-.09,11.99-6.26,24.85-11.05,35.93-10.01,23.18-23.62,47.6-42.91,64.07Z"/>
      <path class="cls-1" d="M1470.13,2461.98c8.92-19.28,21.99-37.81,41.01-47.93,3.15,2.24,2.83,2.99,2.54,6.41-1.31,15.5-27.42,39.91-43.56,41.52Z"/>
      <path class="cls-1" d="M946.14,2483.99c-1.36-9.86,23.08-46.19,31-45.94s-.43,21.18-3,24.97c-2.36,3.48-24.52,24.59-28,20.97Z"/>
    </g>
    <g>
      <path class="cls-2" d="M2027.4,2507.19c5.2-3.93,14.39-17.02,17.98-22.94,10.01-16.52,16.38-55.42,40.83-40.92l-6.06,30.67c16.49-11.34,34.57-31.01,56.7-29.87,46.79,2.41,1.94,71.34,9.55,83.59,13.3,5.21,34.24-12.08,42.77-21.68,12.3-13.85,30.35-61.91,46.37-65.61,4.74-1.09,13.79-1.43,17.74,1.43l2.56,4.8c-11.51,21.53-31.07,44.16-38.66,67.39-17.83,54.6,41.43,15.79,57.78-4.22,8.29-10.15,20.26-38.66,34.16-38.03,16.9.77-.79,24.08-2.97,32.2,11.99-11,27.27-23.14,43.12-27.86,35.89-10.7,41.74,10.37,31.82,39.82-4.71,13.99-30.35,51.37,4.42,38.42,42.81-15.95,49.25-69.24,105.64-74.35,70.52-6.39,19.62,65.83,11,97.96,18.6-4.88,27.23-25.14,43.29-33.75l4.65,2.75c-6.61,15.18-18.41,30.73-32.94,39.03-7.34,4.2-19.76,6.77-24.87,11.13-10.94,9.32-19.74,32.57-35.19,44.81-9.49,7.52-34.02,19.01-45.93,18.17-23.65-1.67-31.14-24.62-13.07-41.17,24.4-22.36,72.6-13.62,80.03-54.94-6.76,2.51-11.6,7.34-18.61,10.37-21.5,9.3-40.57,6.06-50.51-16.31-9.54,1.99-15.13,10.88-24.36,13.44-12.51,3.47-33.66,3.93-39.34-9.67-9.35-22.38,12.93-41.61,12.82-63.83-20.96.61-44.65,17.44-57.93,33.05-5.55,6.53-18.16,28.74-25.42,30.71-6.83,1.86-10.36-10.5-10.66-15.77-6.17,9.54-6.32,3.24-14.04,4.73-5.68,1.1-13.08,7.58-19.41,8.79-24.15,4.59-39.45-6.88-38.53-31.51-12.72,4.76-21.39,17.1-35.46,19.51-37.98,6.5-40.28-19.13-32.4-48.4,2.96-10.99,13.55-25.14,4.73-35-16.15-3.89-61.82,47.77-70.46,61.27-4.64,7.24-7.47,24.21-18,18.18-2.66-1.52-8.43-19.21-8.41-23.57-8.8,2.88-14.78,12.6-23.91,15.05-27.09,7.26-40.84-20.24-37.55-43.54,1.82-12.92,10.73-21.22,16.21-31.79,5.69-10.99,17.7-42.71,30.26-43.91,6.11-.58,18.48,3.85,16.72,10.71-8.51,17.02-42.89,67.5-39.8,84.44,2.58,14.18,26.85,1.14,33.37-3.78ZM2436.14,2559.99c28.78,2.86,60.8-24.52,67.14-52.02.65-2.83,1.52-4.66-.94-7.11-3.96-4.82-10.12-2.22-15.06-.7-24.17,7.45-48.41,34.06-51.13,59.84ZM2452.13,2612.02c-5.3-.05-29.25,9.8-31.48,12.5-1.53,1.85-3.42,14.58-2.51,15.48,16.52,2.12,25.81-16.24,33.99-27.98Z"/>
      <path class="cls-2" d="M1874.15,2433.99l84.03-120.94c6.4-9.57,16.58-12.07,27.08-7.18,1.95,2.81,1.05,14.62.39,18.65-4.23,26.06-22.24,66.15-30.06,93.94-6.82,24.26-21.2,71.05-21.52,94.64-.15,10.69,10.58,29.08-.01,33.92-6.85,3.13-14.21-2.68-17.63-8.32-14.68-24.26,4.71-89.48,12.27-117.12,1.96-7.18,15.84-44.28,13.4-47.58-2.12.76-4.53,1.79-6.05,3.48-19.27,21.57-49.06,78.37-61.65,105.8-3.98,8.67-7.27,28-14.85,31.25-11.32,4.85-16.83-7.91-17.05-17.52-.89-39.66,8.67-79.35,13.41-118.22,1.04-8.51.76-18.08,2.19-26.79-4.63-.91-3.89,1.54-5.15,3.97-29.94,57.6-60.16,115.25-91.98,171.88-6.72,11.45-17.49,7.81-28.87,8.14-.52-3.61.12-6.43,1.16-9.85,5.07-16.61,32.48-61.46,42.5-79.49,19.13-34.43,47.47-90.41,69.54-120.46,1.75-2.39,13.74-7.84,7.62-12.3-10.7-7.81-37.86,16.53-44.47,25.45-11.89,16.05-6.6,32.96-33.05,30.46-7.45-2.44-2.53-29.47,1.21-36.3,16.82-30.72,76.7-68.22,101.88-26.89,20.57,33.77-3.63,90.19-4.36,127.37Z"/>
      <path class="cls-2" d="M2043.53,2364.42c10.1-3.03,23.67,2.36,22.25,14.03-1.88,15.42-16.98,25.62-32.26,21.14-13.84-4.06,1.52-32.62,10.01-35.17Z"/>
      <path class="cls-2" d="M2256.41,2423.71c-1.92-11.49-.57-28.21,13.16-31.31,31.28-7.08,18.08,47.29-13.16,31.31Z"/>
      <path class="cls-1" d="M2956.13,2974c-73.24-51.63-162.74-83.32-252.92-88.08-52.35-2.77-104.09,3.66-156.1,6.06-31.89,1.47-78.34,5.58-107.52-6.44-36.42-15-1.36-25.9,18.01-29.08,53.04-8.71,106.73-.24,159.55,3.51,33.64,2.39,65.71,7.63,99.07-.88,53.5-13.65,36.19-83.28,35.82-124.01-.53-59.68.56-119.42.09-179.07,24.39,6.4,48.3,15.44,71.35,25.63,37.47,16.57,111.22,55.98,127.09,94.91.78,1.91,5.55,17.48,5.55,18.45v279Z"/>
      <path class="cls-1" d="M2418.13,2840v-133c0-.74,2.64-3.01,2.02-5.02,83.74,12.98,171.11,24.75,248.7,60.3,17.2,7.88,60.66,28.12,59.22,50.59-1.68,26.39-54.71,24.02-72.92,23.11-60.78-3.04-123.06-14.11-183.76-7.72-18.25,1.92-35.54,7.59-53.26,11.74Z"/>
      <g>
        <path class="cls-1" d="M2666.12,1736.01c.92,3.34-.84,4.68-1.98,7-4.11,8.33-16.22,25.54-22.07,33.93-71.83,103.01-178.13,160.33-299.93,185.05,33.72-35.74,67.85-76.2,107.34-105.64,15.16-11.31,32.04-21.81,48.03-31.97,53.52-33.98,110.14-63.82,168.62-88.36Z"/>
        <path class="cls-1" d="M2683.29,1407.16c-22.21,25.19-49.79,47.3-77.14,66.84,17.76-68.83,39.82-135,77.15-195.83,27.67-45.09,63.75-93.77,95.2-136.8,3.32-4.54,6.85-10.38,11.61-13.37-8.25,100.63-39.28,202.57-106.82,279.16Z"/>
        <path class="cls-1" d="M2770.13,1440.02c-14.56,34.23-29.33,68.75-47.98,101-51.71,89.38-132.92,151.02-224,196.98-1.29-1.57,5.75-15.12,7.25-17.73,42.45-73.5,93.7-142.23,158.69-197.31l106.03-82.95Z"/>
        <path class="cls-1" d="M2512.12,2000.01l-27.05,25.93c-95,82.37-220.64,116-344.93,118.05-2.45-2.06,6.65-9.6,8.16-10.82,35.14-28.27,92.24-59.55,134.48-75.52,74.44-26.35,152.06-41.98,229.34-57.64Z"/>
        <path class="cls-1" d="M2646.15,1192c-6.03-77.79.63-157.86,27.63-231.35l60.33-140.63c10.25,79.56,10.24,159.22-15.07,235.89-15.76,47.76-41.81,96.83-72.89,136.09Z"/>
        <path class="cls-1" d="M2359.34,408.8c19.73,13.62,53.55,48.34,69.82,67.17,58.96,68.22,96.18,147.99,94.96,240.02l-26.02-20.96c-71.95-67.85-120.04-187.16-146.6-281.4-.9-3.18-1.75-6.28-1.35-9.63,2.7,2.12,6.53,2.97,9.19,4.8Z"/>
        <path class="cls-1" d="M2602.15,932c-8.39-39.73-21.23-78.66-25.77-119.25-5.7-50.95,8.3-98.26,15.48-148.02,5.05-35.02,7.88-70.6,12.46-105.54.26-1.99,1.11-6.01,2.8-7.18,5.43,10.49,9.29,25.53,12.44,37.56,30.72,117.73,28.52,222.81-13.53,337.32-.79,2.14-.86,4.8-3.88,5.1Z"/>
        <path class="cls-1" d="M2283.31,1999.19c-4.94,5.97-10.92,12.07-17.16,16.81-4.21-43.86-5.29-84.92.23-128.75,7.89-62.68,28.2-120.1,55.4-176.6l12.33-22.64c2.83,12.83.95,26.08,2.05,38.96,7.82,91.51,9.09,197.28-52.85,272.22Z"/>
        <path class="cls-1" d="M2438.11,1458c9.52,36.29,24.9,70.93,33.5,107.52,11.23,47.78,21.51,113.18,7.45,160.41-5.49,18.45-16.68,42.57-29.94,56.06-8.23-25.78-18.46-51.3-24.06-77.92-17.18-81.7-5.42-162.2,9.01-243.15l4.04-2.92Z"/>
        <path class="cls-1" d="M2182.13,1888.02c-13.89,71.97-23.91,144.41-63.15,207.83-18.63,30.1-48.13,63.73-82.83,74.15,12.12-74.42,38.13-143.95,81.16-205.82,15.43-22.19,38.88-53.39,57.79-72.21,2.13-2.12,3.46-4.71,7.03-3.95Z"/>
        <path class="cls-1" d="M2564.15,1530c-9.3-32.45-29.9-60.97-42.96-92.06-29.45-70.15-38.26-148.43-41.05-223.92l58.68,96.29c32.57,62.51,57.76,142.2,31.74,211.14-1.1,2.92-3.21,7.49-6.42,8.56Z"/>
        <path class="cls-1" d="M2622.11,1238c-32.75-28.5-66.87-59.6-90.81-96.16-34.46-52.63-56.35-112.83-77.15-171.83,55.84,43.92,112.57,95.47,145.37,159.61,16.26,31.8,28.64,72.83,22.59,108.38Z"/>
        <path class="cls-1" d="M2582.12,947.99c-3,.71-4.69-.7-7.12-1.86-62.48-29.95-128.9-111.56-163.7-170.3-3.96-6.68-26.34-43.58-23.15-47.83,83.25,50.45,177.71,116.6,193.97,219.99Z"/>
      </g>
      <path class="cls-1" d="M2436.14,2559.99c2.72-25.77,26.95-52.39,51.13-59.84,4.94-1.52,11.11-4.12,15.06.7,2.47,2.45,1.59,4.28.94,7.11-6.34,27.5-38.36,54.88-67.14,52.02Z"/>
      <path class="cls-1" d="M2452.13,2612.02c-8.19,11.73-17.47,30.1-33.99,27.98-.91-.89.99-13.63,2.51-15.48,2.23-2.7,26.19-12.55,31.48-12.5Z"/>
    </g>
    <g>
      <path class="cls-2" d="M1957,68.82c119.01-133.76,350.86-60.81,337.2,128.26-9.99,138.26-185.65,183.39-270.06,80.92,1.86,10.43-2.21,21.27-2.21,31,0,95.91,45.06,197.75,84.47,283.72,142.02,309.83,355.82,609.73,227.76,968.32-77.95,218.27-245.71,352.33-485,330.93-33.94-3.04-67.25-12.05-101.04-15.98l2.09,90.68-9.06,3.33-505.91-.19c-17.02-2.36-6.02-34.38-5.13-46.83,1.16-16.21,1.76-32.72,2.01-48.97-21.86,3.56-43.59,10.24-65.49,13.49-239.55,35.58-414.02-65.63-508.85-284.15-167.25-385.4,84.14-710.03,230.35-1046.35,29.46-67.78,62.57-147.99,67.97-222.03.77-10.51,1.79-46.79-3.83-53.73l-4.1-1.22c-22.24,33.25-67.34,52.58-106.95,54.07-201.13,7.55-210.42-288.03-15.15-329.15,162.1-34.14,259.47,115.11,272.45,257.69l2.88,3.12,776.88-.6,1.54-2.46c4.45-28.68,8.42-57.3,16.91-85.09,11.97-39.16,33.15-78.27,60.28-108.77ZM2064.83,1596.7c-47.1,45.86-101.98,69.2-167.73,75.27l-824.04.1c-266.32-39.02-288.79-330.01-240.41-544.55,38.51-170.75,111.23-330.03,170.38-493.62,57.24-158.29,119.94-370.29,12.75-522.55-97.3-138.21-317.1-84.67-301.62,87.62,8.93,99.41,137.89,139.18,204.95,75.01,17.79-17.02,19.57-35.18,17.04-58.99-1.78-16.78-15-39.41-25.18-52.82-7.47-9.83-20.5-14.27-13.78-30.13,5.69-13.41,23.23-.1,29.99,5.92,35.04,31.21,50.64,99.9,54.94,145.06,8.3,87.16-20.76,173.08-53.63,252.33-140.1,337.73-415.64,672.58-244.7,1058,106.28,239.64,309.91,318.93,561.28,248.57,155.56,6.27,317.32-8.09,472.15,0,35.78,1.87,70.79,12.71,106.19,17.81,214.1,30.87,374.7-65.75,464.11-257.35,167.07-358.06-55.87-675.02-202.76-990-47.61-102.1-95.1-207.8-88.71-323.46,2.22-40.16,15.49-107.2,41.25-138.75,7.51-9.2,37.47-35.54,44.96-17.31,6.78,16.51-8.08,20.58-17.15,31.12-47.21,54.84-29.85,117.19,40.61,135.44,159.49,41.29,222.57-169.03,81.75-247.75-98.74-55.2-203.05,3.13-247.06,97.63-107.33,230.4,54.1,517.65,131.8,735.64,74.13,208.01,175.6,533.62-7.38,711.78ZM1102.13,296v54h774v-54h-774ZM1726.09,1558.21h30.04v85.79c54.81-2.96,114.43,6.05,168.1-4.9,83.73-17.09,149.63-77.18,183.89-154.11,86.51-194.26-18.03-474.23-89.09-662.9-54.78-145.46-123.58-287.11-140.91-444.09h-125c-2.85,1.76-2.76,3.99-3.1,6.9-2.39,20.37,1.9,41.87,2.2,62.01,1.91,129.3-1.62,258.77-.1,388.09.22,10.44-9.34,20.91-19.97,16-1.8-.83-8.03-8.74-8.03-10v-463h-139l-3,3v472c0,.6-5.74,6.09-7.42,6.61-8.9,2.73-17.52-3.7-18.69-12.5l.2-458.2-2.1-10.9h-130v465c0,7.81-28,6.41-28-2v-460l-3-3h-137v463c0,11.45-19.77,17.71-28.08,9.67l-1.92-472.67h-126c-26.03,191.93-115.86,367.02-178.92,548.08-52.79,151.57-108.7,338.75-68.92,498.76,25.17,101.27,87.06,188.43,193.48,212.52,55.19,12.5,114.05,4.25,170.38,6.64-.27-28.33.29-57.45.07-85.8h25.92v85.79h154v-85.79h28v85.79h132v-85.79s28,0,28,0v85.79h142.51l-.54-85.79ZM1722.23,1872h-462.1v68h462.1v-68Z"/>
      <path class="cls-1" d="M2064.83,1596.7c182.98-178.15,81.51-503.77,7.38-711.78-77.69-217.99-239.12-505.24-131.8-735.64,44.02-94.49,148.32-152.83,247.06-97.63,140.81,78.72,77.74,289.05-81.75,247.75-70.47-18.24-87.82-80.59-40.61-135.44,9.07-10.54,23.93-14.61,17.15-31.12-7.48-18.23-37.45,8.11-44.96,17.31-25.76,31.55-39.03,98.59-41.25,138.75-6.39,115.66,41.09,221.36,88.71,323.46,146.89,314.98,369.83,631.94,202.76,990-89.41,191.61-250.01,288.22-464.11,257.35-35.4-5.1-70.41-15.94-106.19-17.81-154.83-8.08-316.6,6.28-472.15,0-251.37,70.36-455-8.94-561.28-248.57-170.93-385.43,104.6-720.27,244.7-1058,32.88-79.25,61.93-165.18,53.63-252.33-4.3-45.16-19.9-113.85-54.94-145.06-6.75-6.02-24.3-19.33-29.99-5.92-6.73,15.86,6.3,20.29,13.78,30.13,10.19,13.4,23.4,36.03,25.18,52.82,2.53,23.82.75,41.97-17.04,58.99-67.06,64.17-196.01,24.4-204.95-75.01-15.48-172.29,204.31-225.83,301.62-87.62,107.2,152.26,44.49,364.27-12.75,522.55-59.15,163.59-131.88,322.87-170.38,493.62-48.38,214.54-25.91,505.53,240.41,544.55l824.04-.1c65.75-6.07,120.63-29.41,167.73-75.27ZM1813.53,1787.44c4.25-3.89.99-14.13-.82-19.03-6.75-18.32-24.07-30.84-43.5-32.49l-554.07.1c-25.2,2.05-57.32,26.7-44.21,54.18,26.14,10.99,22.88-10.52,35.28-19.11,4.4-3.05,15.47-6.5,20.91-7.09l528.1-.07c6.28.57,14.69,2.62,19.94,6.06,11.72,7.69,9.82,24.83,27.82,21.91,1.2-.19,9.95-3.9,10.56-4.45Z"/>
      <rect class="cls-1" x="1102.13" y="296" width="774" height="54"/>
      <rect class="cls-1" x="1260.13" y="1872" width="462.1" height="68"/>
      <path class="cls-2" d="M1739.68,888.55c209.76-21.38,225.61,344.87,68.37,398.37-87.17,29.65-169.3-19.65-194.86-104.98-31.74-105.98-10.06-279.47,126.49-293.39ZM1747.61,960.48c-87.05,13.02-87.15,187.18-43.43,240.47,29.89,36.44,85.77,29.77,110.78-9.12,37.28-57.98,33.51-246.43-67.35-231.35Z"/>
      <path class="cls-2" d="M1288.13,1237c41.59-42.4,88.12-82.12,129.03-124.97,18.02-18.88,47.67-50.93,54.01-75.99,19.22-76.03-72.39-111.05-109.1-47.1-3.33,5.8-11.71,31.96-15.12,32.74l-58.56-21.91c2.99-50.6,43.26-94.04,91.73-106.78,68.02-17.88,142.92,12.52,162.97,83.06,31.27,110.06-83.39,178.08-148.95,243.95h155l3,3v60l-264,1v-47Z"/>
      <path class="cls-2" d="M1152.13,980l-62.06,15.12c-5.35-3.92-.15-22.37.04-28.14.45-13.63-1.14-27.47,1-41,41.83-20.59,85.5-36.15,133.03-27.99l.99,386.01h-73v-304Z"/>
      <path class="cls-2" d="M1813.53,1787.44c-.61.55-9.36,4.26-10.56,4.45-18,2.91-16.1-14.22-27.82-21.91-5.25-3.44-13.65-5.49-19.94-6.06l-528.1.07c-5.44.59-16.5,4.04-20.91,7.09-12.39,8.59-9.14,30.1-35.28,19.11-13.1-27.47,19.01-52.13,44.21-54.18l554.07-.1c19.42,1.65,36.74,14.17,43.5,32.49,1.81,4.91,5.08,15.14.82,19.03Z"/>
    </g>
  </g>
  <text class="cls-3" transform="translate(1314.04 2260.24)"><tspan x="0" y="0">1906</tspan></text>
  <text class="cls-4" transform="translate(1083.66 1517.4)"><tspan class="cls-5" x="0" y="0">J</tspan><tspan x="132.92" y="0">AHRE</tspan></text>
</svg>